<?xml version="1.0" encoding="utf-8"?>
<!-- Generator: Adobe Illustrator 18.0.0, SVG Export Plug-In . SVG Version: 6.00 Build 0)  -->
<!DOCTYPE svg PUBLIC "-//W3C//DTD SVG 1.1//EN" "http://www.w3.org/Graphics/SVG/1.1/DTD/svg11.dtd">
<svg version="1.1" id="_x33_5_x5F_statistical_x5F_analysis"
	 xmlns="http://www.w3.org/2000/svg" xmlns:xlink="http://www.w3.org/1999/xlink" x="0px" y="0px" viewBox="0 0 5000 5000"
	 enable-background="new 0 0 5000 5000" xml:space="preserve">
<line fill="none" stroke="#6D6E71" stroke-width="110" stroke-miterlimit="10" x1="0" y1="3515.6" x2="5000" y2="3515.6"/>
<path fill="none" stroke="#6D6E71" stroke-width="110" stroke-miterlimit="10" d="M5000,3203.1c-1328.1,0-1406.2-2968.8-2500-2968.8
	S1328.1,3203.1,0,3203.1"/>
<line fill="none" stroke="#6D6E71" stroke-width="110" stroke-miterlimit="10" x1="1484.4" y1="1406.2" x2="1484.4" y2="3515.6"/>
<line fill="none" stroke="#6D6E71" stroke-width="110" stroke-miterlimit="10" x1="2500" y1="234.4" x2="2500" y2="3515.6"/>
<line fill="none" stroke="#6D6E71" stroke-width="110" stroke-miterlimit="10" x1="1171.9" y1="2109.4" x2="1171.9" y2="3515.6"/>
<line fill="none" stroke="#6D6E71" stroke-width="110" stroke-miterlimit="10" x1="859.4" y1="2656.2" x2="859.4" y2="3515.6"/>
<line fill="none" stroke="#6D6E71" stroke-width="110" stroke-miterlimit="10" x1="546.9" y1="3046.9" x2="546.9" y2="3515.6"/>
<line fill="none" stroke="#6D6E71" stroke-width="110" stroke-miterlimit="10" x1="234.4" y1="3203.1" x2="234.4" y2="3515.6"/>
<line fill="none" stroke="#6D6E71" stroke-width="110" stroke-miterlimit="10" x1="3515.6" y1="1406.2" x2="3515.6" y2="3515.6"/>
<line fill="none" stroke="#6D6E71" stroke-width="110" stroke-miterlimit="10" x1="3828.1" y1="2109.4" x2="3828.1" y2="3515.6"/>
<line fill="none" stroke="#6D6E71" stroke-width="110" stroke-miterlimit="10" x1="4140.6" y1="2656.2" x2="4140.6" y2="3515.6"/>
<line fill="none" stroke="#6D6E71" stroke-width="110" stroke-miterlimit="10" x1="4453.1" y1="3046.9" x2="4453.1" y2="3515.6"/>
<line fill="none" stroke="#6D6E71" stroke-width="110" stroke-miterlimit="10" x1="4765.6" y1="3203.1" x2="4765.6" y2="3515.6"/>
<line fill="none" stroke="#6D6E71" stroke-width="110" stroke-miterlimit="10" x1="1484.4" y1="1406.2" x2="625" y2="1406.2"/>
<line fill="none" stroke="#6D6E71" stroke-width="110" stroke-miterlimit="10" x1="468.8" y1="1406.2" x2="312.5" y2="1406.2"/>
<line fill="none" stroke="#6D6E71" stroke-width="110" stroke-miterlimit="10" x1="156.2" y1="1406.2" x2="0" y2="1406.2"/>
<line fill="none" stroke="#6D6E71" stroke-width="110" stroke-miterlimit="10" x1="2500" y1="234.4" x2="4375" y2="234.4"/>
<line fill="none" stroke="#6D6E71" stroke-width="110" stroke-miterlimit="10" x1="4531.2" y1="234.4" x2="4687.5" y2="234.4"/>
<line fill="none" stroke="#6D6E71" stroke-width="110" stroke-miterlimit="10" x1="4843.8" y1="234.4" x2="5000" y2="234.4"/>
</svg>
