<?xml version="1.0" encoding="utf-8"?>
<!-- Generator: Adobe Illustrator 18.0.0, SVG Export Plug-In . SVG Version: 6.00 Build 0)  -->
<!DOCTYPE svg PUBLIC "-//W3C//DTD SVG 1.1//EN" "http://www.w3.org/Graphics/SVG/1.1/DTD/svg11.dtd">
<svg version="1.1" id="Icons" xmlns="http://www.w3.org/2000/svg" xmlns:xlink="http://www.w3.org/1999/xlink" x="0px" y="0px"
	 viewBox="0 0 64 64" enable-background="new 0 0 64 64" xml:space="preserve">
<g id="SEO_courses">
	<g>
		<g>
			<path fill="#6D6E71" d="M53,11c0.5,0,1-0.4,1-1V9c0-0.6-0.5-1-1-1H32.5V6c0-0.3-0.2-0.5-0.5-0.5S31.5,5.7,31.5,6v2H11
				c-0.6,0-1,0.4-1,1v1c0,0.6,0.4,1,1,1h1v28h-1c-0.6,0-1,0.5-1,1v1c0,0.5,0.4,1,1,1h20.5v2.8L25,51.3c-0.3-0.2-0.6-0.3-1-0.3
				c-1.1,0-2,0.9-2,2s0.9,2,2,2s2-0.9,2-2c0-0.4-0.1-0.7-0.3-1l5.8-5.8v8.9c-0.9,0.2-1.5,1-1.5,1.9c0,1.1,0.9,2,2,2s2-0.9,2-2
				c0-0.9-0.6-1.7-1.5-1.9v-8.9l5.8,5.8c-0.2,0.3-0.3,0.6-0.3,1c0,1.1,0.9,2,2,2s2-0.9,2-2s-0.9-2-2-2c-0.4,0-0.7,0.1-1,0.3
				l-6.5-6.5V42H53c0.5,0,1-0.5,1-1v-1c0-0.5-0.5-1-1-1h-1V11H53z M24,54c-0.6,0-1-0.4-1-1s0.4-1,1-1s1,0.4,1,1S24.6,54,24,54z
				 M41,53c0,0.6-0.4,1-1,1s-1-0.4-1-1s0.4-1,1-1S41,52.4,41,53z M33,57c0,0.6-0.4,1-1,1s-1-0.4-1-1s0.4-1,1-1
				C32.6,56,33,56.4,33,57z M11,10V9h42v1h-1H12H11z M53,40v1H11v-1h1h40H53z M51,39H13V11h38V39z"/>
			<path fill="#6D6E71" d="M19.8,31c1,0,2.8,0,2.8,0c1,0,2.5-1.9,2.5-1.9s0.2,1.9,1,1.9h1c-1,0-1-0.9-1-0.9V23c0-1.6-1.4-3-3-3h-2
				c-1.6,0-3,1.4-3,3h1c0-0.6,0.6-2,2-2h2c1.8,0,2,1.7,2,3h-1h-2.5c-1.9,0-3.5,1.6-3.5,3.5c0,0.6,0,1.2,0,1.8
				C18,30.2,18.8,31,19.8,31z M19,27.5c0-1.4,1.1-2.5,2.5-2.5H24h1v2.4l-0.8,1c-0.6,0.7-1.4,1.5-1.7,1.6h-2.8
				c-0.4,0-0.8-0.3-0.8-0.8V27.5z"/>
			<path fill="#6D6E71" d="M39,30.2c0.5,0.5,1.2,0.8,2,0.8h2c1.7,0,3-1.3,3-3v-5c0-1.7-1.3-3-3-3h-2c-0.8,0-1.5,0.3-2,0.8V16h-1v15
				h1V30.2z M39,22.1l0.7-0.6c0.3-0.2,0.7-0.5,1.3-0.5h2c1.1,0,2,0.9,2,2v5c0,1.1-0.9,2-2,2h-2c-0.6,0-1.1-0.3-1.3-0.5L39,28.9V22.1
				z"/>
			<polygon fill="#6D6E71" points="31.5,29.5 32.5,29.5 32.5,26 36,26 36,25 32.5,25 32.5,21.5 31.5,21.5 31.5,25 28,25 28,26 
				31.5,26 			"/>
		</g>
	</g>
</g>
</svg>
