<?xml version="1.0" ?><svg height="24px" version="1.1" viewBox="0 0 24 24" width="24px" xmlns="http://www.w3.org/2000/svg" xmlns:sketch="http://www.bohemiancoding.com/sketch/ns" xmlns:xlink="http://www.w3.org/1999/xlink"><title/><desc/><defs/><g fill="none" fill-rule="evenodd" id="miu" stroke="none" stroke-width="1"><g id="Artboard-1" transform="translate(-431.000000, -371.000000)"><g id="slice" transform="translate(215.000000, 119.000000)"/><path d="M435.352941,376 C435.352941,376 433,376 433,378.285714 L433,389.714286 C433,392 435.352941,392 435.352941,392 L450.647059,392 C450.647059,392 453,392 453,389.714286 L453,378.285714 C453,376 450.647059,376 450.647059,376 L435.352941,376 L435.352941,376 Z M435.2,377 C435.2,377 434,377 434,378.166667 L434,389.833333 C434,391 435.2,391 435.2,391 L450.8,391 C450.8,391 452,391 452,389.833333 L452,378.166667 C452,377 450.8,377 450.8,377 L435.2,377 L435.2,377 Z M432.578947,393 C432.578947,393 432.000001,393 432,393.5 C432,394 432.578947,394 432.578947,394 L453.421053,394 C453.421053,394 454,394 454,393.5 C454,393 453.421053,393 453.421053,393 L432.578947,393 L432.578947,393 Z M432.578947,374 C432.578947,374 432.000001,374 432,374.5 C432,375 432.578947,375 432.578947,375 L453.421053,375 C453.421053,375 454,375 454,374.5 C454,374 453.421053,374 453.421053,374 L432.578947,374 Z M442,372 L442,374 L444,374 L444,372 L442,372 Z" fill="#6D6E71" id="device-projector-screen-empty-presentation-outline-stroke"/></g></g></svg>

