<?xml version="1.0" encoding="utf-8"?>
<!-- Generator: Adobe Illustrator 18.0.0, SVG Export Plug-In . SVG Version: 6.00 Build 0)  -->
<!DOCTYPE svg PUBLIC "-//W3C//DTD SVG 1.1//EN" "http://www.w3.org/Graphics/SVG/1.1/DTD/svg11.dtd">
<svg version="1.1" id="chart1" xmlns="http://www.w3.org/2000/svg" xmlns:xlink="http://www.w3.org/1999/xlink" x="0px" y="0px"
	 viewBox="0 0 612 792" enable-background="new 0 0 612 792" xml:space="preserve">
<line opacity="0.4" fill="none" stroke="#FFFFFF" stroke-miterlimit="10" x1="243" y1="69.2" x2="306.6" y2="160.6"/>
<line opacity="0.4" fill="none" stroke="#FFFFFF" stroke-miterlimit="10" x1="269.5" y1="206.7" x2="306.6" y2="160.6"/>
<line opacity="0.4" fill="none" stroke="#FFFFFF" stroke-miterlimit="10" x1="334" y1="215.3" x2="306.6" y2="160.6"/>
<line opacity="0.4" fill="none" stroke="#FFFFFF" stroke-miterlimit="10" x1="334" y1="215.3" x2="269.5" y2="206.7"/>
<line opacity="0.4" fill="none" stroke="#FFFFFF" stroke-miterlimit="10" x1="317.4" y1="50.9" x2="306.6" y2="160.6"/>
<line opacity="0.4" fill="none" stroke="#FFFFFF" stroke-miterlimit="10" x1="368.9" y1="58.6" x2="306.6" y2="160.6"/>
<line opacity="0.4" fill="none" stroke="#FFFFFF" stroke-miterlimit="10" x1="226.9" y1="41.6" x2="306.6" y2="160.6"/>
<line opacity="0.4" fill="none" stroke="#FFFFFF" stroke-miterlimit="10" x1="357.3" y1="26.1" x2="306.6" y2="160.6"/>
<line opacity="0.4" fill="none" stroke="#FFFFFF" stroke-miterlimit="10" x1="303.2" y1="14" x2="306.6" y2="160.6"/>
<line opacity="0.4" fill="none" stroke="#FFFFFF" stroke-miterlimit="10" x1="272.2" y1="38.9" x2="306.6" y2="160.6"/>
<line opacity="0.4" fill="none" stroke="#FFFFFF" stroke-miterlimit="10" x1="309.3" y1="372.7" x2="219.3" y2="476.3"/>
<line opacity="0.4" fill="none" stroke="#FFFFFF" stroke-miterlimit="10" x1="309.3" y1="372.7" x2="334" y2="215.3"/>
<line opacity="0.4" fill="none" stroke="#FFFFFF" stroke-miterlimit="10" x1="309.3" y1="372.7" x2="269.5" y2="206.7"/>
<line opacity="0.4" fill="none" stroke="#FFFFFF" stroke-miterlimit="10" x1="309.3" y1="372.7" x2="306.6" y2="160.6"/>
<line opacity="0.4" fill="none" stroke="#FFFFFF" stroke-miterlimit="10" x1="190" y1="295.8" x2="309.3" y2="372.7"/>
<line opacity="0.4" fill="none" stroke="#FFFFFF" stroke-miterlimit="10" x1="404.1" y1="267.2" x2="309.3" y2="372.7"/>
<line opacity="0.4" fill="none" stroke="#FFFFFF" stroke-miterlimit="10" x1="217.2" y1="278.1" x2="309.3" y2="372.7"/>
<line opacity="0.4" fill="none" stroke="#FFFFFF" stroke-miterlimit="10" x1="391.3" y1="235.5" x2="309.3" y2="372.7"/>
<line opacity="0.4" fill="none" stroke="#FFFFFF" stroke-miterlimit="10" x1="65.3" y1="253" x2="159.3" y2="314.4"/>
<line opacity="0.4" fill="none" stroke="#FFFFFF" stroke-miterlimit="10" x1="91" y1="270" x2="159.3" y2="314.4"/>
<line opacity="0.4" fill="none" stroke="#FFFFFF" stroke-miterlimit="10" x1="91" y1="270" x2="65.3" y2="253"/>
<line opacity="0.4" fill="none" stroke="#FFFFFF" stroke-miterlimit="10" x1="75.9" y1="304.5" x2="159.3" y2="314.4"/>
<line opacity="0.4" fill="none" stroke="#FFFFFF" stroke-miterlimit="10" x1="75.9" y1="304.5" x2="65.3" y2="253"/>
<line opacity="0.4" fill="none" stroke="#FFFFFF" stroke-miterlimit="10" x1="75.9" y1="304.5" x2="91" y2="270"/>
<line opacity="0.4" fill="none" stroke="#FFFFFF" stroke-miterlimit="10" x1="57.7" y1="336.5" x2="159.3" y2="314.4"/>
<line opacity="0.4" fill="none" stroke="#FFFFFF" stroke-miterlimit="10" x1="57.7" y1="336.5" x2="65.3" y2="253"/>
<line opacity="0.4" fill="none" stroke="#FFFFFF" stroke-miterlimit="10" x1="57.7" y1="336.5" x2="91" y2="270"/>
<line opacity="0.4" fill="none" stroke="#FFFFFF" stroke-miterlimit="10" x1="57.7" y1="336.5" x2="75.9" y2="304.5"/>
<line opacity="0.4" fill="none" stroke="#FFFFFF" stroke-miterlimit="10" x1="32.2" y1="312.9" x2="159.3" y2="314.4"/>
<line opacity="0.4" fill="none" stroke="#FFFFFF" stroke-miterlimit="10" x1="32.2" y1="312.9" x2="65.3" y2="253"/>
<line opacity="0.4" fill="none" stroke="#FFFFFF" stroke-miterlimit="10" x1="32.2" y1="312.9" x2="91" y2="270"/>
<line opacity="0.4" fill="none" stroke="#FFFFFF" stroke-miterlimit="10" x1="32.2" y1="312.9" x2="75.9" y2="304.5"/>
<line opacity="0.4" fill="none" stroke="#FFFFFF" stroke-miterlimit="10" x1="32.2" y1="312.9" x2="57.7" y2="336.5"/>
<line opacity="0.4" fill="none" stroke="#FFFFFF" stroke-miterlimit="10" x1="36.9" y1="276.3" x2="159.3" y2="314.4"/>
<line opacity="0.4" fill="none" stroke="#FFFFFF" stroke-miterlimit="10" x1="36.9" y1="276.3" x2="65.3" y2="253"/>
<line opacity="0.4" fill="none" stroke="#FFFFFF" stroke-miterlimit="10" x1="36.9" y1="276.3" x2="91" y2="270"/>
<line opacity="0.4" fill="none" stroke="#FFFFFF" stroke-miterlimit="10" x1="36.9" y1="276.3" x2="75.9" y2="304.5"/>
<line opacity="0.4" fill="none" stroke="#FFFFFF" stroke-miterlimit="10" x1="36.9" y1="276.3" x2="57.7" y2="336.5"/>
<line opacity="0.4" fill="none" stroke="#FFFFFF" stroke-miterlimit="10" x1="36.9" y1="276.3" x2="32.2" y2="312.9"/>
<line opacity="0.4" fill="none" stroke="#FFFFFF" stroke-miterlimit="10" x1="166.1" y1="353.2" x2="159.3" y2="314.4"/>
<line opacity="0.4" fill="none" stroke="#FFFFFF" stroke-miterlimit="10" x1="166.1" y1="353.2" x2="65.3" y2="253"/>
<line opacity="0.4" fill="none" stroke="#FFFFFF" stroke-miterlimit="10" x1="166.1" y1="353.2" x2="91" y2="270"/>
<line opacity="0.4" fill="none" stroke="#FFFFFF" stroke-miterlimit="10" x1="166.1" y1="353.2" x2="75.9" y2="304.5"/>
<line opacity="0.4" fill="none" stroke="#FFFFFF" stroke-miterlimit="10" x1="166.1" y1="353.2" x2="57.7" y2="336.5"/>
<line opacity="0.4" fill="none" stroke="#FFFFFF" stroke-miterlimit="10" x1="166.1" y1="353.2" x2="32.2" y2="312.9"/>
<line opacity="0.4" fill="none" stroke="#FFFFFF" stroke-miterlimit="10" x1="166.1" y1="353.2" x2="36.9" y2="276.3"/>
<line opacity="0.4" fill="none" stroke="#FFFFFF" stroke-miterlimit="10" x1="166.1" y1="353.2" x2="190" y2="295.8"/>
<line opacity="0.4" fill="none" stroke="#FFFFFF" stroke-miterlimit="10" x1="166.1" y1="353.2" x2="309.3" y2="372.7"/>
<line opacity="0.4" fill="none" stroke="#FFFFFF" stroke-miterlimit="10" x1="265.1" y1="406.1" x2="166.1" y2="353.2"/>
<line opacity="0.4" fill="none" stroke="#FFFFFF" stroke-miterlimit="10" x1="265.1" y1="406.1" x2="309.3" y2="372.7"/>
<line opacity="0.4" fill="none" stroke="#FFFFFF" stroke-miterlimit="10" x1="314.8" y1="419.7" x2="265.1" y2="406.1"/>
<line opacity="0.4" fill="none" stroke="#FFFFFF" stroke-miterlimit="10" x1="314.8" y1="419.7" x2="166.1" y2="353.2"/>
<line opacity="0.4" fill="none" stroke="#FFFFFF" stroke-miterlimit="10" x1="314.8" y1="419.7" x2="309.3" y2="372.7"/>
<line opacity="0.4" fill="none" stroke="#FFFFFF" stroke-miterlimit="10" x1="327.3" y1="346.1" x2="265.1" y2="406.1"/>
<line opacity="0.4" fill="none" stroke="#FFFFFF" stroke-miterlimit="10" x1="327.3" y1="346.1" x2="309.3" y2="372.7"/>
<line opacity="0.4" fill="none" stroke="#FFFFFF" stroke-miterlimit="10" x1="327.3" y1="346.1" x2="159.3" y2="314.4"/>
<line opacity="0.4" fill="none" stroke="#FFFFFF" stroke-miterlimit="10" x1="327.3" y1="346.1" x2="314.8" y2="419.7"/>
<line opacity="0.4" fill="none" stroke="#FFFFFF" stroke-miterlimit="10" x1="274.6" y1="433.7" x2="309.3" y2="372.7"/>
<line opacity="0.4" fill="none" stroke="#FFFFFF" stroke-miterlimit="10" x1="274.6" y1="433.7" x2="166.1" y2="353.2"/>
<line opacity="0.4" fill="none" stroke="#FFFFFF" stroke-miterlimit="10" x1="274.6" y1="433.7" x2="314.8" y2="419.7"/>
<line opacity="0.4" fill="none" stroke="#FFFFFF" stroke-miterlimit="10" x1="274.6" y1="433.7" x2="265.1" y2="406.1"/>
<line opacity="0.4" fill="none" stroke="#FFFFFF" stroke-miterlimit="10" x1="274.6" y1="433.7" x2="327.3" y2="346.1"/>
<line opacity="0.4" fill="none" stroke="#FFFFFF" stroke-miterlimit="10" x1="188.1" y1="457.5" x2="309.3" y2="372.7"/>
<line opacity="0.4" fill="none" stroke="#FFFFFF" stroke-miterlimit="10" x1="188.1" y1="457.5" x2="274.6" y2="433.7"/>
<line opacity="0.4" fill="none" stroke="#FFFFFF" stroke-miterlimit="10" x1="240.4" y1="318" x2="166.1" y2="353.2"/>
<line opacity="0.4" fill="none" stroke="#FFFFFF" stroke-miterlimit="10" x1="240.4" y1="318" x2="274.6" y2="433.7"/>
<line opacity="0.4" fill="none" stroke="#FFFFFF" stroke-miterlimit="10" x1="240.4" y1="318" x2="309.3" y2="372.7"/>
<line opacity="0.4" fill="none" stroke="#FFFFFF" stroke-miterlimit="10" x1="80.2" y1="401.4" x2="166.1" y2="353.2"/>
<line opacity="0.4" fill="none" stroke="#FFFFFF" stroke-miterlimit="10" x1="189.9" y1="405.6" x2="80.2" y2="401.4"/>
<line opacity="0.4" fill="none" stroke="#FFFFFF" stroke-miterlimit="10" x1="189.9" y1="405.6" x2="309.3" y2="372.7"/>
<line opacity="0.4" fill="none" stroke="#FFFFFF" stroke-miterlimit="10" x1="189.9" y1="405.6" x2="166.1" y2="353.2"/>
<line opacity="0.4" fill="none" stroke="#FFFFFF" stroke-miterlimit="10" x1="189.9" y1="405.6" x2="274.6" y2="433.7"/>
<line opacity="0.4" fill="none" stroke="#FFFFFF" stroke-miterlimit="10" x1="358.3" y1="247.4" x2="309.3" y2="372.7"/>
<line opacity="0.4" fill="none" stroke="#FFFFFF" stroke-miterlimit="10" x1="209.9" y1="431.6" x2="309.3" y2="372.7"/>
<line opacity="0.4" fill="none" stroke="#FFFFFF" stroke-miterlimit="10" x1="209.9" y1="431.6" x2="274.6" y2="433.7"/>
<line opacity="0.4" fill="none" stroke="#FFFFFF" stroke-miterlimit="10" x1="250.2" y1="271.7" x2="309.3" y2="372.7"/>
<line opacity="0.4" fill="none" stroke="#FFFFFF" stroke-miterlimit="10" x1="250.2" y1="271.7" x2="240.4" y2="318"/>
<line opacity="0.4" fill="none" stroke="#FFFFFF" stroke-miterlimit="10" x1="290.4" y1="282" x2="309.3" y2="372.7"/>
<line opacity="0.4" fill="none" stroke="#FFFFFF" stroke-miterlimit="10" x1="290.4" y1="282" x2="250.2" y2="271.7"/>
<line opacity="0.4" fill="none" stroke="#FFFFFF" stroke-miterlimit="10" x1="290.4" y1="282" x2="240.4" y2="318"/>
<line opacity="0.4" fill="none" stroke="#FFFFFF" stroke-miterlimit="10" x1="266.4" y1="236.1" x2="250.2" y2="271.7"/>
<line opacity="0.4" fill="none" stroke="#FFFFFF" stroke-miterlimit="10" x1="266.4" y1="236.1" x2="290.4" y2="282"/>
<line opacity="0.4" fill="none" stroke="#FFFFFF" stroke-miterlimit="10" x1="266.4" y1="236.1" x2="309.3" y2="372.7"/>
<line opacity="0.4" fill="none" stroke="#FFFFFF" stroke-miterlimit="10" x1="266.4" y1="236.1" x2="240.4" y2="318"/>
<line opacity="0.4" fill="none" stroke="#FFFFFF" stroke-miterlimit="10" x1="301" y1="248.2" x2="250.2" y2="271.7"/>
<line opacity="0.4" fill="none" stroke="#FFFFFF" stroke-miterlimit="10" x1="301" y1="248.2" x2="290.4" y2="282"/>
<line opacity="0.4" fill="none" stroke="#FFFFFF" stroke-miterlimit="10" x1="301" y1="248.2" x2="266.4" y2="236.1"/>
<line opacity="0.4" fill="none" stroke="#FFFFFF" stroke-miterlimit="10" x1="301" y1="248.2" x2="309.3" y2="372.7"/>
<line opacity="0.4" fill="none" stroke="#FFFFFF" stroke-miterlimit="10" x1="301" y1="248.2" x2="240.4" y2="318"/>
<line opacity="0.4" fill="none" stroke="#FFFFFF" stroke-miterlimit="10" x1="225.8" y1="245" x2="250.2" y2="271.7"/>
<line opacity="0.4" fill="none" stroke="#FFFFFF" stroke-miterlimit="10" x1="225.8" y1="245" x2="290.4" y2="282"/>
<line opacity="0.4" fill="none" stroke="#FFFFFF" stroke-miterlimit="10" x1="225.8" y1="245" x2="266.4" y2="236.1"/>
<line opacity="0.4" fill="none" stroke="#FFFFFF" stroke-miterlimit="10" x1="225.8" y1="245" x2="301" y2="248.2"/>
<line opacity="0.4" fill="none" stroke="#FFFFFF" stroke-miterlimit="10" x1="225.8" y1="245" x2="309.3" y2="372.7"/>
<line opacity="0.4" fill="none" stroke="#FFFFFF" stroke-miterlimit="10" x1="225.8" y1="245" x2="240.4" y2="318"/>
<line opacity="0.4" fill="none" stroke="#FFFFFF" stroke-miterlimit="10" x1="450.7" y1="361" x2="314.8" y2="419.7"/>
<line opacity="0.4" fill="none" stroke="#FFFFFF" stroke-miterlimit="10" x1="238.9" y1="537.8" x2="314.8" y2="419.7"/>
<line opacity="0.4" fill="none" stroke="#FFFFFF" stroke-miterlimit="10" x1="363.3" y1="484.8" x2="265.1" y2="406.1"/>
<line opacity="0.4" fill="none" stroke="#FFFFFF" stroke-miterlimit="10" x1="363.3" y1="484.8" x2="314.8" y2="419.7"/>
<line opacity="0.4" fill="none" stroke="#FFFFFF" stroke-miterlimit="10" x1="358.3" y1="399.1" x2="363.3" y2="484.8"/>
<line opacity="0.4" fill="none" stroke="#FFFFFF" stroke-miterlimit="10" x1="358.3" y1="399.1" x2="314.8" y2="419.7"/>
<line opacity="0.4" fill="none" stroke="#FFFFFF" stroke-miterlimit="10" x1="358.3" y1="399.1" x2="265.1" y2="406.1"/>
<line opacity="0.4" fill="none" stroke="#FFFFFF" stroke-miterlimit="10" x1="251" y1="349" x2="309.3" y2="372.7"/>
<line opacity="0.4" fill="none" stroke="#FFFFFF" stroke-miterlimit="10" x1="251" y1="349" x2="327.3" y2="346.1"/>
<line opacity="0.4" fill="none" stroke="#FFFFFF" stroke-miterlimit="10" x1="251" y1="349" x2="274.6" y2="433.7"/>
<line opacity="0.4" fill="none" stroke="#FFFFFF" stroke-miterlimit="10" x1="161.3" y1="399" x2="188.1" y2="457.5"/>
<line opacity="0.4" fill="none" stroke="#FFFFFF" stroke-miterlimit="10" x1="161.3" y1="399" x2="309.3" y2="372.7"/>
<line opacity="0.4" fill="none" stroke="#FFFFFF" stroke-miterlimit="10" x1="86.2" y1="523.8" x2="188.1" y2="457.5"/>
<line opacity="0.4" fill="none" stroke="#FFFFFF" stroke-miterlimit="10" x1="389.8" y1="475.9" x2="387" y2="620.5"/>
<line opacity="0.4" fill="none" stroke="#FFFFFF" stroke-miterlimit="10" x1="389.8" y1="475.9" x2="314.8" y2="419.7"/>
<line opacity="0.4" fill="none" stroke="#FFFFFF" stroke-miterlimit="10" x1="389.8" y1="475.9" x2="274.6" y2="433.7"/>
<line opacity="0.4" fill="none" stroke="#FFFFFF" stroke-miterlimit="10" x1="389.8" y1="475.9" x2="309.3" y2="372.7"/>
<line opacity="0.4" fill="none" stroke="#FFFFFF" stroke-miterlimit="10" x1="401.3" y1="344.7" x2="327.3" y2="346.1"/>
<line opacity="0.4" fill="none" stroke="#FFFFFF" stroke-miterlimit="10" x1="401.3" y1="344.7" x2="309.3" y2="372.7"/>
<line opacity="0.4" fill="none" stroke="#FFFFFF" stroke-miterlimit="10" x1="340.7" y1="311.3" x2="401.3" y2="344.7"/>
<line opacity="0.4" fill="none" stroke="#FFFFFF" stroke-miterlimit="10" x1="340.7" y1="311.3" x2="265.1" y2="406.1"/>
<line opacity="0.4" fill="none" stroke="#FFFFFF" stroke-miterlimit="10" x1="411" y1="310.4" x2="401.3" y2="344.7"/>
<line opacity="0.4" fill="none" stroke="#FFFFFF" stroke-miterlimit="10" x1="411" y1="310.4" x2="327.3" y2="346.1"/>
<line opacity="0.4" fill="none" stroke="#FFFFFF" stroke-miterlimit="10" x1="411" y1="310.4" x2="309.3" y2="372.7"/>
<line opacity="0.4" fill="none" stroke="#FFFFFF" stroke-miterlimit="10" x1="522.2" y1="271" x2="411" y2="310.4"/>
<line opacity="0.4" fill="none" stroke="#FFFFFF" stroke-miterlimit="10" x1="522.2" y1="271" x2="450.7" y2="361"/>
<line opacity="0.4" fill="none" stroke="#FFFFFF" stroke-miterlimit="10" x1="498.9" y1="200.8" x2="411" y2="310.4"/>
<line opacity="0.4" fill="none" stroke="#FFFFFF" stroke-miterlimit="10" x1="453.2" y1="321.4" x2="411" y2="310.4"/>
<line opacity="0.4" fill="none" stroke="#FFFFFF" stroke-miterlimit="10" x1="453.2" y1="321.4" x2="401.3" y2="344.7"/>
<line opacity="0.4" fill="none" stroke="#FFFFFF" stroke-miterlimit="10" x1="453.2" y1="321.4" x2="327.3" y2="346.1"/>
<line opacity="0.4" fill="none" stroke="#FFFFFF" stroke-miterlimit="10" x1="403.5" y1="416.8" x2="411" y2="310.4"/>
<line opacity="0.4" fill="none" stroke="#FFFFFF" stroke-miterlimit="10" x1="403.5" y1="416.8" x2="401.3" y2="344.7"/>
<line opacity="0.4" fill="none" stroke="#FFFFFF" stroke-miterlimit="10" x1="403.5" y1="416.8" x2="450.7" y2="361"/>
<line opacity="0.4" fill="none" stroke="#FFFFFF" stroke-miterlimit="10" x1="403.5" y1="416.8" x2="453.2" y2="321.4"/>
<line opacity="0.4" fill="none" stroke="#FFFFFF" stroke-miterlimit="10" x1="403.5" y1="416.8" x2="327.3" y2="346.1"/>
<line opacity="0.4" fill="none" stroke="#FFFFFF" stroke-miterlimit="10" x1="403.5" y1="416.8" x2="309.3" y2="372.7"/>
<line opacity="0.4" fill="none" stroke="#FFFFFF" stroke-miterlimit="10" x1="403.5" y1="416.8" x2="159.3" y2="314.4"/>
<line opacity="0.4" fill="none" stroke="#FFFFFF" stroke-miterlimit="10" x1="403.5" y1="416.8" x2="314.8" y2="419.7"/>
<line opacity="0.4" fill="none" stroke="#FFFFFF" stroke-miterlimit="10" x1="403.5" y1="416.8" x2="363.3" y2="484.8"/>
<line opacity="0.4" fill="none" stroke="#FFFFFF" stroke-miterlimit="10" x1="403.5" y1="416.8" x2="389.8" y2="475.9"/>
<line opacity="0.4" fill="none" stroke="#FFFFFF" stroke-miterlimit="10" x1="497.3" y1="344.8" x2="401.3" y2="344.7"/>
<line opacity="0.4" fill="none" stroke="#FFFFFF" stroke-miterlimit="10" x1="497.3" y1="344.8" x2="403.5" y2="416.8"/>
<line opacity="0.4" fill="none" stroke="#FFFFFF" stroke-miterlimit="10" x1="469.5" y1="440.2" x2="403.5" y2="416.8"/>
<line opacity="0.4" fill="none" stroke="#FFFFFF" stroke-miterlimit="10" x1="469.5" y1="440.2" x2="363.3" y2="484.8"/>
<line opacity="0.4" fill="none" stroke="#FFFFFF" stroke-miterlimit="10" x1="469.5" y1="440.2" x2="389.8" y2="475.9"/>
<line opacity="0.4" fill="none" stroke="#FFFFFF" stroke-miterlimit="10" x1="403" y1="490.7" x2="403.5" y2="416.8"/>
<line opacity="0.4" fill="none" stroke="#FFFFFF" stroke-miterlimit="10" x1="403" y1="490.7" x2="389.8" y2="475.9"/>
<line opacity="0.4" fill="none" stroke="#FFFFFF" stroke-miterlimit="10" x1="403" y1="490.7" x2="274.6" y2="433.7"/>
<line opacity="0.4" fill="none" stroke="#FFFFFF" stroke-miterlimit="10" x1="403" y1="490.7" x2="469.5" y2="440.2"/>
<line opacity="0.4" fill="none" stroke="#FFFFFF" stroke-miterlimit="10" x1="403" y1="490.7" x2="309.3" y2="372.7"/>
<line opacity="0.4" fill="none" stroke="#FFFFFF" stroke-miterlimit="10" x1="489.7" y1="466.4" x2="403" y2="490.7"/>
<line opacity="0.4" fill="none" stroke="#FFFFFF" stroke-miterlimit="10" x1="489.7" y1="466.4" x2="403.5" y2="416.8"/>
<line opacity="0.4" fill="none" stroke="#FFFFFF" stroke-miterlimit="10" x1="489.7" y1="466.4" x2="389.8" y2="475.9"/>
<line opacity="0.4" fill="none" stroke="#FFFFFF" stroke-miterlimit="10" x1="489.7" y1="466.4" x2="469.5" y2="440.2"/>
<line opacity="0.4" fill="none" stroke="#FFFFFF" stroke-miterlimit="10" x1="430.6" y1="551.3" x2="389.8" y2="475.9"/>
<line opacity="0.4" fill="none" stroke="#FFFFFF" stroke-miterlimit="10" x1="430.6" y1="551.3" x2="403" y2="490.7"/>
<line opacity="0.4" fill="none" stroke="#FFFFFF" stroke-miterlimit="10" x1="430.6" y1="551.3" x2="489.7" y2="466.4"/>
<line opacity="0.4" fill="none" stroke="#FFFFFF" stroke-miterlimit="10" x1="432.5" y1="517.3" x2="389.8" y2="475.9"/>
<line opacity="0.4" fill="none" stroke="#FFFFFF" stroke-miterlimit="10" x1="432.5" y1="517.3" x2="403" y2="490.7"/>
<line opacity="0.4" fill="none" stroke="#FFFFFF" stroke-miterlimit="10" x1="432.5" y1="517.3" x2="430.6" y2="551.3"/>
<line opacity="0.4" fill="none" stroke="#FFFFFF" stroke-miterlimit="10" x1="432.5" y1="517.3" x2="489.7" y2="466.4"/>
<line opacity="0.4" fill="none" stroke="#FFFFFF" stroke-miterlimit="10" x1="432.5" y1="517.3" x2="469.5" y2="440.2"/>
<line opacity="0.4" fill="none" stroke="#FFFFFF" stroke-miterlimit="10" x1="432.5" y1="517.3" x2="403.5" y2="416.8"/>
<line opacity="0.4" fill="none" stroke="#FFFFFF" stroke-miterlimit="10" x1="453.2" y1="489.5" x2="403.5" y2="416.8"/>
<line opacity="0.4" fill="none" stroke="#FFFFFF" stroke-miterlimit="10" x1="453.2" y1="489.5" x2="403" y2="490.7"/>
<line opacity="0.4" fill="none" stroke="#FFFFFF" stroke-miterlimit="10" x1="453.2" y1="489.5" x2="489.7" y2="466.4"/>
<line opacity="0.4" fill="none" stroke="#FFFFFF" stroke-miterlimit="10" x1="453.2" y1="489.5" x2="389.8" y2="475.9"/>
<line opacity="0.4" fill="none" stroke="#FFFFFF" stroke-miterlimit="10" x1="453.2" y1="489.5" x2="469.5" y2="440.2"/>
<line opacity="0.4" fill="none" stroke="#FFFFFF" stroke-miterlimit="10" x1="453.2" y1="489.5" x2="363.3" y2="484.8"/>
<line opacity="0.4" fill="none" stroke="#FFFFFF" stroke-miterlimit="10" x1="453.2" y1="489.5" x2="432.5" y2="517.3"/>
<line opacity="0.4" fill="none" stroke="#FFFFFF" stroke-miterlimit="10" x1="453.2" y1="489.5" x2="430.6" y2="551.3"/>
<line opacity="0.4" fill="none" stroke="#FFFFFF" stroke-miterlimit="10" x1="467.7" y1="515.2" x2="489.7" y2="466.4"/>
<line opacity="0.4" fill="none" stroke="#FFFFFF" stroke-miterlimit="10" x1="467.7" y1="515.2" x2="389.8" y2="475.9"/>
<line opacity="0.4" fill="none" stroke="#FFFFFF" stroke-miterlimit="10" x1="467.7" y1="515.2" x2="453.2" y2="489.5"/>
<line opacity="0.4" fill="none" stroke="#FFFFFF" stroke-miterlimit="10" x1="467.7" y1="515.2" x2="469.5" y2="440.2"/>
<line opacity="0.4" fill="none" stroke="#FFFFFF" stroke-miterlimit="10" x1="467.7" y1="515.2" x2="403" y2="490.7"/>
<line opacity="0.4" fill="none" stroke="#FFFFFF" stroke-miterlimit="10" x1="467.7" y1="515.2" x2="432.5" y2="517.3"/>
<line opacity="0.4" fill="none" stroke="#FFFFFF" stroke-miterlimit="10" x1="467.7" y1="515.2" x2="430.6" y2="551.3"/>
<line opacity="0.4" fill="none" stroke="#FFFFFF" stroke-miterlimit="10" x1="467.7" y1="515.2" x2="403.5" y2="416.8"/>
<line opacity="0.4" fill="none" stroke="#FFFFFF" stroke-miterlimit="10" x1="433.3" y1="458.8" x2="403.5" y2="416.8"/>
<line opacity="0.4" fill="none" stroke="#FFFFFF" stroke-miterlimit="10" x1="433.3" y1="458.8" x2="453.2" y2="489.5"/>
<line opacity="0.4" fill="none" stroke="#FFFFFF" stroke-miterlimit="10" x1="433.3" y1="458.8" x2="389.8" y2="475.9"/>
<line opacity="0.4" fill="none" stroke="#FFFFFF" stroke-miterlimit="10" x1="433.3" y1="458.8" x2="467.7" y2="515.2"/>
<line opacity="0.4" fill="none" stroke="#FFFFFF" stroke-miterlimit="10" x1="433.3" y1="458.8" x2="403" y2="490.7"/>
<line opacity="0.4" fill="none" stroke="#FFFFFF" stroke-miterlimit="10" x1="433.3" y1="458.8" x2="432.5" y2="517.3"/>
<line opacity="0.4" fill="none" stroke="#FFFFFF" stroke-miterlimit="10" x1="433.3" y1="458.8" x2="430.6" y2="551.3"/>
<line opacity="0.4" fill="none" stroke="#FFFFFF" stroke-miterlimit="10" x1="433.3" y1="458.8" x2="489.7" y2="466.4"/>
<line opacity="0.4" fill="none" stroke="#FFFFFF" stroke-miterlimit="10" x1="433.3" y1="458.8" x2="469.5" y2="440.2"/>
<line opacity="0.4" fill="none" stroke="#FFFFFF" stroke-miterlimit="10" x1="433.3" y1="458.8" x2="309.3" y2="372.7"/>
<line opacity="0.4" fill="none" stroke="#FFFFFF" stroke-miterlimit="10" x1="491.7" y1="496.4" x2="467.7" y2="515.2"/>
<line opacity="0.4" fill="none" stroke="#FFFFFF" stroke-miterlimit="10" x1="491.7" y1="496.4" x2="433.3" y2="458.8"/>
<line opacity="0.4" fill="none" stroke="#FFFFFF" stroke-miterlimit="10" x1="491.7" y1="496.4" x2="389.8" y2="475.9"/>
<line opacity="0.4" fill="none" stroke="#FFFFFF" stroke-miterlimit="10" x1="491.7" y1="496.4" x2="453.2" y2="489.5"/>
<line opacity="0.4" fill="none" stroke="#FFFFFF" stroke-miterlimit="10" x1="491.7" y1="496.4" x2="403" y2="490.7"/>
<line opacity="0.4" fill="none" stroke="#FFFFFF" stroke-miterlimit="10" x1="491.7" y1="496.4" x2="432.5" y2="517.3"/>
<line opacity="0.4" fill="none" stroke="#FFFFFF" stroke-miterlimit="10" x1="491.7" y1="496.4" x2="430.6" y2="551.3"/>
<line opacity="0.4" fill="none" stroke="#FFFFFF" stroke-miterlimit="10" x1="491.7" y1="496.4" x2="489.7" y2="466.4"/>
<line opacity="0.4" fill="none" stroke="#FFFFFF" stroke-miterlimit="10" x1="491.7" y1="496.4" x2="469.5" y2="440.2"/>
<line opacity="0.4" fill="none" stroke="#FFFFFF" stroke-miterlimit="10" x1="491.7" y1="496.4" x2="403.5" y2="416.8"/>
<line opacity="0.4" fill="none" stroke="#FFFFFF" stroke-miterlimit="10" x1="485.7" y1="544.8" x2="433.3" y2="458.8"/>
<line opacity="0.4" fill="none" stroke="#FFFFFF" stroke-miterlimit="10" x1="485.7" y1="544.8" x2="403" y2="490.7"/>
<line opacity="0.4" fill="none" stroke="#FFFFFF" stroke-miterlimit="10" x1="485.7" y1="544.8" x2="489.7" y2="466.4"/>
<line opacity="0.4" fill="none" stroke="#FFFFFF" stroke-miterlimit="10" x1="485.7" y1="544.8" x2="453.2" y2="489.5"/>
<line opacity="0.4" fill="none" stroke="#FFFFFF" stroke-miterlimit="10" x1="485.7" y1="544.8" x2="491.7" y2="496.4"/>
<line opacity="0.4" fill="none" stroke="#FFFFFF" stroke-miterlimit="10" x1="485.7" y1="544.8" x2="389.8" y2="475.9"/>
<line opacity="0.4" fill="none" stroke="#FFFFFF" stroke-miterlimit="10" x1="485.7" y1="544.8" x2="467.7" y2="515.2"/>
<line opacity="0.4" fill="none" stroke="#FFFFFF" stroke-miterlimit="10" x1="485.7" y1="544.8" x2="432.5" y2="517.3"/>
<line opacity="0.4" fill="none" stroke="#FFFFFF" stroke-miterlimit="10" x1="485.7" y1="544.8" x2="430.6" y2="551.3"/>
<line opacity="0.4" fill="none" stroke="#FFFFFF" stroke-miterlimit="10" x1="599.2" y1="417.9" x2="469.5" y2="440.2"/>
<line opacity="0.4" fill="none" stroke="#FFFFFF" stroke-miterlimit="10" x1="282.2" y1="486.5" x2="314.8" y2="419.7"/>
<line opacity="0.4" fill="none" stroke="#FFFFFF" stroke-miterlimit="10" x1="282.2" y1="486.5" x2="309.3" y2="372.7"/>
<line opacity="0.4" fill="none" stroke="#FFFFFF" stroke-miterlimit="10" x1="282.2" y1="486.5" x2="265.1" y2="406.1"/>
<line opacity="0.4" fill="none" stroke="#FFFFFF" stroke-miterlimit="10" x1="282.2" y1="486.5" x2="274.6" y2="433.7"/>
<line opacity="0.4" fill="none" stroke="#FFFFFF" stroke-miterlimit="10" x1="282.2" y1="486.5" x2="389.8" y2="475.9"/>
<line opacity="0.4" fill="none" stroke="#FFFFFF" stroke-miterlimit="10" x1="282.2" y1="486.5" x2="363.3" y2="484.8"/>
<line opacity="0.4" fill="none" stroke="#FFFFFF" stroke-miterlimit="10" x1="299.5" y1="466.5" x2="314.8" y2="419.7"/>
<line opacity="0.4" fill="none" stroke="#FFFFFF" stroke-miterlimit="10" x1="299.5" y1="466.5" x2="282.2" y2="486.5"/>
<line opacity="0.4" fill="none" stroke="#FFFFFF" stroke-miterlimit="10" x1="299.5" y1="466.5" x2="309.3" y2="372.7"/>
<line opacity="0.4" fill="none" stroke="#FFFFFF" stroke-miterlimit="10" x1="299.5" y1="466.5" x2="265.1" y2="406.1"/>
<line opacity="0.4" fill="none" stroke="#FFFFFF" stroke-miterlimit="10" x1="299.5" y1="466.5" x2="274.6" y2="433.7"/>
<line opacity="0.4" fill="none" stroke="#FFFFFF" stroke-miterlimit="10" x1="299.5" y1="466.5" x2="389.8" y2="475.9"/>
<line opacity="0.4" fill="none" stroke="#FFFFFF" stroke-miterlimit="10" x1="299.5" y1="466.5" x2="363.3" y2="484.8"/>
<line opacity="0.4" fill="none" stroke="#FFFFFF" stroke-miterlimit="10" x1="326.5" y1="462.7" x2="314.8" y2="419.7"/>
<line opacity="0.4" fill="none" stroke="#FFFFFF" stroke-miterlimit="10" x1="326.5" y1="462.7" x2="299.5" y2="466.5"/>
<line opacity="0.4" fill="none" stroke="#FFFFFF" stroke-miterlimit="10" x1="326.5" y1="462.7" x2="282.2" y2="486.5"/>
<line opacity="0.4" fill="none" stroke="#FFFFFF" stroke-miterlimit="10" x1="326.5" y1="462.7" x2="309.3" y2="372.7"/>
<line opacity="0.4" fill="none" stroke="#FFFFFF" stroke-miterlimit="10" x1="326.5" y1="462.7" x2="265.1" y2="406.1"/>
<line opacity="0.4" fill="none" stroke="#FFFFFF" stroke-miterlimit="10" x1="326.5" y1="462.7" x2="274.6" y2="433.7"/>
<line opacity="0.4" fill="none" stroke="#FFFFFF" stroke-miterlimit="10" x1="326.5" y1="462.7" x2="363.3" y2="484.8"/>
<line opacity="0.4" fill="none" stroke="#FFFFFF" stroke-miterlimit="10" x1="326.5" y1="462.7" x2="403" y2="490.7"/>
<line opacity="0.4" fill="none" stroke="#FFFFFF" stroke-miterlimit="10" x1="314.5" y1="503.4" x2="274.6" y2="433.7"/>
<line opacity="0.4" fill="none" stroke="#FFFFFF" stroke-miterlimit="10" x1="314.5" y1="503.4" x2="299.5" y2="466.5"/>
<line opacity="0.4" fill="none" stroke="#FFFFFF" stroke-miterlimit="10" x1="314.5" y1="503.4" x2="282.2" y2="486.5"/>
<line opacity="0.4" fill="none" stroke="#FFFFFF" stroke-miterlimit="10" x1="314.5" y1="503.4" x2="326.5" y2="462.7"/>
<line opacity="0.4" fill="none" stroke="#FFFFFF" stroke-miterlimit="10" x1="314.5" y1="503.4" x2="309.3" y2="372.7"/>
<line opacity="0.4" fill="none" stroke="#FFFFFF" stroke-miterlimit="10" x1="314.5" y1="503.4" x2="389.8" y2="475.9"/>
<line opacity="0.4" fill="none" stroke="#FFFFFF" stroke-miterlimit="10" x1="314.5" y1="503.4" x2="363.3" y2="484.8"/>
<line opacity="0.4" fill="none" stroke="#FFFFFF" stroke-miterlimit="10" x1="314.5" y1="503.4" x2="314.8" y2="419.7"/>
<line opacity="0.4" fill="none" stroke="#FFFFFF" stroke-miterlimit="10" x1="241.2" y1="374.7" x2="327.3" y2="346.1"/>
<line opacity="0.4" fill="none" stroke="#FFFFFF" stroke-miterlimit="10" x1="241.2" y1="374.7" x2="274.6" y2="433.7"/>
<line opacity="0.4" fill="none" stroke="#FFFFFF" stroke-miterlimit="10" x1="241.2" y1="374.7" x2="309.3" y2="372.7"/>
<line opacity="0.4" fill="none" stroke="#FFFFFF" stroke-miterlimit="10" x1="524.5" y1="546.8" x2="389.8" y2="475.9"/>
<line opacity="0.4" fill="none" stroke="#FFFFFF" stroke-miterlimit="10" x1="541.2" y1="484.9" x2="389.8" y2="475.9"/>
<line opacity="0.4" fill="none" stroke="#FFFFFF" stroke-miterlimit="10" x1="541.2" y1="484.9" x2="524.5" y2="546.8"/>
<line opacity="0.4" fill="none" stroke="#FFFFFF" stroke-miterlimit="10" x1="356.1" y1="446.5" x2="299.5" y2="466.5"/>
<line opacity="0.4" fill="none" stroke="#FFFFFF" stroke-miterlimit="10" x1="356.1" y1="446.5" x2="282.2" y2="486.5"/>
<line opacity="0.4" fill="none" stroke="#FFFFFF" stroke-miterlimit="10" x1="356.1" y1="446.5" x2="314.8" y2="419.7"/>
<line opacity="0.4" fill="none" stroke="#FFFFFF" stroke-miterlimit="10" x1="356.1" y1="446.5" x2="389.8" y2="475.9"/>
<line opacity="0.4" fill="none" stroke="#FFFFFF" stroke-miterlimit="10" x1="356.1" y1="446.5" x2="363.3" y2="484.8"/>
<line opacity="0.4" fill="none" stroke="#FFFFFF" stroke-miterlimit="10" x1="356.1" y1="446.5" x2="326.5" y2="462.7"/>
<line opacity="0.4" fill="none" stroke="#FFFFFF" stroke-miterlimit="10" x1="356.1" y1="446.5" x2="314.5" y2="503.4"/>
<line opacity="0.4" fill="none" stroke="#FFFFFF" stroke-miterlimit="10" x1="447.7" y1="561.5" x2="433.3" y2="458.8"/>
<line opacity="0.4" fill="none" stroke="#FFFFFF" stroke-miterlimit="10" x1="447.7" y1="561.5" x2="491.7" y2="496.4"/>
<line opacity="0.4" fill="none" stroke="#FFFFFF" stroke-miterlimit="10" x1="447.7" y1="561.5" x2="485.7" y2="544.8"/>
<line opacity="0.4" fill="none" stroke="#FFFFFF" stroke-miterlimit="10" x1="447.7" y1="561.5" x2="467.7" y2="515.2"/>
<line opacity="0.4" fill="none" stroke="#FFFFFF" stroke-miterlimit="10" x1="447.7" y1="561.5" x2="453.2" y2="489.5"/>
<line opacity="0.4" fill="none" stroke="#FFFFFF" stroke-miterlimit="10" x1="447.7" y1="561.5" x2="389.8" y2="475.9"/>
<line opacity="0.4" fill="none" stroke="#FFFFFF" stroke-miterlimit="10" x1="447.7" y1="561.5" x2="403" y2="490.7"/>
<circle opacity="0.4" fill="#CCCCCC" stroke="#FFFFFF" stroke-width="1.5" cx="306.6" cy="160.6" r="6.1"/>
<circle opacity="0.4" fill="#CCCCCC" stroke="#FFFFFF" stroke-width="1.5" cx="243" cy="69.2" r="6.1"/>
<circle opacity="0.4" fill="#CCCCCC" stroke="#FFFFFF" stroke-width="1.5" cx="269.5" cy="206.7" r="6.1"/>
<circle opacity="0.4" fill="#CCCCCC" stroke="#FFFFFF" stroke-width="1.5" cx="334" cy="215.3" r="6.1"/>
<circle opacity="0.4" fill="#CCCCCC" stroke="#FFFFFF" stroke-width="1.5" cx="317.4" cy="50.9" r="6.1"/>
<circle opacity="0.4" fill="#CCCCCC" stroke="#FFFFFF" stroke-width="1.5" cx="368.9" cy="58.6" r="6.1"/>
<circle opacity="0.4" fill="#CCCCCC" stroke="#FFFFFF" stroke-width="1.5" cx="226.9" cy="41.6" r="6.1"/>
<circle opacity="0.4" fill="#CCCCCC" stroke="#FFFFFF" stroke-width="1.5" cx="357.3" cy="26.1" r="6.1"/>
<circle opacity="0.4" fill="#CCCCCC" stroke="#FFFFFF" stroke-width="1.5" cx="303.2" cy="14" r="6.1"/>
<circle opacity="0.4" fill="#CCCCCC" stroke="#FFFFFF" stroke-width="1.5" cx="272.2" cy="38.9" r="6.1"/>
<circle opacity="0.4" fill="#CCCCCC" stroke="#FFFFFF" stroke-width="1.5" cx="219.3" cy="476.3" r="6.1"/>
<circle opacity="0.4" fill="#CCCCCC" stroke="#FFFFFF" stroke-width="1.5" cx="309.3" cy="372.7" r="6.1"/>
<circle opacity="0.4" fill="#CCCCCC" stroke="#FFFFFF" stroke-width="1.5" cx="190" cy="295.8" r="6.1"/>
<circle opacity="0.4" fill="#CCCCCC" stroke="#FFFFFF" stroke-width="1.5" cx="404.1" cy="267.2" r="6.1"/>
<circle opacity="0.4" fill="#CCCCCC" stroke="#FFFFFF" stroke-width="1.5" cx="217.2" cy="278.1" r="6.1"/>
<circle opacity="0.4" fill="#CCCCCC" stroke="#FFFFFF" stroke-width="1.5" cx="391.3" cy="235.5" r="6.1"/>
<circle opacity="0.4" fill="#CCCCCC" stroke="#FFFFFF" stroke-width="1.5" cx="159.3" cy="314.4" r="6.1"/>
<circle opacity="0.4" fill="#CCCCCC" stroke="#FFFFFF" stroke-width="1.5" cx="65.3" cy="253" r="6.1"/>
<circle opacity="0.4" fill="#CCCCCC" stroke="#FFFFFF" stroke-width="1.5" cx="91" cy="270" r="6.1"/>
<circle opacity="0.4" fill="#CCCCCC" stroke="#FFFFFF" stroke-width="1.5" cx="75.9" cy="304.5" r="6.1"/>
<circle opacity="0.4" fill="#CCCCCC" stroke="#FFFFFF" stroke-width="1.5" cx="57.7" cy="336.5" r="6.1"/>
<circle opacity="0.4" fill="#CCCCCC" stroke="#FFFFFF" stroke-width="1.5" cx="32.2" cy="312.9" r="6.1"/>
<circle opacity="0.4" fill="#CCCCCC" stroke="#FFFFFF" stroke-width="1.5" cx="36.9" cy="276.3" r="6.1"/>
<circle opacity="0.4" fill="#CCCCCC" stroke="#FFFFFF" stroke-width="1.5" cx="166.1" cy="353.2" r="6.1"/>
<circle opacity="0.4" fill="#CCCCCC" stroke="#FFFFFF" stroke-width="1.5" cx="265.1" cy="406.1" r="6.1"/>
<circle opacity="0.4" fill="#CCCCCC" stroke="#FFFFFF" stroke-width="1.5" cx="314.8" cy="419.7" r="6.1"/>
<circle opacity="0.4" fill="#CCCCCC" stroke="#FFFFFF" stroke-width="1.5" cx="327.3" cy="346.1" r="6.1"/>
<circle opacity="0.4" fill="#CCCCCC" stroke="#FFFFFF" stroke-width="1.5" cx="274.6" cy="433.7" r="6.1"/>
<circle opacity="0.4" fill="#CCCCCC" stroke="#FFFFFF" stroke-width="1.5" cx="188.1" cy="457.5" r="6.1"/>
<circle opacity="0.4" fill="#CCCCCC" stroke="#FFFFFF" stroke-width="1.5" cx="240.4" cy="318" r="6.1"/>
<circle opacity="0.4" fill="#CCCCCC" stroke="#FFFFFF" stroke-width="1.5" cx="80.2" cy="401.4" r="6.1"/>
<circle opacity="0.4" fill="#CCCCCC" stroke="#FFFFFF" stroke-width="1.5" cx="189.9" cy="405.6" r="6.1"/>
<circle opacity="0.4" fill="#CCCCCC" stroke="#FFFFFF" stroke-width="1.5" cx="358.3" cy="247.4" r="6.1"/>
<circle opacity="0.4" fill="#CCCCCC" stroke="#FFFFFF" stroke-width="1.5" cx="209.9" cy="431.6" r="6.1"/>
<circle opacity="0.4" fill="#CCCCCC" stroke="#FFFFFF" stroke-width="1.5" cx="250.2" cy="271.7" r="6.1"/>
<circle opacity="0.4" fill="#CCCCCC" stroke="#FFFFFF" stroke-width="1.5" cx="290.4" cy="282" r="6.1"/>
<circle opacity="0.4" fill="#CCCCCC" stroke="#FFFFFF" stroke-width="1.5" cx="266.4" cy="236.1" r="6.1"/>
<circle opacity="0.4" fill="#CCCCCC" stroke="#FFFFFF" stroke-width="1.5" cx="301" cy="248.2" r="6.1"/>
<circle opacity="0.4" fill="#CCCCCC" stroke="#FFFFFF" stroke-width="1.5" cx="225.8" cy="245" r="6.1"/>
<circle opacity="0.4" fill="#CCCCCC" stroke="#FFFFFF" stroke-width="1.5" cx="450.7" cy="361" r="6.1"/>
<circle opacity="0.4" fill="#CCCCCC" stroke="#FFFFFF" stroke-width="1.5" cx="238.9" cy="537.8" r="6.1"/>
<circle opacity="0.4" fill="#CCCCCC" stroke="#FFFFFF" stroke-width="1.5" cx="363.3" cy="484.8" r="6.1"/>
<circle opacity="0.4" fill="#CCCCCC" stroke="#FFFFFF" stroke-width="1.5" cx="358.3" cy="399.1" r="6.1"/>
<circle opacity="0.4" fill="#CCCCCC" stroke="#FFFFFF" stroke-width="1.5" cx="251" cy="349" r="6.1"/>
<circle opacity="0.4" fill="#CCCCCC" stroke="#FFFFFF" stroke-width="1.5" cx="161.3" cy="399" r="6.1"/>
<circle opacity="0.4" fill="#CCCCCC" stroke="#FFFFFF" stroke-width="1.5" cx="86.2" cy="523.8" r="6.1"/>
<circle opacity="0.4" fill="#CCCCCC" stroke="#FFFFFF" stroke-width="1.5" cx="387" cy="620.5" r="6.1"/>
<circle opacity="0.4" fill="#CCCCCC" stroke="#FFFFFF" stroke-width="1.5" cx="389.8" cy="475.9" r="6.1"/>
<circle opacity="0.4" fill="#CCCCCC" stroke="#FFFFFF" stroke-width="1.5" cx="401.3" cy="344.7" r="6.1"/>
<circle opacity="0.4" fill="#CCCCCC" stroke="#FFFFFF" stroke-width="1.5" cx="340.7" cy="311.3" r="6.1"/>
<circle opacity="0.4" fill="#CCCCCC" stroke="#FFFFFF" stroke-width="1.5" cx="411" cy="310.4" r="6.1"/>
<circle opacity="0.4" fill="#CCCCCC" stroke="#FFFFFF" stroke-width="1.5" cx="522.2" cy="271" r="6.1"/>
<circle opacity="0.4" fill="#CCCCCC" stroke="#FFFFFF" stroke-width="1.5" cx="498.9" cy="200.8" r="6.1"/>
<circle opacity="0.4" fill="#CCCCCC" stroke="#FFFFFF" stroke-width="1.5" cx="453.2" cy="321.4" r="6.1"/>
<circle opacity="0.4" fill="#CCCCCC" stroke="#FFFFFF" stroke-width="1.5" cx="403.5" cy="416.8" r="6.1"/>
<circle opacity="0.4" fill="#CCCCCC" stroke="#FFFFFF" stroke-width="1.5" cx="497.3" cy="344.8" r="6.1"/>
<circle opacity="0.4" fill="#CCCCCC" stroke="#FFFFFF" stroke-width="1.5" cx="469.5" cy="440.2" r="6.1"/>
<circle opacity="0.4" fill="#CCCCCC" stroke="#FFFFFF" stroke-width="1.5" cx="403" cy="490.7" r="6.1"/>
<circle opacity="0.4" fill="#CCCCCC" stroke="#FFFFFF" stroke-width="1.5" cx="489.7" cy="466.4" r="6.1"/>
<circle opacity="0.4" fill="#CCCCCC" stroke="#FFFFFF" stroke-width="1.5" cx="430.6" cy="551.3" r="6.1"/>
<circle opacity="0.4" fill="#CCCCCC" stroke="#FFFFFF" stroke-width="1.5" cx="432.5" cy="517.3" r="6.1"/>
<circle opacity="0.4" fill="#CCCCCC" stroke="#FFFFFF" stroke-width="1.5" cx="453.2" cy="489.5" r="6.1"/>
<circle opacity="0.4" fill="#CCCCCC" stroke="#FFFFFF" stroke-width="1.5" cx="467.7" cy="515.2" r="6.1"/>
<circle opacity="0.4" fill="#CCCCCC" stroke="#FFFFFF" stroke-width="1.5" cx="433.3" cy="458.8" r="6.1"/>
<circle opacity="0.4" fill="#CCCCCC" stroke="#FFFFFF" stroke-width="1.5" cx="491.7" cy="496.4" r="6.1"/>
<circle opacity="0.4" fill="#CCCCCC" stroke="#FFFFFF" stroke-width="1.5" cx="485.7" cy="544.8" r="6.1"/>
<circle opacity="0.4" fill="#CCCCCC" stroke="#FFFFFF" stroke-width="1.5" cx="599.2" cy="417.9" r="6.1"/>
<circle opacity="0.4" fill="#CCCCCC" stroke="#FFFFFF" stroke-width="1.5" cx="282.2" cy="486.5" r="6.1"/>
<circle opacity="0.4" fill="#CCCCCC" stroke="#FFFFFF" stroke-width="1.5" cx="299.5" cy="466.5" r="6.1"/>
<circle opacity="0.4" fill="#CCCCCC" stroke="#FFFFFF" stroke-width="1.5" cx="326.5" cy="462.7" r="6.1"/>
<circle opacity="0.4" fill="#CCCCCC" stroke="#FFFFFF" stroke-width="1.5" cx="314.5" cy="503.4" r="6.1"/>
<circle opacity="0.4" fill="#CCCCCC" stroke="#FFFFFF" stroke-width="1.5" cx="241.2" cy="374.7" r="6.1"/>
<circle opacity="0.4" fill="#CCCCCC" stroke="#FFFFFF" stroke-width="1.5" cx="524.5" cy="546.8" r="6.1"/>
<circle opacity="0.4" fill="#CCCCCC" stroke="#FFFFFF" stroke-width="1.5" cx="541.2" cy="484.9" r="6.1"/>
<circle opacity="0.4" fill="#CCCCCC" stroke="#FFFFFF" stroke-width="1.5" cx="356.1" cy="446.5" r="6.1"/>
<circle opacity="0.4" fill="#CCCCCC" stroke="#FFFFFF" stroke-width="1.5" cx="447.7" cy="561.5" r="6.1"/>
</svg>
