<?xml version="1.0" standalone="no"?> <!DOCTYPE svg PUBLIC "-//W3C//DTD SVG 1.0//EN" "http://www.w3.org/TR/2001/REC-SVG-20010904/DTD/svg10.dtd" > <svg xmlns="http://www.w3.org/2000/svg" width="100%" height="100%">
<defs >
<font id="GoudyTrajan-Regular" horiz-adv-x="1229" ><font-face
    font-family="Goudy Trajan Regular"
    units-per-em="2048"
    panose-1="2 0 5 4 7 0 0 2 0 4"
    ascent="1855"
    descent="-506"
    alphabetic="0" />
<missing-glyph horiz-adv-x="1236" d="M123 0V1239H1114V0H123ZM184 61H1053V1178H184V61Z" />
<glyph unicode=" " glyph-name="space" horiz-adv-x="655" />
<glyph unicode="!" glyph-name="exclam" horiz-adv-x="440" d="M313 1438Q282 1215 274 1030L244 463Q244 406 220 406T195 459L164 1032Q158 1155 125 1438Q182 1434 219 1434L313 1438ZM123 51T123 94T150 163T219 190T288 165T317 96Q317 51 291 23T219 -6Q178
-6 151 22Z" />
<glyph unicode="&quot;" glyph-name="quotedbl" horiz-adv-x="638" d="M270 1468L221 1108Q211 1051 197 1051T172 1108L123 1468Q160 1464 197 1464L270 1468ZM516 1468L467 1108Q457 1051 442 1051Q426 1051 418 1106L369 1468Q406 1464 442 1464L516 1468Z" />
<glyph unicode="#" glyph-name="numbersign" horiz-adv-x="1169" d="M1030 879H801L756 565H973V459H737L670 0H602L674 459H360L289 0H221L295 459H61V565H311L358 879H123V987H375L438 1442H506L444 987H750L811 1442H877L817 987H1030V879ZM733 879H428L381
565H688L733 879Z" />
<glyph unicode="$" glyph-name="dollar" horiz-adv-x="899" d="M522 1479L516 1391Q567 1389 631 1378T725 1366Q743 1366 752 1370T766 1374Q772 1374 772 1368Q772 1360 767 1344T762 1321Q762 1307 764 1278T766 1235Q766 1147 750 1147Q744 1147 740 1167T723
1220T686 1274Q629 1321 514 1337L485 807L602 733Q700 672 748 604T797 430Q797 242 635 119Q547 53 442 45L438 -55Q434 -75 422 -76H379Q363 -76 362 -63Q362 -59 369 14L371 43Q230 47 133 86Q108 98 109 109Q103 154 102 244Q102 324 117 324Q123 324 127
309T135 271T145 236Q198 115 373 100L406 688L319 743Q129 864 129 1075Q129 1157 169 1233T276 1346Q333 1377 444 1389L449 1473Q453 1489 467 1489H504Q522 1489 522 1479ZM516 618L475 643L446 98Q530 102 584 139Q635 174 668 237T702 362Q702 501 516 618ZM221
1130Q221 974 412 854L414 852L440 1339Q348 1333 285 1278T221 1130Z" />
<glyph unicode="%" glyph-name="percent" horiz-adv-x="1910" d="M1808 459Q1808 271 1715 136T1442 0Q1336 0 1260 67T1153 228T1122 426Q1122 539 1153 643T1263 827T1460 907Q1579 907 1661 839T1775 673T1808 459ZM1393 1442L596 -12H514L1311 1442H1393ZM788
987Q788 799 695 664T422 528Q316 528 240 596T133 757T102 954Q102 1067 133 1171T243 1356T438 1436Q614 1436 701 1304T788 987ZM1700 352Q1700 426 1689 503T1650 662T1566 797T1430 850Q1338 850 1286 744T1233 535Q1233 467 1244 393T1282 240T1362 109T1489
57Q1581 57 1640 155T1700 352ZM678 883Q678 957 667 1033T629 1193T546 1328T410 1380Q318 1380 266 1273T213 1063Q213 995 224 922T262 768T342 637T469 586Q561 586 619 685T678 883Z" />
<glyph unicode="&amp;" glyph-name="ampersand" horiz-adv-x="1634" d="M1573 784Q1573 741 1560 713T1529 669T1476 646T1418 638T1348 637Q1371 576 1370 508Q1370 389 1321 287Q1163 -32 727 -33Q549 -33 408 18T174 193T82 498Q82 688 248 838Q291 877 330
899Q350 905 350 915Q350 921 334 930Q217 1004 217 1143Q217 1297 317 1381T575 1466Q669 1466 809 1417Q913 1382 922 1382Q928 1382 940 1385T958 1389Q966 1389 967 1376Q967 1362 965 1335T963 1292Q963 1265 967 1214T971 1139Q971 1112 961 1112Q953 1112
952 1139Q952 1164 918 1217Q857 1307 758 1356T547 1405Q455 1405 395 1348T334 1200Q334 1091 410 1005T596 918Q651 918 651 897Q651 874 594 874Q432 874 333 778T233 522Q233 313 387 171T752 29Q871 29 977 64T1160 186T1237 395Q1237 549 1171 657Q1042
675 956 676Q876 676 804 642T731 537Q731 461 756 436Q758 434 769 427T790 414L799 408Q799 394 780 393Q733 393 705 442T676 543Q676 674 744 731T948 788Q1089 788 1190 778Q1362 760 1364 760Q1518 760 1518 838Q1518 873 1502 886T1469 901T1452 911Q1452
925 1481 926Q1522 926 1547 878T1573 784Z" />
<glyph unicode="&apos;" glyph-name="quotesingle" horiz-adv-x="393" d="M270 1468L221 1108Q211 1051 197 1051T172 1108L123 1468Q160 1464 197 1464L270 1468Z" />
<glyph unicode="(" glyph-name="parenleft" horiz-adv-x="577" d="M475 1511Q475 1509 469 1503T463 1495Q334 1362 261 1136T188 705Q188 295 360 20Q385 -19 461 -117Q473 -129 473 -137L467 -141Q465 -139 461 -137T455 -133Q275 4 168 227T61 680Q61 1049
322 1374Q402 1470 453 1507Q463 1517 469 1517T475 1511Z" />
<glyph unicode=")" glyph-name="parenright" horiz-adv-x="577" d="M516 700Q516 327 256 2Q180 -90 125 -131Q115 -141 109 -141T102 -135Q102 -133 108 -127T115 -119Q244 18 316 242T389 672Q389 926 328 1116T117 1495Q105 1509 104 1511Q104 1517 111 1518Q113
1516 117 1514T123 1509Q301 1376 408 1151T516 700Z" />
<glyph unicode="*" glyph-name="asterisk" horiz-adv-x="946" d="M864 907L778 778Q530 991 489 1008Q489 951 505 860T539 706L555 643H393Q450 946 451 1008Q402 979 332 921T217 819L172 776L96 907Q397 1009 436 1036Q399 1061 311 1094T153 1150L82 1171L162
1303Q414 1086 451 1069Q451 1124 437 1215T409 1370L395 1434H557Q496 1178 489 1069Q538 1096 609 1154T727 1257L774 1303L850 1182Q545 1067 506 1036Q551 1013 640 981T797 928L864 907Z" />
<glyph unicode="+" glyph-name="plus" horiz-adv-x="1019" d="M463 1116H559V760H918V662H561V301H463V662H102V760H463V1116Z" />
<glyph unicode="," glyph-name="comma" horiz-adv-x="413" d="M317 82Q317 -29 160 -215Q150 -227 139 -227Q135 -227 135 -221Q135 -217 152 -178T187 -89T205 -6Q205 23 157 55T109 96Q109 121 147 166T211 211Q229 211 273 163T317 82Z" />
<glyph unicode="-" glyph-name="hyphen" horiz-adv-x="696" d="M573 862Q573 829 567 818T541 797L240 643Q183 614 162 614Q152 614 143 629Q123 670 123 686Q123 696 150 713L502 864Q551 889 565 889Q573 889 573 862Z" />
<glyph unicode="." glyph-name="period" horiz-adv-x="440" d="M123 51T123 94T150 163T219 190T288 165T317 96Q317 51 291 23T219 -6Q178 -6 151 22Z" />
<glyph unicode="/" glyph-name="slash" horiz-adv-x="825" d="M780 1538L119 -127Q111 -145 100 -145Q94 -145 84 -141L51 -127Q41 -123 41 -111Q41 -105 45 -92L700 1565Q706 1583 715 1583Q717 1583 729 1579L774 1563Q784 1559 784 1553T780 1538Z" />
<glyph unicode="0" glyph-name="zero" horiz-adv-x="1280" d="M1178 729Q1178 577 1147 446T1055 205T885 31T635 -33Q471 -33 346 77T162 345T102 668Q102 1061 259 1263T653 1466Q788 1466 894 1389T1059 1192T1148 953T1178 729ZM1012 553Q1012 670 1007 760T988
954T949 1133T880 1272T773 1371T623 1405Q461 1405 359 1246T256 850Q256 449 355 239T688 29Q842 29 927 173T1012 553Z" />
<glyph unicode="1" glyph-name="one" horiz-adv-x="862" d="M719 -6Q719 -24 684 -25Q651 -25 561 -13T438 0Q393 0 246 -14Q244 -14 201 -17T145 -20Q110 -20 111 -8Q111 6 141 10Q225 16 252 25Q301 39 325 106T353 236T356 424V1110Q356 1229 346 1269T287
1309Q273 1309 206 1291T123 1272Q103 1272 102 1286Q102 1298 131 1311Q145 1315 188 1328T275 1355T356 1386Q395 1402 426 1426T471 1464T489 1479Q499 1479 500 1460Q500 1392 494 1173T487 885V362Q487 102 524 63Q575 6 684 6Q719 6 719 -6Z" />
<glyph unicode="2" glyph-name="two" horiz-adv-x="1116" d="M973 231Q973 225 942 117Q936 92 928 16Q926 -9 903 -8Q897 -8 879 -7T852 -6Q801 -6 699 -3T545 0Q465 0 390 -2T265 -7T178 -13T121 -18L100 -20Q82 -20 82 -2Q82 4 113 39T189 120T236 168L459
414Q791 781 791 1022Q791 1174 698 1289T444 1405Q325 1405 238 1323T150 1155Q150 1143 141 1143Q121 1143 121 1194Q121 1212 122 1250T123 1307Q123 1311 113 1378Q113 1386 119 1386Q127 1386 138 1384T156 1382Q168 1382 211 1403T330 1445T496 1466Q682
1466 819 1335T956 1032Q956 960 933 887T879 758T791 632T694 520T583 408T481 305L307 125Q297 111 297 98Q297 78 322 78H700Q831 78 893 129Q918 147 944 207Q958 240 967 240Q973 239 973 231Z" />
<glyph unicode="3" glyph-name="three" horiz-adv-x="1060" d="M928 393Q928 188 788 78T444 -33Q319 -33 131 16Q113 20 111 41Q110 47 111 49Q109 69 109 115Q109 135 106 172T102 229Q102 254 110 254T124 242T133 213T139 193Q174 113 266 71T461 29Q617 29
695 120T774 330Q774 527 669 637T385 748Q371 748 356 747T324 745Q301 745 301 768Q301 793 356 793Q501 793 588 831Q754 907 754 1126Q754 1245 660 1325T442 1405Q299 1405 199 1282Q185 1264 177 1237T165 1194T154 1178Q140 1178 139 1196Q139 1223 142
1269T145 1339Q145 1347 144 1365T143 1395Q143 1407 156 1407Q160 1407 169 1405T182 1403Q194 1403 291 1434T483 1466Q639 1466 769 1371T899 1126Q899 1001 813 920T635 803Q633 803 629 799T625 793Q625 785 633 784Q729 770 828 664T928 393Z" />
<glyph unicode="4" glyph-name="four" horiz-adv-x="1165" d="M739 582V1174Q739 1205 731 1204Q727 1204 707 1180L322 698Q218 567 217 547Q217 535 233 535H711Q739 535 739 582ZM870 418V213Q870 16 1018 16Q1063 16 1063 4Q1063 -12 1024 -12Q991 -12 907
-6T791 0Q760 0 687 -5T569 -10Q534 -10 535 2Q535 18 575 18Q739 18 739 180V412Q739 443 713 442H106Q81 442 81 462T127 541L707 1276Q736 1311 762 1347T802 1402T829 1436T849 1458T860 1464Q874 1464 874 1440Q874 1401 872 1321T870 1202V573Q870 534 897
535H1038Q1063 535 1063 522Q1063 518 1057 500L1049 471Q1043 451 1035 447T997 442H897Q879 442 875 439T870 418Z" />
<glyph unicode="5" glyph-name="five" horiz-adv-x="1060" d="M958 461Q958 330 912 231T789 76T624 -6T442 -33Q401 -33 190 0Q135 8 121 16T106 55Q106 84 104 142T102 231Q102 272 114 272T134 252T152 197T176 139Q201 96 292 63T487 29Q622 29 718 131T815
395Q815 618 695 715T301 846L164 862Q145 869 143 877Q143 912 158 969L217 1266Q219 1280 227 1333T240 1403Q242 1417 251 1424T270 1433T305 1434H709Q746 1434 806 1439T893 1444Q901 1444 901 1438Q901 1436 885 1348Q881 1325 881 1284Q881 1261 868 1262Q864
1262 861 1269T854 1287T846 1305Q811 1344 633 1343H354Q321 1343 309 1336T291 1298L242 1028L239 1008L236 987Q236 981 252 977Q459 954 520 942Q725 901 841 778T958 461Z" />
<glyph unicode="6" glyph-name="six" horiz-adv-x="1224" d="M1122 481Q1122 241 996 104T631 -33Q475 -33 354 72T178 319T123 600Q123 786 171 939T294 1186T462 1344T641 1434T805 1460Q932 1460 932 1432Q932 1418 913 1417Q909 1417 882 1420T821 1423Q762
1423 698 1405T559 1335T427 1205T331 992T293 690Q293 381 395 205T678 29Q971 29 971 412Q971 602 885 740T647 879Q557 879 496 831Q486 821 475 821Q463 821 463 834Q463 842 477 852Q557 909 676 909Q856 909 989 783T1122 481Z" />
<glyph unicode="7" glyph-name="seven" horiz-adv-x="1036" d="M995 1434T995 1424T983 1384Q960 1329 813 1015T647 649Q487 200 440 -55Q393 -45 338 -18Q318 -8 301 3T275 22L268 29Q319 222 449 528Q486 616 602 836T815 1214Q827 1232 845 1273T864 1333Q864
1343 842 1343H299Q143 1343 104 1276Q98 1266 94 1246T86 1212T76 1198Q62 1198 61 1223Q61 1258 77 1325T94 1425Q94 1441 106 1442Q143 1442 221 1438T336 1434H967Q995 1434 995 1424Z" />
<glyph unicode="8" glyph-name="eight" horiz-adv-x="1173" d="M598 -31Q401 -31 262 65T123 358Q123 503 211 594T455 758Q326 830 254 911T182 1112Q182 1270 291 1368T588 1466Q754 1466 874 1377T995 1141Q995 1032 951 972T801 852Q762 832 696 805Q864 723
957 625T1051 358Q1051 176 917 73T598 -31ZM621 29Q742 29 843 103T944 299Q944 474 748 601Q699 633 510 729Q244 610 244 401Q244 247 348 138T621 29ZM295 1180Q295 1114 319 1062T400 967T502 901T631 836Q754 893 819 949T885 1087Q885 1210 784 1307T545
1405Q445 1405 370 1342T295 1180Z" />
<glyph unicode="9" glyph-name="nine" horiz-adv-x="1224" d="M1102 834Q1102 648 1058 495T946 246T787 85T608 -6T434 -33Q342 -33 233 12T123 98Q123 114 141 115Q151 115 166 102T202 73T281 44T424 31Q481 31 544 50T681 123T810 255T903 467T940 768Q940
1036 830 1220T557 1405Q397 1405 326 1298T254 1022Q254 834 339 696T575 557Q593 557 610 559T640 564T663 570T685 580T701 591T718 601T731 610Q741 616 750 616Q762 616 762 602L752 586Q676 525 553 524Q369 524 236 645T102 952Q102 1192 231 1329T582 1466Q809
1466 955 1270T1102 834Z" />
<glyph unicode=":" glyph-name="colon" horiz-adv-x="440" d="M123 51T123 94T150 163T219 190T288 165T317 96Q317 51 291 23T219 -6Q178 -6 151 22ZM123 776T123 819T150 888T219 915T288 890T317 821Q317 776 291 748T219 719Q178 719 151 747Z" />
<glyph unicode=";" glyph-name="semicolon" horiz-adv-x="440" d="M123 776T123 819T150 888T219 915T288 890T317 821Q317 776 291 748T219 719Q178 719 151 747ZM317 82Q317 -29 160 -215Q150 -227 139 -227Q135 -227 135 -221Q135 -217 152 -178T187 -89T205
-6Q205 23 157 55T109 96Q109 121 147 166T211 211Q229 211 273 163T317 82Z" />
<glyph unicode="&lt;" glyph-name="less" horiz-adv-x="1019" d="M102 668V770L918 1145V1042L209 717L918 391V289L102 668Z" />
<glyph unicode="=" glyph-name="equal" horiz-adv-x="1019" d="M918 854H102V952H918V854ZM918 518H102V614H918V518Z" />
<glyph unicode="&gt;" glyph-name="greater" horiz-adv-x="1019" d="M918 668L102 289V391L813 717L102 1042V1145L918 770V668Z" />
<glyph unicode="?" glyph-name="question" horiz-adv-x="694" d="M571 1206Q571 1116 517 1025T400 870T282 719T227 551Q227 522 258 495T289 457Q289 443 288 438T281 428T262 424Q223 424 202 481T180 584Q180 645 218 724T300 869T382 1026T420 1194Q420 1405
219 1405Q190 1405 158 1385T115 1339Q113 1337 111 1329T107 1318T101 1311T93 1306T80 1305Q62 1305 61 1327Q61 1345 78 1374Q137 1466 299 1466Q410 1466 490 1392T571 1206ZM176 51T176 94T203 163T272 190T342 165T371 96Q371 51 344 23T272 -6Q231 -6 204
22Z" />
<glyph unicode="@" glyph-name="at" horiz-adv-x="1724" d="M1602 922Q1602 711 1457 536T1106 360Q956 360 956 571Q956 598 961 647L956 649Q866 516 770 442T608 367Q567 367 537 420T506 549Q506 799 647 954T961 1110Q1022 1110 1067 1087Q1081 1103 1126
1134T1192 1165Q1204 1165 1204 1149Q1204 1147 1189 1128T1154 1072T1122 995Q1091 886 1092 629Q1092 537 1116 489T1214 440Q1333 440 1423 572T1513 915Q1513 1132 1371 1273T969 1415Q641 1415 446 1187T250 608Q250 342 401 191T797 39Q973 39 1091 85T1321
221Q1341 239 1360 240Q1372 240 1372 227Q1372 213 1341 182Q1255 98 1095 33T756 -33Q482 -33 303 127T123 592Q123 819 240 1021T557 1342T983 1462Q1286 1462 1444 1315T1602 922ZM1022 1014Q961 1045 901 1044Q831 1044 780 999T702 882T662 737T649 594Q649
553 662 515T696 477Q743 477 827 564T969 745Q989 881 1022 1014Z" />
<glyph unicode="A" glyph-name="A" horiz-adv-x="1290" d="M1331 2Q1331 -8 1317 -8Q1284 -8 1219 -4T1120 0Q1093 0 1038 -3T956 -6Q919 -6 920 0Q920 8 932 11T961 15T983 18Q1028 32 1028 90Q1028 127 1004 201L907 457Q891 500 877 511T811 522H403Q356 522
343 514T313 463L227 229Q194 143 195 96Q195 45 233 23Q235 21 248 19T272 12T283 4Q283 -6 263 -6T191 -3T119 0Q94 0 53 -3T-12 -6Q-41 -6 -41 6Q-41 10 -30 13T-2 20T23 33Q80 88 188 367L535 1233Q549 1270 566 1316T595 1391T617 1450T637 1492T649 1505Q657
1505 676 1468Q694 1423 723 1338T766 1217L1157 184Q1184 114 1208 74T1274 18Q1331 4 1331 2ZM848 616Q848 641 741 918L678 1087Q633 1208 619 1208T573 1128L494 926Q492 918 460 839T402 689T375 610Q375 598 401 598H797Q848 598 848 616Z" />
<glyph unicode="B" glyph-name="B" horiz-adv-x="1218" d="M1108 350Q1108 182 972 84T655 -14Q606 -14 515 -7T375 0Q344 0 271 -3T168 -6Q145 -6 145 4Q145 10 160 13T195 17T217 18Q258 26 281 70Q308 125 307 412V1268Q307 1327 286 1373T217 1419Q211 1419
199 1418T180 1417Q166 1417 166 1427Q166 1441 217 1442Q244 1442 298 1438T379 1434Q414 1434 479 1438T580 1442Q732 1442 838 1353T944 1116Q944 872 776 776Q751 760 751 756T795 737Q934 690 1021 590T1108 350ZM842 1038Q842 1173 743 1274T508 1376Q461
1376 450 1365T438 1303V838Q438 801 455 793Q494 775 618 774H666Q748 774 795 851T842 1038ZM981 317Q981 448 905 539T722 669T487 707Q469 707 460 705T445 694T438 668V303Q438 131 463 92Q506 29 643 29Q795 29 888 99T981 317Z" />
<glyph unicode="C" glyph-name="C" horiz-adv-x="1460" d="M1317 231Q1317 227 1290 68Q1288 56 1287 52T1283 42T1276 35T1262 29Q1098 -32 844 -33Q484 -33 283 168T82 731Q82 883 135 1024Q215 1241 383 1353T786 1466Q962 1466 1108 1436Q1116 1434 1192 1415T1286
1395Q1292 1395 1298 1400T1309 1405Q1315 1405 1315 1382Q1315 1368 1312 1341T1309 1298Q1309 1278 1312 1239T1315 1180Q1315 1149 1307 1149T1294 1155T1285 1178T1274 1208Q1260 1239 1221 1278Q1076 1405 743 1405Q491 1405 362 1228T233 786Q233 585 311
415T544 136T903 27Q1077 27 1206 119Q1267 164 1284 205Q1300 256 1308 256T1317 231Z" />
<glyph unicode="D" glyph-name="D" horiz-adv-x="1619" d="M1538 748Q1538 398 1343 191T797 -16Q725 -16 586 -8T375 0Q342 0 277 -4T178 -8Q149 -8 150 4Q150 8 158 11T178 15T193 16Q261 28 279 63Q308 114 307 315V1257Q307 1415 178 1415Q158 1415 158 1427Q158
1441 209 1442Q236 1442 288 1438T367 1434Q441 1434 587 1441T807 1448Q1057 1448 1208 1364Q1366 1276 1452 1107T1538 748ZM1403 690Q1403 880 1313 1052T1061 1313Q918 1391 713 1391Q627 1391 561 1389Q551 1389 529 1388T500 1385T479 1382T459 1374T449
1359T440 1336T438 1300V469Q438 150 469 119Q471 117 488 108T508 96Q623 39 825 39Q1403 39 1403 690Z" />
<glyph unicode="E" glyph-name="E" horiz-adv-x="1118" d="M956 1292Q956 1280 948 1280Q942 1280 932 1294Q918 1323 903 1333T848 1354Q801 1366 731 1366H483Q463 1366 456 1364T444 1354T438 1327V844Q438 819 443 811T473 803H707Q801 803 825 825Q845 841
852 864Q862 907 868 907Q878 907 879 868Q879 852 876 822T872 776Q872 751 874 703T877 631Q877 611 868 610Q864 610 861 617T857 636T856 649Q850 665 836 684Q813 713 733 713H469Q449 713 444 706T438 676V197Q438 144 467 117Q510 78 668 78Q891 78 944
152Q946 156 949 161T955 171T961 179T969 182Q977 182 977 174Q977 154 954 87T918 8Q904 -6 866 -6Q796 -6 638 -3T410 0Q373 0 297 -3T184 -6Q145 -6 145 4Q145 12 180 16Q262 24 281 70Q308 142 307 584V1278Q307 1425 182 1425Q164 1425 164 1434Q164 1444
184 1444Q213 1444 272 1439T360 1434Q440 1434 601 1439T842 1444Q860 1444 895 1446T946 1448Q954 1448 954 1434Q954 1428 953 1416T952 1399Q952 1381 954 1346T956 1292Z" />
<glyph unicode="F" glyph-name="F" horiz-adv-x="1085" d="M950 1274Q950 1256 940 1255Q932 1255 932 1278Q932 1323 851 1343T702 1364H483Q454 1364 446 1356T438 1319V813Q438 786 479 786H629Q781 786 819 825Q829 835 836 859T850 900T862 918T868 897Q868
872 862 825T856 756Q856 723 861 658T866 559Q866 530 856 530T845 552T840 606T819 653Q799 673 742 684T641 696H471Q453 696 446 691T438 668V297Q438 100 473 49Q493 18 549 14Q580 14 580 4T551 -6Q524 -6 467 -3T383 0Q352 0 288 -5T190 -10Q165 -10 165
0T188 14Q247 24 272 74Q307 140 307 391V1257Q307 1388 223 1415Q219 1417 201 1419T168 1424T154 1434Q154 1444 180 1444Q217 1444 295 1439T410 1434Q699 1434 844 1442Q854 1442 886 1446T936 1450Q940 1450 940 1436Q940 1430 939 1416T938 1395Q938 1375
944 1335T950 1274Z" />
<glyph unicode="G" glyph-name="G" horiz-adv-x="1566" d="M1464 694Q1464 690 1450 686T1415 676T1380 662Q1353 644 1346 599T1339 449Q1339 416 1340 265T1341 80Q1341 68 1323 53Q1270 16 1130 -8T899 -33Q82 -33 82 745Q82 956 194 1143T496 1413Q619 1466
831 1466Q991 1466 1122 1436Q1128 1434 1201 1413T1298 1391Q1331 1391 1347 1402T1366 1413Q1374 1413 1374 1399Q1374 1376 1366 1329T1358 1249V1192Q1358 1110 1343 1110Q1325 1110 1325 1137Q1325 1184 1274 1243Q1204 1321 1073 1362T821 1403Q635 1403
514 1346Q371 1280 302 1136T233 819Q233 387 494 172Q668 27 901 27Q1065 27 1143 90Q1209 141 1208 305V537Q1208 617 1174 645Q1156 661 1129 672T1086 689T1069 702Q1069 712 1094 713Q1117 713 1194 706T1317 698Q1340 698 1383 701T1448 705Q1464 704 1464
694Z" />
<glyph unicode="H" glyph-name="H" horiz-adv-x="1820" d="M1655 6Q1655 -6 1595 -6Q1572 -6 1529 -3T1462 0Q1431 0 1370 -3T1278 -6Q1264 -6 1264 2Q1264 8 1274 11T1302 19T1335 33Q1360 49 1370 82Q1382 127 1382 289V664Q1382 689 1375 695T1343 702H475Q450
702 444 695T438 664V225Q438 80 487 37Q499 27 512 22T543 14T571 8Q579 4 580 0Q580 -10 561 -10Q536 -10 485 -5T369 0Q349 0 293 -3T195 -6Q177 -6 176 4Q176 10 186 14T211 20T227 25Q284 50 293 74Q307 115 307 238V1249Q307 1384 227 1417Q225 1419 211
1421T188 1427T178 1438T197 1444Q230 1444 293 1439T387 1434Q433 1434 479 1440Q481 1440 503 1443T539 1446Q568 1446 567 1432Q567 1426 555 1425Q510 1419 483 1399Q438 1368 438 1219V831Q438 804 443 798T473 791H1346Q1371 791 1376 798T1382 831V1217Q1382
1399 1296 1413Q1253 1421 1253 1431T1303 1442Q1328 1442 1381 1438T1458 1434Q1487 1434 1538 1440T1620 1446Q1647 1446 1647 1436Q1647 1432 1606 1417Q1571 1407 1548 1382Q1513 1341 1513 1204V580Q1513 164 1542 84Q1552 57 1569 43T1601 25T1642 16Q1655
16 1655 6Z" />
<glyph unicode="I" glyph-name="I" horiz-adv-x="724" d="M604 2Q604 -8 588 -8Q557 -8 494 -4T398 0T297 -2T195 -4Q168 -4 168 6T195 16Q242 16 268 47Q307 92 307 250V1249Q307 1329 284 1369T195 1417Q156 1421 156 1433T190 1446Q217 1446 268 1440T346 1434Q377
1434 439 1441T532 1448Q571 1448 571 1436Q571 1432 556 1427T519 1415T487 1403Q438 1372 438 1243V287Q438 213 441 172T458 89T504 31Q518 23 544 19T587 11T604 2Z" />
<glyph unicode="J" glyph-name="J" horiz-adv-x="686" d="M594 1427Q594 1419 573 1419Q538 1413 523 1409T489 1390T461 1348Q438 1270 438 1012V53Q438 -109 334 -244T135 -379Q88 -379 88 -354Q88 -338 113 -338Q158 -338 191 -319T246 -256T280 -169T299 -49T306
83T307 236V1112Q307 1214 299 1280Q293 1335 273 1367T236 1406T184 1419Q143 1429 143 1432Q143 1442 197 1442Q228 1442 288 1438T379 1434T473 1438T569 1442Q594 1441 594 1427Z" />
<glyph unicode="K" glyph-name="K" horiz-adv-x="1501" d="M1513 2Q1513 -12 1421 -12Q1392 -12 1334 -9T1247 -6Q1241 -6 1228 -8T1208 -10Q1196 -10 1178 8L575 584Q454 705 446 705T438 688V197Q438 78 492 39Q527 10 571 8Q598 8 598 -4Q598 -14 584 -14Q557
-14 501 -7T383 0Q348 0 285 -4T186 -8Q168 -8 168 2Q168 8 179 11T204 15T221 16Q258 28 283 70Q293 86 300 190T307 346V1264Q307 1305 291 1349T246 1409Q228 1419 190 1423Q174 1423 174 1430Q174 1442 221 1442Q250 1442 301 1438T381 1434T463 1438T544 1442T573
1434Q573 1428 563 1425T540 1420T522 1417Q475 1397 457 1341T438 1135V762Q438 750 444 750Q448 750 488 784T577 863L625 907L946 1202Q1081 1321 1081 1366Q1081 1397 1062 1407T1023 1419T1004 1430Q1004 1440 1032 1440Q1059 1440 1115 1437T1198 1434Q1280
1434 1333 1438T1395 1442Q1415 1442 1415 1436T1402 1425T1371 1415T1346 1409Q1272 1380 1128 1253L618 791Q598 771 598 764Q598 750 623 731L1178 205Q1334 55 1411 29Q1436 20 1460 16Q1462 16 1478 15T1504 12T1513 2Z" />
<glyph unicode="L" glyph-name="L" horiz-adv-x="1026" d="M995 188T995 180T975 113T948 10Q946 -4 932 -4Q842 -4 663 -2T393 0Q362 0 301 -2T209 -4Q180 -4 180 4Q180 10 186 12T201 14T211 14Q258 24 276 61Q307 122 307 324V1251Q307 1345 274 1389Q260 1409
203 1421Q180 1429 180 1434Q180 1442 205 1442Q234 1442 290 1438T374 1434T459 1438T545 1442Q557 1442 557 1432Q557 1426 528 1417Q485 1407 465 1380Q438 1343 438 1272V387Q438 307 444 223Q448 112 512 98Q586 82 739 82Q880 82 909 104Q919 112 936 134T968
172T987 188Q995 188 995 180Z" />
<glyph unicode="M" glyph-name="M" horiz-adv-x="1898" d="M1806 0Q1806 -10 1751 -10Q1716 -10 1649 -5T1546 0Q1521 0 1471 -3T1397 -6Q1381 -6 1380 4Q1380 10 1403 10Q1434 12 1466 33Q1519 64 1520 207Q1520 234 1509 367L1458 1028Q1454 1069 1440 1069T1386
981L981 90Q942 10 932 10T907 39Q893 66 875 106T794 290T651 614Q538 870 453 1032Q435 1067 424 1067Q412 1067 412 1032L360 342Q352 227 352 168Q352 59 397 31Q424 15 453 10T492 2Q498 0 498 -6T467 -12Q438 -12 381 -6T293 0Q264 0 208 -5T123 -10Q92 -10
92 -2T111 6Q146 12 170 29Q227 72 246 254L338 1139L373 1434Q373 1467 389 1466Q401 1466 416 1436Q426 1418 440 1385T459 1341L936 307Q950 278 961 279Q967 279 973 286T988 313T1006 354T1035 419T1073 500L1499 1421Q1521 1464 1532 1466Q1544 1466 1546
1436L1579 1065Q1595 864 1635 490T1694 78Q1712 39 1747 23Q1757 19 1772 15T1797 7T1806 0Z" />
<glyph unicode="N" glyph-name="N" horiz-adv-x="1806" d="M1651 1436Q1651 1432 1640 1428T1610 1418T1579 1407Q1540 1384 1540 1135V29Q1540 -41 1528 -41Q1518 -41 1496 -22T1446 28T1417 61L436 1126Q399 1167 393 1167Q385 1167 385 1114V244Q385 82 444
37Q467 21 496 14Q529 8 528 2Q528 -10 489 -10Q462 -10 417 -5T344 0Q319 0 266 -3T188 -6Q155 -6 156 4Q156 8 170 11T205 17T238 29Q287 64 287 250V1106L286 1239Q285 1372 285 1384Q285 1456 303 1456Q309 1456 321 1447T344 1428T366 1404T381 1389L1405
272Q1430 247 1436 248Q1446 248 1446 301L1434 1122Q1434 1339 1399 1386Q1387 1404 1363 1413T1322 1427T1305 1438Q1305 1448 1323 1448Q1348 1448 1397 1441T1472 1434T1548 1439T1624 1444T1651 1436Z" />
<glyph unicode="O" glyph-name="O" horiz-adv-x="1576" d="M1495 748Q1495 412 1320 190T817 -33Q487 -33 285 171T82 705Q82 836 104 926Q161 1162 338 1314T756 1466Q924 1466 1032 1430Q1245 1354 1370 1166T1495 748ZM1352 590Q1352 731 1317 869T1215 1130T1028
1329T758 1405Q500 1405 367 1227T233 782Q233 596 297 428T503 145T836 29Q1082 29 1217 184T1352 590Z" />
<glyph unicode="P" glyph-name="P" horiz-adv-x="1185" d="M1116 1063Q1116 877 1012 741T727 604Q700 604 647 612T594 633Q594 639 600 639Q616 639 648 633T696 627Q776 627 843 677T942 803Q967 864 967 969Q967 1270 760 1354Q686 1383 559 1382H530Q489
1382 475 1377T455 1354Q439 1301 438 1135V467Q438 373 446 225T471 55Q512 8 592 8Q612 8 612 -2Q612 -14 555 -14Q520 -14 465 -7T375 0Q348 0 285 -5T195 -10Q166 -10 166 -2Q166 4 201 12Q248 20 274 57Q307 102 307 295V1262Q307 1379 246 1411Q240 1415
224 1418T196 1424T184 1432Q184 1442 199 1442Q222 1442 266 1438T334 1434Q363 1434 417 1438T487 1442Q544 1446 659 1446Q782 1446 864 1415Q979 1372 1047 1279T1116 1063Z" />
<glyph unicode="Q" glyph-name="Q" horiz-adv-x="1601" d="M2343 -279Q2343 -293 2259 -318T2138 -350Q2077 -362 2013 -362Q1765 -362 1343 -82L1184 25Q1159 41 1149 41Q1147 41 1141 39T1129 34T1120 31Q968 -32 817 -33Q483 -33 283 170T82 705Q82 836 104
926Q165 1172 340 1319T756 1466Q1088 1466 1292 1262T1497 723Q1497 592 1455 453T1339 213Q1316 180 1278 141Q1264 127 1264 121T1280 106L1444 0Q1606 -106 1828 -196T2200 -287Q2223 -287 2267 -281T2333 -274Q2343 -275 2343 -279ZM1354 596Q1354 735 1320
870T1219 1129T1030 1329T752 1405Q582 1405 461 1317T286 1093T231 788Q231 651 270 519T382 276T572 97T836 29Q1012 29 1135 113Q1244 189 1299 320T1354 596Z" />
<glyph unicode="R" glyph-name="R" horiz-adv-x="1497" d="M1509 12Q1509 -4 1466 -4Q1357 -4 1301 2T1178 43T1059 150L844 455Q836 467 812 505T773 564T730 605T672 625H467Q438 625 438 598V322Q438 129 471 68Q487 35 524 23Q532 19 552 18T586 13T600 4Q600
-8 567 -8Q536 -8 479 -4T391 0Q364 0 307 -3T223 -6Q172 -6 172 2T185 14T218 21T246 31Q307 76 307 201V1266Q307 1407 180 1419Q155 1423 156 1430Q156 1442 184 1442Q217 1442 276 1438T369 1434Q414 1434 500 1441T631 1448Q817 1448 943 1359T1069 1092Q1069
983 1010 875T860 700Q852 688 852 680T866 651L1143 279Q1206 195 1298 109T1458 23Q1464 23 1475 24T1493 25Q1509 24 1509 12ZM938 1020Q938 1182 835 1276T567 1370H506Q438 1370 438 1270V721Q438 690 588 690H676Q758 690 784 702Q860 737 899 831T938 1020Z"
/>
<glyph unicode="S" glyph-name="S" horiz-adv-x="997" d="M895 397Q895 190 715 53Q600 -33 449 -33Q281 -33 158 16Q131 28 129 41Q123 90 123 190Q123 280 139 281Q145 281 150 264T160 221T170 182Q246 28 477 29Q592 29 657 76Q714 115 752 184T791 324Q791
480 584 608L365 745Q265 806 210 903T154 1116Q154 1206 198 1289T317 1415Q407 1466 557 1466Q629 1466 708 1452T815 1438Q835 1438 845 1443T860 1448Q866 1448 866 1440T862 1415T858 1389Q858 1373 859 1341T860 1292Q860 1194 842 1194Q838 1194 833 1217T813
1277T772 1335Q731 1370 659 1390T524 1411Q411 1411 334 1348T256 1176Q256 1000 467 868L678 735Q789 665 842 590T895 397Z" />
<glyph unicode="T" glyph-name="T" horiz-adv-x="1234" d="M1194 1434Q1194 1430 1176 1343Q1170 1315 1169 1288Q1169 1270 1163 1270Q1161 1270 1159 1274T1154 1284T1147 1294Q1124 1323 1059 1333Q1008 1343 889 1343H723Q703 1343 697 1324T690 1229V356Q690
108 721 61Q756 10 803 10Q811 10 825 11T848 12Q862 12 862 2T807 -8Q778 -8 720 -4T633 0Q598 0 527 -4T418 -8Q406 -8 406 -2Q406 2 415 5T437 10L451 12Q482 16 495 19T522 33T543 63Q559 108 559 367V1290Q559 1343 518 1343H154Q107 1343 85 1327T59 1296T51
1280Q41 1280 41 1298Q41 1310 56 1356T74 1411L76 1426Q78 1441 81 1450T90 1460Q100 1460 118 1454T143 1446Q209 1434 315 1434H969Q1006 1434 1076 1438T1184 1442Q1194 1442 1194 1434Z" />
<glyph unicode="U" glyph-name="U" horiz-adv-x="1619" d="M1559 1425Q1559 1415 1534 1415Q1495 1415 1470 1396T1433 1335T1418 1254T1415 1149V596Q1415 305 1256 136T805 -33Q531 -33 373 108T215 512V1233Q215 1358 195 1380Q183 1394 154 1403T104 1417T82
1427Q82 1441 109 1442Q140 1442 199 1438T289 1434Q324 1434 391 1439T492 1444Q508 1444 508 1436Q508 1430 495 1425T463 1414T440 1407Q383 1378 369 1315T354 1053V545Q354 303 480 166T823 29Q1042 29 1184 163T1327 545V881Q1327 1024 1309 1264Q1305 1340
1288 1368T1206 1409Q1145 1419 1145 1425Q1145 1441 1180 1442Q1213 1442 1274 1438T1368 1434Q1397 1434 1452 1436T1536 1438Q1559 1437 1559 1425Z" />
<glyph unicode="V" glyph-name="V" horiz-adv-x="1396" d="M1458 1434Q1458 1426 1440 1425Q1401 1423 1368 1403Q1313 1366 1247 1214L748 55Q709 -37 698 -37Q692 -37 653 55L156 1237Q115 1331 102 1354Q82 1387 40 1406T-43 1425Q-53 1425 -53 1432Q-53 1442
-37 1442Q-2 1442 63 1438T164 1434Q193 1434 245 1439T322 1444Q332 1444 332 1436Q332 1434 325 1430T309 1422T299 1417Q274 1399 274 1368Q274 1343 302 1254T352 1112L664 350Q711 235 721 236Q735 236 780 348L1155 1245Q1180 1306 1180 1354Q1180 1389 1155
1407Q1153 1409 1142 1412T1122 1419T1114 1427Q1114 1437 1135 1438Q1160 1438 1206 1436T1278 1434T1351 1439T1423 1444Q1458 1444 1458 1434Z" />
<glyph unicode="W" glyph-name="W" horiz-adv-x="2168" d="M2210 1432Q2210 1426 2187 1425Q2146 1421 2120 1403Q2050 1354 1999 1210L1554 -4Q1548 -33 1534 -33Q1522 -33 1516 -12L1135 1024Q1096 1124 1088 1124T1044 1022L672 -4Q664 -33 651 -33Q645 -33
629 0L164 1233Q160 1243 152 1267T140 1300T129 1327T116 1353T102 1372T82 1390T59 1404T29 1415T-6 1421T-33 1424T-41 1432Q-41 1444 -25 1444Q10 1444 80 1439T184 1434Q217 1434 284 1439T385 1444Q395 1444 395 1436Q395 1434 342 1413T289 1356Q289 1315
338 1174L645 344Q668 283 678 283Q686 283 711 352L1051 1298Q1096 1423 1108 1431Q1111 1433 1114 1434Q1118 1434 1121 1432T1128 1423T1136 1409T1144 1390T1153 1365T1163 1335T1176 1298L1511 371Q1542 287 1554 287Q1564 287 1595 369L1913 1235Q1931 1290
1931 1343Q1931 1380 1883 1402T1835 1427Q1835 1437 1855 1438Q1884 1438 1942 1436T2030 1434Q2055 1434 2102 1439T2175 1444Q2210 1444 2210 1432Z" />
<glyph unicode="X" glyph-name="X" horiz-adv-x="1312" d="M1286 4Q1286 -10 1231 -10Q1192 -10 1116 -5T1001 0Q976 0 927 -2T852 -4Q834 -4 834 4Q834 6 869 20T905 57Q905 112 858 207L649 602Q637 620 631 620T610 600L379 174Q336 94 336 53Q336 22 375 10Q398
2 397 0Q397 -8 377 -8T313 -4T248 0Q217 0 158 -7T68 -14Q27 -14 27 -4T72 6Q97 6 150 37T250 150Q254 156 344 310T507 591T580 725Q580 739 491 904T367 1130L260 1309Q211 1389 150 1413Q130 1421 78 1421Q68 1421 68 1427Q68 1441 92 1442Q131 1442 205 1438T317
1434Q389 1434 426 1438Q432 1438 445 1440T469 1443T487 1444Q501 1444 502 1434Q502 1430 498 1430Q492 1428 476 1425T451 1417Q416 1401 416 1372Q416 1329 444 1268L645 874Q655 854 659 854Q661 854 664 857T671 865L674 870L883 1249Q928 1331 928 1374Q928
1411 893 1423Q850 1433 850 1436Q850 1444 872 1444Q897 1444 947 1439T1022 1434Q1051 1434 1109 1440T1196 1446Q1219 1446 1219 1436Q1219 1430 1204 1426T1165 1417T1130 1405Q1054 1354 999 1260L713 772Q711 770 711 762T846 507T1022 186Q1069 100 1126
56T1272 12Q1286 12 1286 4Z" />
<glyph unicode="Y" glyph-name="Y" horiz-adv-x="1318" d="M1360 1432Q1360 1426 1341 1425Q1310 1425 1276 1413Q1208 1388 1073 1174L801 743Q744 663 743 625V174Q743 106 782 61Q811 28 860 12Q864 10 878 9T902 6T911 0Q911 -10 870 -10Q839 -10 779 -5T688
0Q659 0 604 -5T522 -10Q479 -10 479 -2T500 6Q514 6 526 10Q612 45 612 209V616Q612 647 575 698L168 1311Q121 1377 74 1399Q60 1405 -14 1421Q-41 1421 -41 1432Q-41 1446 10 1446Q37 1446 93 1440T178 1434Q205 1434 257 1441T334 1448Q377 1448 377 1440Q377
1438 344 1426T311 1393Q311 1346 354 1278L633 836Q684 756 696 756Q710 756 745 811L981 1182Q1067 1317 1067 1391Q1067 1409 1052 1421L1036 1434Q1036 1442 1053 1442Q1067 1442 1096 1438T1141 1434Q1168 1434 1221 1441T1303 1448Q1360 1448 1360 1432Z"
/>
<glyph unicode="Z" glyph-name="Z" horiz-adv-x="1452" d="M1391 233Q1391 215 1348 125Q1321 70 1303 12Q1295 -15 1276 -14Q1272 -14 1266 -13T1251 -10T1212 -7T1137 -6Q1071 -6 971 -3T805 0H236Q222 0 160 -3T82 -6Q62 -6 61 0Q61 8 71 21T105 59T145 102L1055
1309Q1067 1324 1067 1333Q1067 1343 1030 1343H735Q471 1343 330 1337Q221 1333 164 1274Q139 1247 139 1186Q139 1168 131 1167Q113 1167 113 1260Q113 1283 123 1333T133 1411Q133 1421 134 1425T141 1434T160 1438Q221 1438 346 1436T535 1434H1042Q1085 1434
1165 1437T1288 1440Q1313 1440 1313 1427Q1313 1423 1301 1409T1272 1378T1251 1356Q1138 1223 1001 1036L557 440Q553 434 525 395T464 313T401 224T348 147T326 109Q326 97 343 94T428 90H711Q1057 90 1217 113Q1295 121 1329 174Q1335 184 1347 206T1367 238T1380
248Q1391 247 1391 233Z" />
<glyph unicode="[" glyph-name="bracketleft" horiz-adv-x="468" d="M367 -80Q367 -92 330 -90Q226 -82 190 -82L121 -88Q103 -90 102 -78Q102 -76 104 -41T106 35Q112 615 113 807L106 1380Q106 1421 104 1465T102 1511Q102 1523 121 1522Q158 1516 190 1516L330
1524Q367 1526 367 1513Q367 1505 313 1499Q268 1493 253 1451T238 1284V231Q238 45 252 -7T313 -66Q367 -72 367 -80Z" />
<glyph unicode="\" glyph-name="backslash" horiz-adv-x="825" d="M707 -127L45 1538Q41 1546 41 1552T51 1563L96 1579Q108 1583 111 1583Q119 1583 125 1565L780 -92Q784 -104 784 -111Q784 -123 774 -127L741 -141L725 -145Q715 -145 707 -127Z" />
<glyph unicode="]" glyph-name="bracketright" horiz-adv-x="468" d="M367 -78Q367 -90 348 -88Q311 -82 279 -82L139 -90Q102 -92 102 -80Q102 -72 156 -66Q203 -60 217 -8T231 231V1284Q231 1409 216 1451T156 1499Q103 1505 102 1513Q102 1525 139 1524Q243
1516 279 1516L348 1522Q366 1524 367 1511Q367 1509 365 1465T362 1380Q356 1032 356 807L362 35Q362 -6 364 -41T367 -78Z" />
<glyph unicode="^" glyph-name="asciicircum" horiz-adv-x="1064" d="M483 1436H582L963 621H860L532 1331L205 621H102L483 1436Z" />
<glyph unicode="_" glyph-name="underscore" horiz-adv-x="956" d="M948 -410H8V-324H948V-410Z" />
<glyph unicode="`" glyph-name="grave" horiz-adv-x="450" d="M451 1544Q451 1534 440 1534Q436 1534 425 1538T412 1542Q367 1556 285 1570T145 1592T78 1599Q68 1599 43 1586T10 1573Q0 1573 0 1583T57 1649T125 1706Q143 1706 276 1643T436 1561Q451 1550 451 1544Z" />
<glyph unicode="a" glyph-name="a" horiz-adv-x="1290" d="M1331 2Q1331 -8 1317 -8Q1284 -8 1219 -4T1120 0Q1093 0 1038 -3T956 -6Q919 -6 920 0Q920 8 932 11T961 15T983 18Q1028 32 1028 90Q1028 127 1004 201L907 457Q891 500 877 511T811 522H403Q356 522
343 514T313 463L227 229Q194 143 195 96Q195 45 233 23Q235 21 248 19T272 12T283 4Q283 -6 263 -6T191 -3T119 0Q94 0 53 -3T-12 -6Q-41 -6 -41 6Q-41 10 -30 13T-2 20T23 33Q80 88 188 367L535 1233Q549 1270 566 1316T595 1391T617 1450T637 1492T649 1505Q657
1505 676 1468Q694 1423 723 1338T766 1217L1157 184Q1184 114 1208 74T1274 18Q1331 4 1331 2ZM848 616Q848 641 741 918L678 1087Q633 1208 619 1208T573 1128L494 926Q492 918 460 839T402 689T375 610Q375 598 401 598H797Q848 598 848 616Z" />
<glyph unicode="b" glyph-name="b" horiz-adv-x="1218" d="M1108 350Q1108 182 972 84T655 -14Q606 -14 515 -7T375 0Q344 0 271 -3T168 -6Q145 -6 145 4Q145 10 160 13T195 17T217 18Q258 26 281 70Q308 125 307 412V1268Q307 1327 286 1373T217 1419Q211 1419
199 1418T180 1417Q166 1417 166 1427Q166 1441 217 1442Q244 1442 298 1438T379 1434Q414 1434 479 1438T580 1442Q732 1442 838 1353T944 1116Q944 872 776 776Q751 760 751 756T795 737Q934 690 1021 590T1108 350ZM842 1038Q842 1173 743 1274T508 1376Q461
1376 450 1365T438 1303V838Q438 801 455 793Q494 775 618 774H666Q748 774 795 851T842 1038ZM981 317Q981 448 905 539T722 669T487 707Q469 707 460 705T445 694T438 668V303Q438 131 463 92Q506 29 643 29Q795 29 888 99T981 317Z" />
<glyph unicode="c" glyph-name="c" horiz-adv-x="1460" d="M1317 231Q1317 227 1290 68Q1288 56 1287 52T1283 42T1276 35T1262 29Q1098 -32 844 -33Q484 -33 283 168T82 731Q82 883 135 1024Q215 1241 383 1353T786 1466Q962 1466 1108 1436Q1116 1434 1192 1415T1286
1395Q1292 1395 1298 1400T1309 1405Q1315 1405 1315 1382Q1315 1368 1312 1341T1309 1298Q1309 1278 1312 1239T1315 1180Q1315 1149 1307 1149T1294 1155T1285 1178T1274 1208Q1260 1239 1221 1278Q1076 1405 743 1405Q491 1405 362 1228T233 786Q233 585 311
415T544 136T903 27Q1077 27 1206 119Q1267 164 1284 205Q1300 256 1308 256T1317 231Z" />
<glyph unicode="d" glyph-name="d" horiz-adv-x="1619" d="M1538 748Q1538 398 1343 191T797 -16Q725 -16 586 -8T375 0Q342 0 277 -4T178 -8Q149 -8 150 4Q150 8 158 11T178 15T193 16Q261 28 279 63Q308 114 307 315V1257Q307 1415 178 1415Q158 1415 158 1427Q158
1441 209 1442Q236 1442 288 1438T367 1434Q441 1434 587 1441T807 1448Q1057 1448 1208 1364Q1366 1276 1452 1107T1538 748ZM1403 690Q1403 880 1313 1052T1061 1313Q918 1391 713 1391Q627 1391 561 1389Q551 1389 529 1388T500 1385T479 1382T459 1374T449
1359T440 1336T438 1300V469Q438 150 469 119Q471 117 488 108T508 96Q623 39 825 39Q1403 39 1403 690Z" />
<glyph unicode="e" glyph-name="e" horiz-adv-x="1118" d="M956 1292Q956 1280 948 1280Q942 1280 932 1294Q918 1323 903 1333T848 1354Q801 1366 731 1366H483Q463 1366 456 1364T444 1354T438 1327V844Q438 819 443 811T473 803H707Q801 803 825 825Q845 841
852 864Q862 907 868 907Q878 907 879 868Q879 852 876 822T872 776Q872 751 874 703T877 631Q877 611 868 610Q864 610 861 617T857 636T856 649Q850 665 836 684Q813 713 733 713H469Q449 713 444 706T438 676V197Q438 144 467 117Q510 78 668 78Q891 78 944
152Q946 156 949 161T955 171T961 179T969 182Q977 182 977 174Q977 154 954 87T918 8Q904 -6 866 -6Q796 -6 638 -3T410 0Q373 0 297 -3T184 -6Q145 -6 145 4Q145 12 180 16Q262 24 281 70Q308 142 307 584V1278Q307 1425 182 1425Q164 1425 164 1434Q164 1444
184 1444Q213 1444 272 1439T360 1434Q440 1434 601 1439T842 1444Q860 1444 895 1446T946 1448Q954 1448 954 1434Q954 1428 953 1416T952 1399Q952 1381 954 1346T956 1292Z" />
<glyph unicode="f" glyph-name="f" horiz-adv-x="1085" d="M950 1274Q950 1256 940 1255Q932 1255 932 1278Q932 1323 851 1343T702 1364H483Q454 1364 446 1356T438 1319V813Q438 786 479 786H629Q781 786 819 825Q829 835 836 859T850 900T862 918T868 897Q868
872 862 825T856 756Q856 723 861 658T866 559Q866 530 856 530T845 552T840 606T819 653Q799 673 742 684T641 696H471Q453 696 446 691T438 668V297Q438 100 473 49Q493 18 549 14Q580 14 580 4T551 -6Q524 -6 467 -3T383 0Q352 0 288 -5T190 -10Q165 -10 165
0T188 14Q247 24 272 74Q307 140 307 391V1257Q307 1388 223 1415Q219 1417 201 1419T168 1424T154 1434Q154 1444 180 1444Q217 1444 295 1439T410 1434Q699 1434 844 1442Q854 1442 886 1446T936 1450Q940 1450 940 1436Q940 1430 939 1416T938 1395Q938 1375
944 1335T950 1274Z" />
<glyph unicode="g" glyph-name="g" horiz-adv-x="1566" d="M1464 694Q1464 690 1450 686T1415 676T1380 662Q1353 644 1346 599T1339 449Q1339 416 1340 265T1341 80Q1341 68 1323 53Q1270 16 1130 -8T899 -33Q82 -33 82 745Q82 956 194 1143T496 1413Q619 1466
831 1466Q991 1466 1122 1436Q1128 1434 1201 1413T1298 1391Q1331 1391 1347 1402T1366 1413Q1374 1413 1374 1399Q1374 1376 1366 1329T1358 1249V1192Q1358 1110 1343 1110Q1325 1110 1325 1137Q1325 1184 1274 1243Q1204 1321 1073 1362T821 1403Q635 1403
514 1346Q371 1280 302 1136T233 819Q233 387 494 172Q668 27 901 27Q1065 27 1143 90Q1209 141 1208 305V537Q1208 617 1174 645Q1156 661 1129 672T1086 689T1069 702Q1069 712 1094 713Q1117 713 1194 706T1317 698Q1340 698 1383 701T1448 705Q1464 704 1464
694Z" />
<glyph unicode="h" glyph-name="h" horiz-adv-x="1796" d="M1655 6Q1655 -6 1595 -6Q1572 -6 1529 -3T1462 0Q1431 0 1370 -3T1278 -6Q1264 -6 1264 2Q1264 8 1274 11T1302 19T1335 33Q1360 49 1370 82Q1382 127 1382 289V664Q1382 689 1375 695T1343 702H475Q450
702 444 695T438 664V225Q438 80 487 37Q499 27 512 22T543 14T571 8Q579 4 580 0Q580 -10 561 -10Q536 -10 485 -5T369 0Q349 0 293 -3T195 -6Q177 -6 176 4Q176 10 186 14T211 20T227 25Q284 50 293 74Q307 115 307 238V1249Q307 1384 227 1417Q225 1419 211
1421T188 1427T178 1438T197 1444Q230 1444 293 1439T387 1434Q433 1434 479 1440Q481 1440 503 1443T539 1446Q568 1446 567 1432Q567 1426 555 1425Q510 1419 483 1399Q438 1368 438 1219V831Q438 804 443 798T473 791H1346Q1371 791 1376 798T1382 831V1217Q1382
1399 1296 1413Q1253 1421 1253 1431T1303 1442Q1328 1442 1381 1438T1458 1434Q1487 1434 1538 1440T1620 1446Q1647 1446 1647 1436Q1647 1432 1606 1417Q1571 1407 1548 1382Q1513 1341 1513 1204V580Q1513 164 1542 84Q1552 57 1569 43T1601 25T1642 16Q1655
16 1655 6Z" />
<glyph unicode="i" glyph-name="i" horiz-adv-x="720" d="M604 2Q604 -8 588 -8Q557 -8 494 -4T398 0T297 -2T195 -4Q168 -4 168 6T195 16Q242 16 268 47Q307 92 307 250V1249Q307 1329 284 1369T195 1417Q156 1421 156 1433T190 1446Q217 1446 268 1440T346 1434Q377
1434 439 1441T532 1448Q571 1448 571 1436Q571 1432 556 1427T519 1415T487 1403Q438 1372 438 1243V287Q438 213 441 172T458 89T504 31Q518 23 544 19T587 11T604 2Z" />
<glyph unicode="j" glyph-name="j" horiz-adv-x="686" d="M594 1427Q594 1419 573 1419Q538 1413 523 1409T489 1390T461 1348Q438 1270 438 1012V53Q438 -109 334 -244T135 -379Q88 -379 88 -354Q88 -338 113 -338Q158 -338 191 -319T246 -256T280 -169T299 -49T306
83T307 236V1112Q307 1214 299 1280Q293 1335 273 1367T236 1406T184 1419Q143 1429 143 1432Q143 1442 197 1442Q228 1442 288 1438T379 1434T473 1438T569 1442Q594 1441 594 1427Z" />
<glyph unicode="k" glyph-name="k" horiz-adv-x="1501" d="M1513 2Q1513 -12 1421 -12Q1392 -12 1334 -9T1247 -6Q1241 -6 1228 -8T1208 -10Q1196 -10 1178 8L575 584Q454 705 446 705T438 688V197Q438 78 492 39Q527 10 571 8Q598 8 598 -4Q598 -14 584 -14Q557
-14 501 -7T383 0Q348 0 285 -4T186 -8Q168 -8 168 2Q168 8 179 11T204 15T221 16Q258 28 283 70Q293 86 300 190T307 346V1264Q307 1305 291 1349T246 1409Q228 1419 190 1423Q174 1423 174 1430Q174 1442 221 1442Q250 1442 301 1438T381 1434T463 1438T544 1442T573
1434Q573 1428 563 1425T540 1420T522 1417Q475 1397 457 1341T438 1135V762Q438 750 444 750Q448 750 488 784T577 863L625 907L946 1202Q1081 1321 1081 1366Q1081 1397 1062 1407T1023 1419T1004 1430Q1004 1440 1032 1440Q1059 1440 1115 1437T1198 1434Q1280
1434 1333 1438T1395 1442Q1415 1442 1415 1436T1402 1425T1371 1415T1346 1409Q1272 1380 1128 1253L618 791Q598 771 598 764Q598 750 623 731L1178 205Q1334 55 1411 29Q1436 20 1460 16Q1462 16 1478 15T1504 12T1513 2Z" />
<glyph unicode="l" glyph-name="l" horiz-adv-x="1026" d="M995 188T995 180T975 113T948 10Q946 -4 932 -4Q842 -4 663 -2T393 0Q362 0 301 -2T209 -4Q180 -4 180 4Q180 10 186 12T201 14T211 14Q258 24 276 61Q307 122 307 324V1251Q307 1345 274 1389Q260 1409
203 1421Q180 1429 180 1434Q180 1442 205 1442Q234 1442 290 1438T374 1434T459 1438T545 1442Q557 1442 557 1432Q557 1426 528 1417Q485 1407 465 1380Q438 1343 438 1272V387Q438 307 444 223Q448 112 512 98Q586 82 739 82Q880 82 909 104Q919 112 936 134T968
172T987 188Q995 188 995 180Z" />
<glyph unicode="m" glyph-name="m" horiz-adv-x="1898" d="M1806 0Q1806 -10 1751 -10Q1716 -10 1649 -5T1546 0Q1521 0 1471 -3T1397 -6Q1381 -6 1380 4Q1380 10 1403 10Q1434 12 1466 33Q1519 64 1520 207Q1520 234 1509 367L1458 1028Q1454 1069 1440 1069T1386
981L981 90Q942 10 932 10T907 39Q893 66 875 106T794 290T651 614Q538 870 453 1032Q435 1067 424 1067Q412 1067 412 1032L360 342Q352 227 352 168Q352 59 397 31Q424 15 453 10T492 2Q498 0 498 -6T467 -12Q438 -12 381 -6T293 0Q264 0 208 -5T123 -10Q92 -10
92 -2T111 6Q146 12 170 29Q227 72 246 254L338 1139L373 1434Q373 1467 389 1466Q401 1466 416 1436Q426 1418 440 1385T459 1341L936 307Q950 278 961 279Q967 279 973 286T988 313T1006 354T1035 419T1073 500L1499 1421Q1521 1464 1532 1466Q1544 1466 1546
1436L1579 1065Q1595 864 1635 490T1694 78Q1712 39 1747 23Q1757 19 1772 15T1797 7T1806 0Z" />
<glyph unicode="n" glyph-name="n" horiz-adv-x="1761" d="M1651 1436Q1651 1432 1640 1428T1610 1418T1579 1407Q1540 1384 1540 1135V29Q1540 -41 1528 -41Q1518 -41 1496 -22T1446 28T1417 61L436 1126Q399 1167 393 1167Q385 1167 385 1114V244Q385 82 444
37Q467 21 496 14Q529 8 528 2Q528 -10 489 -10Q462 -10 417 -5T344 0Q319 0 266 -3T188 -6Q155 -6 156 4Q156 8 170 11T205 17T238 29Q287 64 287 250V1106L286 1239Q285 1372 285 1384Q285 1456 303 1456Q309 1456 321 1447T344 1428T366 1404T381 1389L1405
272Q1430 247 1436 248Q1446 248 1446 301L1434 1122Q1434 1339 1399 1386Q1387 1404 1363 1413T1322 1427T1305 1438Q1305 1448 1323 1448Q1348 1448 1397 1441T1472 1434T1548 1439T1624 1444T1651 1436Z" />
<glyph unicode="o" glyph-name="o" horiz-adv-x="1576" d="M1495 748Q1495 412 1320 190T817 -33Q487 -33 285 171T82 705Q82 836 104 926Q161 1162 338 1314T756 1466Q924 1466 1032 1430Q1245 1354 1370 1166T1495 748ZM1352 590Q1352 731 1317 869T1215 1130T1028
1329T758 1405Q500 1405 367 1227T233 782Q233 596 297 428T503 145T836 29Q1082 29 1217 184T1352 590Z" />
<glyph unicode="p" glyph-name="p" horiz-adv-x="1185" d="M1116 1063Q1116 877 1012 741T727 604Q700 604 647 612T594 633Q594 639 600 639Q616 639 648 633T696 627Q776 627 843 677T942 803Q967 864 967 969Q967 1270 760 1354Q686 1383 559 1382H530Q489
1382 475 1377T455 1354Q439 1301 438 1135V467Q438 373 446 225T471 55Q512 8 592 8Q612 8 612 -2Q612 -14 555 -14Q520 -14 465 -7T375 0Q348 0 285 -5T195 -10Q166 -10 166 -2Q166 4 201 12Q248 20 274 57Q307 102 307 295V1262Q307 1379 246 1411Q240 1415
224 1418T196 1424T184 1432Q184 1442 199 1442Q222 1442 266 1438T334 1434Q363 1434 417 1438T487 1442Q544 1446 659 1446Q782 1446 864 1415Q979 1372 1047 1279T1116 1063Z" />
<glyph unicode="q" glyph-name="q" horiz-adv-x="1601" d="M2935 -266Q2935 -282 2846 -315T2590 -379T2257 -410Q2138 -410 2040 -397T1805 -343T1508 -213T1167 16Q1149 30 1130 31Q1126 31 1110 27Q952 -32 817 -33Q483 -33 283 170T82 705Q82 836 104 926Q163
1170 342 1318T760 1466Q1090 1466 1293 1263T1497 735Q1497 385 1290 154Q1263 127 1264 119Q1264 117 1288 92Q1446 -66 1814 -199T2398 -332Q2529 -332 2650 -315T2842 -280T2924 -262T2935 -266ZM1352 623Q1352 760 1313 896T1202 1147T1014 1333T756 1405Q502
1405 367 1226T231 786Q231 649 270 517T382 275T572 97T836 29Q1014 29 1135 113Q1352 263 1352 623Z" />
<glyph unicode="r" glyph-name="r" horiz-adv-x="1497" d="M1509 12Q1509 -4 1466 -4Q1357 -4 1301 2T1178 43T1059 150L844 455Q836 467 812 505T773 564T730 605T672 625H467Q438 625 438 598V322Q438 129 471 68Q487 35 524 23Q532 19 552 18T586 13T600 4Q600
-8 567 -8Q536 -8 479 -4T391 0Q364 0 307 -3T223 -6Q172 -6 172 2T185 14T218 21T246 31Q307 76 307 201V1266Q307 1407 180 1419Q155 1423 156 1430Q156 1442 184 1442Q217 1442 276 1438T369 1434Q414 1434 500 1441T631 1448Q817 1448 943 1359T1069 1092Q1069
983 1010 875T860 700Q852 688 852 680T866 651L1143 279Q1206 195 1298 109T1458 23Q1464 23 1475 24T1493 25Q1509 24 1509 12ZM938 1020Q938 1182 835 1276T567 1370H506Q438 1370 438 1270V721Q438 690 588 690H676Q758 690 784 702Q860 737 899 831T938 1020Z"
/>
<glyph unicode="s" glyph-name="s" horiz-adv-x="997" d="M895 397Q895 190 715 53Q600 -33 449 -33Q281 -33 158 16Q131 28 129 41Q123 90 123 190Q123 280 139 281Q145 281 150 264T160 221T170 182Q246 28 477 29Q592 29 657 76Q714 115 752 184T791 324Q791
480 584 608L365 745Q265 806 210 903T154 1116Q154 1206 198 1289T317 1415Q407 1466 557 1466Q629 1466 708 1452T815 1438Q835 1438 845 1443T860 1448Q866 1448 866 1440T862 1415T858 1389Q858 1373 859 1341T860 1292Q860 1194 842 1194Q838 1194 833 1217T813
1277T772 1335Q731 1370 659 1390T524 1411Q411 1411 334 1348T256 1176Q256 1000 467 868L678 735Q789 665 842 590T895 397Z" />
<glyph unicode="t" glyph-name="t" horiz-adv-x="1234" d="M1194 1434Q1194 1430 1176 1343Q1170 1315 1169 1288Q1169 1270 1163 1270Q1161 1270 1159 1274T1154 1284T1147 1294Q1124 1323 1059 1333Q1008 1343 889 1343H723Q703 1343 697 1324T690 1229V356Q690
108 721 61Q756 10 803 10Q811 10 825 11T848 12Q862 12 862 2T807 -8Q778 -8 720 -4T633 0Q598 0 527 -4T418 -8Q406 -8 406 -2Q406 2 415 5T437 10L451 12Q482 16 495 19T522 33T543 63Q559 108 559 367V1290Q559 1343 518 1343H154Q107 1343 85 1327T59 1296T51
1280Q41 1280 41 1298Q41 1310 56 1356T74 1411L76 1426Q78 1441 81 1450T90 1460Q100 1460 118 1454T143 1446Q209 1434 315 1434H969Q1006 1434 1076 1438T1184 1442Q1194 1442 1194 1434Z" />
<glyph unicode="u" glyph-name="u" horiz-adv-x="1619" d="M1559 1425Q1559 1415 1534 1415Q1495 1415 1470 1396T1433 1335T1418 1254T1415 1149V596Q1415 305 1256 136T805 -33Q531 -33 373 108T215 512V1233Q215 1358 195 1380Q183 1394 154 1403T104 1417T82
1427Q82 1441 109 1442Q140 1442 199 1438T289 1434Q324 1434 391 1439T492 1444Q508 1444 508 1436Q508 1430 495 1425T463 1414T440 1407Q383 1378 369 1315T354 1053V545Q354 303 480 166T823 29Q1042 29 1184 163T1327 545V881Q1327 1024 1309 1264Q1305 1340
1288 1368T1206 1409Q1145 1419 1145 1425Q1145 1441 1180 1442Q1213 1442 1274 1438T1368 1434Q1397 1434 1452 1436T1536 1438Q1559 1437 1559 1425Z" />
<glyph unicode="v" glyph-name="v" horiz-adv-x="1396" d="M1458 1434Q1458 1426 1440 1425Q1401 1423 1368 1403Q1313 1366 1247 1214L748 55Q709 -37 698 -37Q692 -37 653 55L156 1237Q115 1331 102 1354Q82 1387 40 1406T-43 1425Q-53 1425 -53 1432Q-53 1442
-37 1442Q-2 1442 63 1438T164 1434Q193 1434 245 1439T322 1444Q332 1444 332 1436Q332 1434 325 1430T309 1422T299 1417Q274 1399 274 1368Q274 1343 302 1254T352 1112L664 350Q711 235 721 236Q735 236 780 348L1155 1245Q1180 1306 1180 1354Q1180 1389 1155
1407Q1153 1409 1142 1412T1122 1419T1114 1427Q1114 1437 1135 1438Q1160 1438 1206 1436T1278 1434T1351 1439T1423 1444Q1458 1444 1458 1434Z" />
<glyph unicode="w" glyph-name="w" horiz-adv-x="2168" d="M2210 1432Q2210 1426 2187 1425Q2146 1421 2120 1403Q2050 1354 1999 1210L1554 -4Q1548 -33 1534 -33Q1522 -33 1516 -12L1135 1024Q1096 1124 1088 1124T1044 1022L672 -4Q664 -33 651 -33Q645 -33
629 0L164 1233Q160 1243 152 1267T140 1300T129 1327T116 1353T102 1372T82 1390T59 1404T29 1415T-6 1421T-33 1424T-41 1432Q-41 1444 -25 1444Q10 1444 80 1439T184 1434Q217 1434 284 1439T385 1444Q395 1444 395 1436Q395 1434 342 1413T289 1356Q289 1315
338 1174L645 344Q668 283 678 283Q686 283 711 352L1051 1298Q1096 1423 1108 1431Q1111 1433 1114 1434Q1118 1434 1121 1432T1128 1423T1136 1409T1144 1390T1153 1365T1163 1335T1176 1298L1511 371Q1542 287 1554 287Q1564 287 1595 369L1913 1235Q1931 1290
1931 1343Q1931 1380 1883 1402T1835 1427Q1835 1437 1855 1438Q1884 1438 1942 1436T2030 1434Q2055 1434 2102 1439T2175 1444Q2210 1444 2210 1432Z" />
<glyph unicode="x" glyph-name="x" horiz-adv-x="1312" d="M1286 4Q1286 -10 1231 -10Q1192 -10 1116 -5T1001 0Q976 0 927 -2T852 -4Q834 -4 834 4Q834 6 869 20T905 57Q905 112 858 207L649 602Q637 620 631 620T610 600L379 174Q336 94 336 53Q336 22 375 10Q398
2 397 0Q397 -8 377 -8T313 -4T248 0Q217 0 158 -7T68 -14Q27 -14 27 -4T72 6Q97 6 150 37T250 150Q254 156 344 310T507 591T580 725Q580 739 491 904T367 1130L260 1309Q211 1389 150 1413Q130 1421 78 1421Q68 1421 68 1427Q68 1441 92 1442Q131 1442 205 1438T317
1434Q389 1434 426 1438Q432 1438 445 1440T469 1443T487 1444Q501 1444 502 1434Q502 1430 498 1430Q492 1428 476 1425T451 1417Q416 1401 416 1372Q416 1329 444 1268L645 874Q655 854 659 854Q661 854 664 857T671 865L674 870L883 1249Q928 1331 928 1374Q928
1411 893 1423Q850 1433 850 1436Q850 1444 872 1444Q897 1444 947 1439T1022 1434Q1051 1434 1109 1440T1196 1446Q1219 1446 1219 1436Q1219 1430 1204 1426T1165 1417T1130 1405Q1054 1354 999 1260L713 772Q711 770 711 762T846 507T1022 186Q1069 100 1126
56T1272 12Q1286 12 1286 4Z" />
<glyph unicode="y" glyph-name="y" horiz-adv-x="1318" d="M1360 1432Q1360 1426 1341 1425Q1310 1425 1276 1413Q1208 1388 1073 1174L801 743Q744 663 743 625V174Q743 106 782 61Q811 28 860 12Q864 10 878 9T902 6T911 0Q911 -10 870 -10Q839 -10 779 -5T688
0Q659 0 604 -5T522 -10Q479 -10 479 -2T500 6Q514 6 526 10Q612 45 612 209V616Q612 647 575 698L168 1311Q121 1377 74 1399Q60 1405 -14 1421Q-41 1421 -41 1432Q-41 1446 10 1446Q37 1446 93 1440T178 1434Q205 1434 257 1441T334 1448Q377 1448 377 1440Q377
1438 344 1426T311 1393Q311 1346 354 1278L633 836Q684 756 696 756Q710 756 745 811L981 1182Q1067 1317 1067 1391Q1067 1409 1052 1421L1036 1434Q1036 1442 1053 1442Q1067 1442 1096 1438T1141 1434Q1168 1434 1221 1441T1303 1448Q1360 1448 1360 1432Z"
/>
<glyph unicode="z" glyph-name="z" horiz-adv-x="1452" d="M1391 233Q1391 215 1348 125Q1321 70 1303 12Q1295 -15 1276 -14Q1272 -14 1266 -13T1251 -10T1212 -7T1137 -6Q1071 -6 971 -3T805 0H236Q222 0 160 -3T82 -6Q62 -6 61 0Q61 8 71 21T105 59T145 102L1055
1309Q1067 1324 1067 1333Q1067 1343 1030 1343H735Q471 1343 330 1337Q221 1333 164 1274Q139 1247 139 1186Q139 1168 131 1167Q113 1167 113 1260Q113 1283 123 1333T133 1411Q133 1421 134 1425T141 1434T160 1438Q221 1438 346 1436T535 1434H1042Q1085 1434
1165 1437T1288 1440Q1313 1440 1313 1427Q1313 1423 1301 1409T1272 1378T1251 1356Q1138 1223 1001 1036L557 440Q553 434 525 395T464 313T401 224T348 147T326 109Q326 97 343 94T428 90H711Q1057 90 1217 113Q1295 121 1329 174Q1335 184 1347 206T1367 238T1380
248Q1391 247 1391 233Z" />
<glyph unicode="{" glyph-name="braceleft" horiz-adv-x="690" d="M588 -104Q588 -124 551 -125Q401 -123 324 -72T246 125V494Q246 609 178 666Q162 680 132 685T82 694T61 711Q61 721 82 726T133 737T172 752Q246 809 246 926V1294Q246 1431 326 1485T551 1542Q588
1542 588 1526Q588 1516 539 1511Q447 1505 409 1460T371 1325V983Q371 895 352 838T303 759T246 729T198 718T178 709Q178 705 197 704T245 693T303 662T351 582T371 438V92Q371 -4 407 -46T539 -94Q588 -98 588 -104Z" />
<glyph unicode="|" glyph-name="bar" horiz-adv-x="512" d="M307 -102H205V1526H307V-102Z" />
<glyph unicode="}" glyph-name="braceright" horiz-adv-x="690" d="M102 -104Q102 -98 152 -94Q246 -88 282 -46T319 92V438Q319 524 338 581T387 661T444 693T492 703T512 709Q512 715 493 718T445 729T387 758T339 837T319 983V1325Q319 1415 282 1460T152 1511Q103
1515 102 1526Q102 1542 139 1542Q284 1540 364 1486T444 1294V926Q444 809 518 752Q528 744 557 738T607 726T629 711Q629 699 609 695T558 685T512 666Q444 609 444 494V125Q444 -20 367 -71T139 -125Q102 -124 102 -104Z" />
<glyph unicode="~" glyph-name="asciitilde" horiz-adv-x="944" d="M197 637L102 635Q102 748 151 805T285 862Q357 862 490 798T670 733Q744 733 748 860H842Q842 633 666 633Q588 633 457 697T281 762Q199 762 197 637Z" />
<glyph unicode="&#xa0;" glyph-name="uni00A0" horiz-adv-x="655" />
<glyph unicode="&#xa1;" glyph-name="exclamdown" horiz-adv-x="440" d="M317 1370T317 1327T290 1256T219 1227T149 1256T121 1325Q121 1372 147 1405T219 1438Q262 1438 289 1404ZM313 0Q258 4 219 4L125 0Q158 283 164 406L195 979Q195 1032 219 1032T244 975L274
408Q282 223 313 0Z" />
<glyph unicode="&#xa2;" glyph-name="cent" horiz-adv-x="1054" d="M719 1411L698 1231Q757 1225 831 1208T936 1190Q938 1190 946 1193T958 1196Q970 1196 971 1171Q971 1163 969 1145T967 1114T969 1076T971 1032Q971 1003 956 1004Q940 1004 932 1030Q922 1063
891 1094Q825 1153 692 1171L592 254Q627 246 678 246Q795 246 883 309Q916 329 932 365Q946 404 958 403Q972 403 973 379Q973 361 958 303Q954 287 950 256Q948 236 928 227Q832 190 637 190H586L561 -37Q557 -57 545 -57H502Q486 -57 485 -45Q485 -43 487 -28T492
8T496 39L512 201Q315 234 209 369T102 723Q102 823 141 928Q200 1078 318 1157T598 1237H627L645 1405Q649 1421 664 1421H700Q719 1421 719 1411ZM223 762Q223 596 303 461T520 272L621 1178Q603 1180 569 1180Q399 1180 311 1059T223 762Z" />
<glyph unicode="&#xa3;" glyph-name="sterling" horiz-adv-x="1146" d="M760 684H526Q536 623 537 584Q537 508 516 434T464 306T404 209T352 140T330 109Q330 91 347 88T434 84H598Q913 84 989 141Q1007 155 1029 183T1067 230T1096 250Q1106 250 1106 233Q1106
221 1063 129Q1055 111 1041 70T1018 10Q1010 -15 989 -14L955 -10Q921 -6 850 -6Q784 -6 674 -3T498 0H217Q174 0 128 -2T72 -4Q41 -4 41 16Q41 32 57 39T109 57T174 84Q221 113 248 137T311 214T362 352T379 559Q379 606 365 684H160Q123 684 123 696Q123 698
125 704T131 724T139 754Q141 766 147 768T176 770H348Q305 946 305 1042Q305 1216 423 1341T727 1466Q799 1466 858 1452T944 1438Q964 1438 974 1443T989 1448Q995 1448 995 1440Q995 1436 992 1390T989 1292Q989 1194 971 1194Q967 1194 962 1217T942 1277T901
1335Q813 1411 694 1411Q585 1411 516 1345T446 1165Q446 1120 453 1062T467 973T490 861T510 770H770Q805 770 805 760Q805 754 791 709Q785 684 760 684Z" />
<glyph unicode="&#xa4;" glyph-name="currency" horiz-adv-x="1251" d="M932 614H369Q422 26 797 27Q871 27 922 47T1038 119Q1071 144 1091 179T1121 235T1141 256Q1149 256 1149 231Q1149 204 1135 139T1118 66Q1114 39 1106 34Q1102 32 1094 29Q930 -32 737
-33Q540 -33 390 141T211 614H78Q41 614 41 629Q41 631 43 635T49 651T57 680Q59 692 65 694T94 696H207V731Q207 774 209 797H78Q41 797 41 811Q41 813 43 817T49 833T57 862Q59 874 65 876T94 879H217Q231 994 269 1093T370 1279T536 1416T768 1466Q866 1466
969 1431T1104 1395Q1110 1395 1116 1400T1126 1405Q1132 1405 1133 1382Q1133 1368 1130 1341T1126 1298Q1126 1278 1129 1239T1133 1180Q1133 1149 1124 1149Q1114 1149 1104 1172T1074 1235T1024 1298Q946 1364 891 1384T725 1405Q567 1405 473 1263T365 879H999Q1034
879 1034 868Q1034 864 1033 861T1028 847T1020 823Q1012 796 989 797H362Q362 727 365 696H942Q977 696 977 686Q977 682 976 679T971 665T963 641Q955 614 932 614Z" />
<glyph unicode="&#xa5;" glyph-name="yen" horiz-adv-x="1183" d="M848 301H647V174Q647 94 676 62T754 12Q758 10 772 9T795 6T805 0Q805 -10 764 -10Q733 -10 673 -5T582 0Q553 0 502 -5T424 -10Q381 -10 381 -2T401 6Q415 6 428 10Q514 45 514 209V301H307Q270
301 270 315Q270 317 272 321T278 338T287 367Q289 379 295 381T324 383H514V483H307Q270 483 270 498Q270 500 272 504T278 520T287 549Q289 561 295 563T324 565H514V657Q514 669 507 690T492 726T471 764T455 795L188 1311Q161 1364 133 1384T47 1421Q20 1429
20 1432Q20 1446 72 1446Q99 1446 134 1440T199 1434Q226 1434 271 1441T342 1448Q385 1448 385 1440Q385 1438 352 1426T319 1393Q319 1366 360 1278L532 928Q581 828 596 827Q606 827 662 930L834 1231Q891 1331 891 1391Q891 1409 876 1421L860 1434Q860 1442
877 1442Q891 1442 919 1438T963 1434Q990 1434 1033 1441T1106 1448Q1163 1448 1163 1432Q1163 1426 1145 1425Q1114 1425 1079 1413Q1048 1403 1018 1362T924 1202L700 795Q696 789 682 764T664 729T653 701T647 666V565H858Q893 565 893 555Q893 551 892 548T887
534T879 510Q871 483 848 483H647V383H858Q893 383 893 373Q893 369 892 366T887 351T879 328Q871 301 848 301Z" />
<glyph unicode="&#xa6;" glyph-name="brokenbar" horiz-adv-x="348" d="M225 858H123V1528H225V858ZM225 -96H123V571H225V-96Z" />
<glyph unicode="&#xa7;" glyph-name="section" horiz-adv-x="1140" d="M469 -410Q430 -410 353 -402T213 -393Q188 -393 184 -369Q178 -320 178 -219Q178 -129 195 -129Q203 -129 208 -145T217 -189T225 -227Q241 -278 320 -310T483 -342Q585 -342 677 -278T770
-117Q770 -29 707 40T554 160T375 265T222 406T158 606Q158 815 379 907Q250 1016 250 1145Q250 1303 347 1382T610 1462Q682 1462 755 1447T856 1432Q876 1432 886 1437T901 1442Q907 1442 907 1434T903 1408T899 1382Q899 1366 900 1335T901 1286Q901 1188 883
1188Q879 1188 874 1211T854 1271T813 1329Q737 1395 596 1395Q494 1395 431 1346T367 1200Q367 1124 429 1059T582 942T762 834T914 690T977 498Q977 322 803 188L778 172Q887 80 887 -61Q887 -219 762 -314T469 -410ZM864 440Q864 497 839 547T762 642T663 718T542
794T428 866Q270 803 270 664Q270 582 318 517T427 413T581 320T729 219L737 225Q790 260 827 319T864 440Z" />
<glyph unicode="&#xa8;" glyph-name="dieresis" horiz-adv-x="518" d="M518 1622Q518 1583 496 1559T434 1534Q397 1534 376 1556T354 1616Q354 1651 377 1674T436 1698T494 1678T518 1622ZM164 1622Q164 1583 142 1559T80 1534Q43 1534 22 1556T0 1616Q0 1651
23 1674T82 1698T140 1678T164 1622Z" />
<glyph unicode="&#xa9;" glyph-name="copyright" horiz-adv-x="1732" d="M1614 715Q1614 406 1396 187T868 -33Q557 -33 338 185T119 715Q119 1028 337 1247T868 1466Q1177 1466 1395 1246T1614 715ZM1509 717Q1509 991 1325 1188T869 1386T409 1189T221 717T408
245T868 47Q1138 47 1323 246T1509 717ZM1182 446Q1182 428 1172 390T1161 346Q1157 325 1149 322Q1148 321 1139 317Q1051 280 891 281Q668 281 544 398T420 739Q420 940 537 1060T856 1180Q995 1180 1120 1145Q1134 1139 1153 1139L1155 1141H1157Q1161 1145
1165 1145Q1179 1145 1180 1120Q1180 1112 1178 1096T1176 1071Q1176 1061 1178 1041T1180 1010Q1180 973 1166 973T1141 1004Q1092 1125 827 1124Q680 1124 608 1026T535 772Q535 588 642 462T930 336Q1018 336 1096 387Q1137 414 1147 444Q1147 446 1149 452T1152
461T1157 466T1165 469Q1182 469 1182 446Z" />
<glyph unicode="&#xaa;" glyph-name="ordfeminine" horiz-adv-x="860" d="M809 745Q809 733 795 733Q789 733 747 735T692 737Q667 737 636 735T602 733Q567 733 567 745T597 761T627 788Q627 800 593 890T553 985T532 989H287Q271 989 262 967L215 846L199 793Q199
768 222 762T246 748Q246 734 225 733L139 737L78 733Q53 733 53 748Q53 758 68 762Q107 768 137 836L387 1411Q420 1489 432 1489Q450 1489 471 1434L715 838Q727 807 741 786Q749 772 766 765T796 755T809 745ZM487 1042Q526 1042 526 1053Q526 1059 508 1104L426
1300Q420 1314 416 1315Q414 1315 406 1298L358 1192L295 1042H487ZM774 532H78Q41 532 41 547Q41 549 43 553T49 569T57 598Q59 610 65 612T94 614H784Q819 614 819 604Q819 600 818 597T813 583T805 559Q797 532 774 532Z" />
<glyph unicode="&#xab;" glyph-name="guillemotleft" horiz-adv-x="972" d="M498 1145Q510 1145 510 1133Q510 1110 455 1055L279 856Q209 778 209 760T254 690L465 465Q510 420 510 414Q510 404 489 383Q471 365 461 365Q457 365 450 371T421 396T381 432L131
659Q61 720 61 750Q61 770 141 840L426 1096Q482 1145 498 1145ZM838 1145Q850 1145 850 1133Q850 1110 795 1055L618 856Q548 778 548 760T594 690L805 465Q850 420 850 414Q850 404 829 383Q811 365 801 365Q797 365 790 371T761 396T721 432L471 659Q401 720
401 750Q401 770 481 840L766 1096Q822 1145 838 1145Z" />
<glyph unicode="&#xac;" glyph-name="logicalnot" horiz-adv-x="1044" d="M889 303H788V612H86V709H889V303Z" />
<glyph unicode="&#xad;" glyph-name="uni00AD" horiz-adv-x="798" d="M139 592H621Q678 592 678 573Q678 553 612 541Q604 539 493 524T284 494T158 471Q142 467 124 460T94 448T78 442Q64 442 70 471L98 578Q100 592 139 592Z" />
<glyph unicode="&#xae;" glyph-name="registered" horiz-adv-x="1732" d="M1614 715Q1614 406 1395 187T867 -33T338 186T119 715Q119 1026 338 1246T868 1466Q1177 1466 1395 1246T1614 715ZM1509 717Q1509 989 1324 1187T868 1386Q594 1386 408 1190T221 717Q221
443 409 245T872 47Q1138 47 1323 248T1509 717ZM1348 324Q1348 306 1313 305H1247Q1112 305 1042 397Q940 526 883 612Q840 673 805 674H676Q668 674 668 668V489Q668 368 698 348Q704 344 722 339T755 329T770 319Q770 301 739 301Q721 301 683 304T627 307Q611
307 574 304T520 301Q477 301 477 317Q477 323 487 328T512 338T530 344Q563 358 563 434V1063Q563 1108 547 1118Q541 1122 521 1128T484 1139T467 1149Q467 1172 492 1171Q512 1171 552 1169T612 1167Q639 1167 696 1171T780 1176Q899 1176 983 1123T1067 956Q1067
888 1029 825T932 721L930 715Q936 703 1112 485Q1229 338 1309 340H1323Q1348 340 1348 324ZM965 915Q965 1009 901 1059T739 1110H700Q667 1110 668 1061V739Q668 733 705 733Q721 731 754 731H809Q856 731 872 737Q917 755 941 808T965 915Z" />
<glyph unicode="&#xaf;" glyph-name="overscore" horiz-adv-x="624" d="M545 1630Q563 1630 563 1614Q563 1608 559 1599T547 1570T530 1532Q522 1516 514 1516Q512 1516 501 1521T467 1531T418 1536H160Q133 1536 106 1529T76 1522Q58 1522 57 1534Q57 1544 68
1565Q72 1573 78 1592T89 1619T104 1626T139 1620T178 1614H418Q463 1614 500 1622T545 1630Z" />
<glyph unicode="&#xb0;" glyph-name="degree" horiz-adv-x="630" d="M483 1137L481 1139Q481 1051 421 994T279 936Q193 936 137 993T80 1130Q80 1214 138 1272T281 1331H285Q375 1331 429 1275T483 1137ZM393 1137Q393 1184 364 1220T276 1257Q225 1257 195 1220T164
1133Q164 1086 197 1051T279 1016Q328 1016 360 1051T393 1137Z" />
<glyph unicode="&#xb1;" glyph-name="plusminus" horiz-adv-x="1019" d="M463 1116H559V760H918V662H561V301H463V662H102V760H463V1116ZM918 211V115H102V211H918Z" />
<glyph unicode="&#xb2;" glyph-name="uni00B2" horiz-adv-x="708" d="M647 717Q647 713 637 676Q631 653 623 602L621 588Q619 568 596 567H563Q497 567 465 569Q453 569 415 570T367 571Q267 571 82 559Q62 559 61 578Q61 584 143 666L305 829Q514 1042 514 1182Q514
1268 458 1335T303 1403Q229 1403 175 1356T121 1262Q121 1248 109 1247Q89 1247 88 1284V1352Q88 1358 86 1369T84 1384Q84 1402 106 1402T160 1415Q258 1454 336 1454Q457 1454 547 1373T637 1188Q637 1120 599 1051T518 936T387 805L221 647Q217 643 217 637Q217
635 225 635H467Q555 635 584 662Q607 685 618 715Q624 729 635 729Q647 729 647 717Z" />
<glyph unicode="&#xb3;" glyph-name="uni00B3" horiz-adv-x="665" d="M604 811Q604 686 513 619T289 551Q211 551 88 582Q68 590 68 606T65 658T61 715Q61 738 76 737Q86 737 90 730T96 712T100 696Q157 604 299 604Q393 604 442 655T492 774Q492 885 426 949T250
1014Q244 1014 238 1013T229 1012H213Q190 1012 190 1032Q190 1055 231 1055Q323 1055 377 1079Q477 1120 477 1245Q477 1313 420 1358T287 1403Q193 1403 137 1331Q125 1313 121 1291T102 1268Q86 1268 86 1284Q86 1319 88 1331Q88 1335 89 1349T90 1370Q90 1372
89 1378T88 1386V1403Q88 1417 102 1417L105 1416Q108 1415 111 1415H121Q150 1415 213 1434T313 1454Q415 1454 501 1396T588 1245Q588 1171 536 1121T422 1049Q485 1033 544 970T604 811Z" />
<glyph unicode="&#xb4;" glyph-name="acute" horiz-adv-x="450" d="M451 1593T451 1583T440 1573Q432 1573 408 1586T373 1599Q365 1599 307 1592T166 1571T39 1542Q37 1542 26 1538T10 1534Q0 1534 0 1544Q0 1550 14 1561Q41 1579 174 1642T326 1706Q336 1706 393 1650Z" />
<glyph unicode="&#xb5;" glyph-name="uni00B5" horiz-adv-x="1898" d="M1806 0Q1806 -10 1751 -10Q1716 -10 1649 -5T1546 0Q1521 0 1471 -3T1397 -6Q1381 -6 1380 4Q1380 10 1403 10Q1434 12 1466 33Q1519 64 1520 207Q1520 234 1509 367L1458 1028Q1454 1069
1440 1069T1386 981L981 90Q942 10 932 10T907 39Q893 66 875 106T794 290T651 614Q538 870 453 1032Q435 1067 424 1067Q412 1067 412 1032L360 342Q352 227 352 168Q352 59 397 31Q424 15 453 10T492 2Q498 0 498 -6T467 -12Q438 -12 381 -6T293 0Q264 0 208
-5T123 -10Q92 -10 92 -2T111 6Q146 12 170 29Q227 72 246 254L338 1139L373 1434Q373 1467 389 1466Q401 1466 416 1436Q426 1418 440 1385T459 1341L936 307Q950 278 961 279Q967 279 973 286T988 313T1006 354T1035 419T1073 500L1499 1421Q1521 1464 1532 1466Q1544
1466 1546 1436L1579 1065Q1595 864 1635 490T1694 78Q1712 39 1747 23Q1757 19 1772 15T1797 7T1806 0Z" />
<glyph unicode="&#xb6;" glyph-name="paragraph" horiz-adv-x="1249" d="M602 -301Q612 -205 612 141V614H575Q368 614 235 729T102 1032Q102 1204 230 1322T549 1440Q565 1440 661 1437T780 1434L923 1437Q1065 1440 1116 1440Q1147 1440 1147 1423Q1147 1413
1130 1413Q1101 1413 1077 1407Q1005 1387 1006 1298V133Q1006 -168 1010 -248Q1010 -264 995 -274Q979 -290 938 -302T874 -315Q864 -315 864 -305Q864 -303 866 -293T870 -267T872 -233Q882 -127 883 133V1327Q883 1358 867 1370T809 1382Q780 1382 768 1380T746
1367T735 1331V141Q735 -242 741 -322Q741 -334 729 -346Q713 -362 672 -374T606 -387Q590 -387 590 -375L592 -368Q594 -361 597 -344T602 -301ZM612 651V1315Q612 1354 606 1368T582 1382Q533 1382 502 1354T458 1268T441 1161T438 1032Q438 651 612 651Z" />
<glyph unicode="&#xb7;" glyph-name="middot" horiz-adv-x="440" d="M123 707T123 750T150 819T219 846T288 821T317 752Q317 707 291 678T219 649Q178 649 151 678Z" />
<glyph unicode="&#xb8;" glyph-name="cedilla" horiz-adv-x="430" d="M430 -246Q430 -295 394 -338T290 -411T182 -456T80 -489Q31 -505 16 -506Q0 -506 0 -492Q0 -482 37 -469Q316 -373 315 -268Q315 -178 174 -178Q151 -178 152 -162Q152 -158 170 -129T217
-59T258 2H317L215 -133Q430 -133 430 -246Z" />
<glyph unicode="&#xb9;" glyph-name="uni00B9" horiz-adv-x="532" d="M471 575Q471 557 442 557Q401 557 360 563Q303 571 285 571Q240 571 162 563L156 562Q150 561 145 561Q131 559 96 559Q67 559 68 575Q68 590 92 594Q117 594 166 602Q223 610 223 829V1235Q223
1348 188 1348Q178 1348 137 1335Q92 1323 82 1323Q62 1323 61 1339Q61 1351 86 1362L125 1374Q203 1394 229 1405Q268 1419 297 1448Q309 1460 317 1460Q331 1460 332 1442Q332 1389 329 1278T326 1102V793Q326 643 344 625Q375 592 442 592Q471 591 471 575Z"
/>
<glyph unicode="&#xba;" glyph-name="ordmasculine" horiz-adv-x="878" d="M827 1114Q827 940 728 833T455 725T166 824T51 1094Q51 1258 155 1366T422 1475Q518 1475 573 1456Q686 1419 756 1326T827 1114ZM731 1038Q731 1192 651 1308T424 1425Q293 1425 223
1345T152 1133Q152 988 238 881T465 774Q588 774 659 844T731 1038ZM772 532H96Q59 532 59 547Q59 549 61 553T67 569T76 598Q78 610 84 612T113 614H782Q817 614 817 604Q817 600 816 597T811 583T803 559Q795 532 772 532Z" />
<glyph unicode="&#xbb;" glyph-name="guillemotright" horiz-adv-x="972" d="M475 365Q463 365 463 377Q463 400 518 455L694 653Q764 731 764 749T719 819L508 1044Q463 1089 463 1096Q463 1106 483 1126Q501 1144 512 1145Q516 1145 592 1077L842 850Q912 789
911 760Q911 740 831 670L547 414Q491 365 475 365ZM135 365Q123 365 123 377Q123 400 178 455L354 653Q424 731 424 749T379 819L168 1044Q123 1089 123 1096Q123 1106 143 1126Q161 1144 172 1145Q176 1145 252 1077L502 850Q572 789 571 760Q571 740 492 670L207
414Q151 365 135 365Z" />
<glyph unicode="&#xbc;" glyph-name="onequarter" horiz-adv-x="1499" d="M471 575Q471 557 442 557Q401 557 360 563Q303 571 285 571Q240 571 162 563L156 562Q150 561 145 561Q131 559 96 559Q67 559 68 575Q68 590 92 594Q117 594 166 602Q223 610 223 829V1235Q223
1348 188 1348Q178 1348 137 1335Q92 1323 82 1323Q62 1323 61 1339Q61 1351 86 1362L125 1374Q203 1394 229 1405Q268 1419 297 1448Q309 1460 317 1460Q331 1460 332 1442Q332 1389 329 1278T326 1102V793Q326 643 344 625Q375 592 442 592Q471 591 471 575ZM1065
1538L403 -127Q395 -145 385 -145Q379 -145 369 -141L336 -127Q326 -123 326 -111Q326 -105 330 -92L985 1565Q991 1583 999 1583Q1001 1583 1014 1579L1059 1563Q1069 1559 1069 1553T1065 1538ZM1438 332Q1438 328 1430 309T1421 287Q1419 281 1418 274T1416
261T1413 251T1410 243T1407 237T1402 232T1397 231Q1391 231 1381 246T1350 262H1266Q1258 262 1257 254V133Q1257 27 1343 27Q1380 27 1380 10Q1380 -8 1346 -8Q1328 -8 1274 -4Q1217 0 1198 0Q1157 0 1135 -2Q1086 -6 1057 -6Q1026 -6 1026 10Q1026 24 1061
25Q1075 25 1092 28T1133 53T1157 115V252Q1157 262 1149 262H760Q735 262 735 283Q735 291 768 332L1139 768Q1233 879 1241 881Q1253 881 1256 877T1260 858Q1260 846 1259 823T1257 788V346Q1257 332 1266 332H1350Q1368 332 1392 338T1421 344Q1438 344 1438
332ZM1157 350V664Q1157 693 1149 692Q1145 692 1135 682L905 416Q852 355 852 342Q852 332 870 332H1147Q1157 332 1157 350Z" />
<glyph unicode="&#xbd;" glyph-name="onehalf" horiz-adv-x="1568" d="M471 575Q471 557 442 557Q401 557 360 563Q303 571 285 571Q240 571 162 563L156 562Q150 561 145 561Q131 559 96 559Q67 559 68 575Q68 590 92 594Q117 594 166 602Q223 610 223 829V1235Q223
1348 188 1348Q178 1348 137 1335Q92 1323 82 1323Q62 1323 61 1339Q61 1351 86 1362L125 1374Q203 1394 229 1405Q268 1419 297 1448Q309 1460 317 1460Q331 1460 332 1442Q332 1389 329 1278T326 1102V793Q326 643 344 625Q375 592 442 592Q471 591 471 575ZM1065
1538L403 -127Q395 -145 385 -145Q379 -145 369 -141L336 -127Q326 -123 326 -111Q326 -105 330 -92L985 1565Q991 1583 999 1583Q1001 1583 1014 1579L1059 1563Q1069 1559 1069 1553T1065 1538ZM1507 145Q1507 139 1497 104Q1491 81 1483 31L1481 16Q1479 -4
1456 -4H1423Q1357 -4 1325 -2Q1313 -2 1275 -1T1227 0Q1127 0 942 -12Q922 -12 922 6Q922 12 1004 94L1165 258Q1374 471 1374 610Q1374 696 1318 763T1163 831Q1089 831 1035 784T981 690Q981 676 969 676Q949 676 948 713V780Q948 786 946 797T944 813Q944 831
966 831T1020 844Q1118 883 1196 883Q1317 883 1407 802T1497 616Q1497 548 1459 479T1378 365T1247 233L1081 76Q1077 72 1077 66Q1077 64 1085 63H1327Q1415 63 1444 90Q1467 113 1479 143Q1485 157 1495 158Q1507 157 1507 145Z" />
<glyph unicode="&#xbe;" glyph-name="threequarters" horiz-adv-x="1562" d="M604 811Q604 686 513 619T289 551Q211 551 88 582Q68 590 68 606T65 658T61 715Q61 738 76 737Q86 737 90 730T96 712T100 696Q157 604 299 604Q393 604 442 655T492 774Q492 885 426
949T250 1014Q244 1014 238 1013T229 1012H213Q190 1012 190 1032Q190 1055 231 1055Q323 1055 377 1079Q477 1120 477 1245Q477 1313 420 1358T287 1403Q193 1403 137 1331Q125 1313 121 1291T102 1268Q86 1268 86 1284Q86 1319 88 1331Q88 1335 89 1349T90 1370Q90
1372 89 1378T88 1386V1403Q88 1417 102 1417L105 1416Q108 1415 111 1415H121Q150 1415 213 1434T313 1454Q415 1454 501 1396T588 1245Q588 1171 536 1121T422 1049Q485 1033 544 970T604 811ZM1130 1538L469 -127Q461 -145 451 -145Q445 -145 434 -141L401 -127Q391
-123 391 -111Q391 -105 395 -92L1051 1565Q1057 1583 1065 1583Q1067 1583 1079 1579L1124 1563Q1134 1559 1134 1553T1130 1538ZM1501 332Q1501 328 1493 309T1485 287Q1483 281 1482 274T1480 261T1477 251T1474 243T1471 237T1465 232T1460 231Q1454 231 1444
246T1413 262H1329Q1321 262 1321 254V133Q1321 27 1407 27Q1444 27 1444 10Q1444 -8 1409 -8Q1391 -8 1337 -4Q1280 0 1262 0Q1221 0 1198 -2Q1149 -6 1120 -6Q1089 -6 1090 10Q1090 24 1124 25Q1138 25 1156 28T1197 53T1221 115V252Q1221 262 1212 262H823Q798
262 799 283Q799 291 831 332L1202 768Q1296 879 1305 881Q1317 881 1320 877T1323 858Q1323 846 1322 823T1321 788V346Q1321 332 1329 332H1413Q1431 332 1456 338T1485 344Q1501 344 1501 332ZM1221 350V664Q1221 693 1212 692Q1208 692 1198 682L969 416Q916
355 915 342Q915 332 934 332H1210Q1221 332 1221 350Z" />
<glyph unicode="&#xbf;" glyph-name="questiondown" horiz-adv-x="694" d="M518 1329Q518 1284 491 1254T420 1223T351 1250T324 1321Q324 1368 350 1401T422 1434Q465 1434 491 1403T518 1329ZM633 106Q633 86 614 59Q553 -33 395 -33Q284 -33 204 42T123 227Q123
301 159 373T245 505T345 623T431 749T467 883Q467 914 437 940T406 977Q406 991 407 996T414 1005T432 1010Q471 1010 492 953T514 850Q514 791 476 712T394 566T312 408T274 240Q274 29 475 29Q508 29 531 44T564 78T586 113T614 129Q633 129 633 106Z" />
<glyph unicode="&#xc0;" glyph-name="Agrave" horiz-adv-x="1290" d="M1331 2Q1331 -8 1317 -8Q1284 -8 1219 -4T1120 0Q1093 0 1038 -3T956 -6Q919 -6 920 0Q920 8 932 11T961 15T983 18Q1028 32 1028 90Q1028 127 1004 201L907 457Q891 500 877 511T811 522H403Q356
522 343 514T313 463L227 229Q194 143 195 96Q195 45 233 23Q235 21 248 19T272 12T283 4Q283 -6 263 -6T191 -3T119 0Q94 0 53 -3T-12 -6Q-41 -6 -41 6Q-41 10 -30 13T-2 20T23 33Q80 88 188 367L535 1233Q549 1270 566 1316T595 1391T617 1450T637 1492T649 1505Q657
1505 676 1468Q694 1423 723 1338T766 1217L1157 184Q1184 114 1208 74T1274 18Q1331 4 1331 2ZM848 616Q848 641 741 918L678 1087Q633 1208 619 1208T573 1128L494 926Q492 918 460 839T402 689T375 610Q375 598 401 598H797Q848 598 848 616ZM801 1565Q801 1555
791 1554Q787 1554 776 1558T762 1563Q717 1577 635 1591T495 1613T428 1620Q418 1620 394 1607T360 1593Q350 1593 350 1603T407 1670T475 1726Q493 1726 625 1663T786 1581Q801 1571 801 1565Z" />
<glyph unicode="&#xc1;" glyph-name="Aacute" horiz-adv-x="1290" d="M1331 2Q1331 -8 1317 -8Q1284 -8 1219 -4T1120 0Q1093 0 1038 -3T956 -6Q919 -6 920 0Q920 8 932 11T961 15T983 18Q1028 32 1028 90Q1028 127 1004 201L907 457Q891 500 877 511T811 522H403Q356
522 343 514T313 463L227 229Q194 143 195 96Q195 45 233 23Q235 21 248 19T272 12T283 4Q283 -6 263 -6T191 -3T119 0Q94 0 53 -3T-12 -6Q-41 -6 -41 6Q-41 10 -30 13T-2 20T23 33Q80 88 188 367L535 1233Q549 1270 566 1316T595 1391T617 1450T637 1492T649 1505Q657
1505 676 1468Q694 1423 723 1338T766 1217L1157 184Q1184 114 1208 74T1274 18Q1331 4 1331 2ZM848 616Q848 641 741 918L678 1087Q633 1208 619 1208T573 1128L494 926Q492 918 460 839T402 689T375 610Q375 598 401 598H797Q848 598 848 616ZM915 1614T915 1604T905
1593Q897 1593 873 1606T838 1620Q830 1620 772 1613T631 1592T504 1563Q502 1563 491 1559T475 1554Q465 1554 465 1565Q465 1571 479 1581Q508 1599 640 1662T791 1726Q801 1726 858 1670Z" />
<glyph unicode="&#xc2;" glyph-name="Acircumflex" horiz-adv-x="1290" d="M1331 2Q1331 -8 1317 -8Q1284 -8 1219 -4T1120 0Q1093 0 1038 -3T956 -6Q919 -6 920 0Q920 8 932 11T961 15T983 18Q1028 32 1028 90Q1028 127 1004 201L907 457Q891 500 877 511T811
522H403Q356 522 343 514T313 463L227 229Q194 143 195 96Q195 45 233 23Q235 21 248 19T272 12T283 4Q283 -6 263 -6T191 -3T119 0Q94 0 53 -3T-12 -6Q-41 -6 -41 6Q-41 10 -30 13T-2 20T23 33Q80 88 188 367L535 1233Q549 1270 566 1316T595 1391T617 1450T637
1492T649 1505Q657 1505 676 1468Q694 1423 723 1338T766 1217L1157 184Q1184 114 1208 74T1274 18Q1331 4 1331 2ZM848 616Q848 641 741 918L678 1087Q633 1208 619 1208T573 1128L494 926Q492 918 460 839T402 689T375 610Q375 598 401 598H797Q848 598 848 616ZM938
1606Q938 1600 897 1567T846 1534Q838 1534 750 1590T657 1647Q649 1647 516 1573Q504 1567 490 1558T467 1543T455 1538Q439 1538 438 1548Q438 1564 465 1577Q496 1593 597 1656T713 1729Q725 1737 733 1737Q737 1737 764 1716Q774 1708 818 1679T890 1632T928
1614T938 1606Z" />
<glyph unicode="&#xc3;" glyph-name="Atilde" horiz-adv-x="1290" d="M1331 2Q1331 -8 1317 -8Q1284 -8 1219 -4T1120 0Q1093 0 1038 -3T956 -6Q919 -6 920 0Q920 8 932 11T961 15T983 18Q1028 32 1028 90Q1028 127 1004 201L907 457Q891 500 877 511T811 522H403Q356
522 343 514T313 463L227 229Q194 143 195 96Q195 45 233 23Q235 21 248 19T272 12T283 4Q283 -6 263 -6T191 -3T119 0Q94 0 53 -3T-12 -6Q-41 -6 -41 6Q-41 10 -30 13T-2 20T23 33Q80 88 188 367L535 1233Q549 1270 566 1316T595 1391T617 1450T637 1492T649 1505Q657
1505 676 1468Q694 1423 723 1338T766 1217L1157 184Q1184 114 1208 74T1274 18Q1331 4 1331 2ZM848 616Q848 641 741 918L678 1087Q633 1208 619 1208T573 1128L494 926Q492 918 460 839T402 689T375 610Q375 598 401 598H797Q848 598 848 616ZM924 1692Q936 1692
936 1673Q936 1644 890 1590T809 1536Q752 1536 684 1573T586 1610Q531 1610 481 1570T428 1530Q420 1530 420 1536Q420 1565 493 1628T608 1692Q667 1692 737 1654T821 1616Q854 1616 875 1635T908 1673T924 1692Z" />
<glyph unicode="&#xc4;" glyph-name="Adieresis" horiz-adv-x="1290" d="M1331 2Q1331 -8 1317 -8Q1284 -8 1219 -4T1120 0Q1093 0 1038 -3T956 -6Q919 -6 920 0Q920 8 932 11T961 15T983 18Q1028 32 1028 90Q1028 127 1004 201L907 457Q891 500 877 511T811 522H403Q356
522 343 514T313 463L227 229Q194 143 195 96Q195 45 233 23Q235 21 248 19T272 12T283 4Q283 -6 263 -6T191 -3T119 0Q94 0 53 -3T-12 -6Q-41 -6 -41 6Q-41 10 -30 13T-2 20T23 33Q80 88 188 367L535 1233Q549 1270 566 1316T595 1391T617 1450T637 1492T649 1505Q657
1505 676 1468Q694 1423 723 1338T766 1217L1157 184Q1184 114 1208 74T1274 18Q1331 4 1331 2ZM848 616Q848 641 741 918L678 1087Q633 1208 619 1208T573 1128L494 926Q492 918 460 839T402 689T375 610Q375 598 401 598H797Q848 598 848 616ZM922 1622Q922 1583
900 1559T838 1534Q801 1534 780 1556T758 1616Q758 1651 781 1674T839 1698T898 1678T922 1622ZM567 1622Q567 1583 545 1559T483 1534Q446 1534 425 1556T403 1616Q403 1651 427 1674T485 1698T543 1678T567 1622Z" />
<glyph unicode="&#xc5;" glyph-name="Aring" horiz-adv-x="1290" d="M1331 2Q1331 -8 1317 -8Q1284 -8 1219 -4T1120 0Q1093 0 1038 -3T956 -6Q919 -6 920 0Q920 8 932 11T961 15T983 18Q1028 32 1028 90Q1028 127 1004 201L907 457Q891 500 877 511T811 522H403Q356
522 343 514T313 463L227 229Q194 143 195 96Q195 45 233 23Q235 21 248 19T272 12T283 4Q283 -6 263 -6T191 -3T119 0Q94 0 53 -3T-12 -6Q-41 -6 -41 6Q-41 10 -30 13T-2 20T23 33Q80 88 188 367L535 1233Q549 1270 566 1316T595 1391T617 1450T637 1492T649 1505Q657
1505 676 1468Q694 1423 723 1338T766 1217L1157 184Q1184 114 1208 74T1274 18Q1331 4 1331 2ZM848 616Q848 641 741 918L678 1087Q633 1208 619 1208T573 1128L494 926Q492 918 460 839T402 689T375 610Q375 598 401 598H797Q848 598 848 616ZM836 1679Q836 1611
779 1574T649 1536Q586 1536 528 1574T469 1671Q469 1737 524 1774T647 1812T775 1777T836 1679ZM762 1679Q762 1724 729 1753T649 1782T573 1752T543 1675Q543 1632 574 1601T649 1569Q698 1569 730 1599T762 1679Z" />
<glyph unicode="&#xc6;" glyph-name="AE" horiz-adv-x="1669" d="M1546 1292Q1546 1280 1538 1280Q1532 1280 1522 1294Q1508 1323 1493 1333T1438 1354Q1391 1366 1321 1366H1073Q1053 1366 1046 1364T1033 1354T1028 1327V844Q1028 819 1033 811T1063 803H1296Q1390
803 1415 825Q1435 841 1442 864Q1452 907 1458 907Q1468 907 1468 868Q1468 852 1465 822T1462 776Q1462 751 1464 703T1466 631Q1466 611 1458 610Q1454 610 1451 617T1447 636T1446 649Q1440 665 1425 684Q1402 713 1323 713H1059Q1039 713 1034 706T1028 676V197Q1028
144 1057 117Q1100 78 1257 78Q1439 78 1493 152Q1495 156 1498 161T1504 171T1510 179T1518 182Q1526 182 1526 174Q1526 154 1503 87T1466 8Q1452 -6 1415 -6Q1345 -6 1207 -3T999 0Q962 0 887 -3T774 -6Q735 -6 735 4Q735 10 750 13T785 17T809 20Q854 32 870
70Q890 127 897 522H492Q449 522 435 512T395 463L248 229Q174 114 174 70Q174 43 199 23Q203 19 214 17T233 11T242 4Q242 -4 219 -4Q199 -4 158 -2T96 0Q69 0 19 -2T-55 -4Q-82 -4 -82 6Q-82 12 -78 12Q-74 14 -63 15T-38 20T-10 33Q53 76 121 176L891 1337Q891
1378 861 1400T784 1423H774Q754 1423 754 1433T774 1444H797Q832 1442 880 1438T950 1434Q1030 1434 1191 1439T1432 1444Q1450 1444 1485 1446T1536 1448Q1544 1448 1544 1434Q1544 1428 1543 1416T1542 1399Q1542 1381 1544 1346T1546 1292ZM496 606Q496 598
520 598H897V1225Q496 622 496 606Z" />
<glyph unicode="&#xc7;" glyph-name="Ccedilla" horiz-adv-x="1460" d="M1069 -246Q1069 -295 1033 -338T929 -411T821 -456T719 -489Q670 -505 655 -506Q639 -506 639 -492Q639 -482 676 -469Q955 -373 954 -268Q954 -178 813 -178Q790 -178 791 -162L874 -33H844Q484
-33 283 168T82 731Q82 883 135 1024Q215 1241 383 1353T786 1466Q962 1466 1108 1436Q1116 1434 1192 1415T1286 1395Q1292 1395 1298 1400T1309 1405Q1315 1405 1315 1382Q1315 1368 1312 1341T1309 1298Q1309 1278 1312 1239T1315 1180Q1315 1149 1307 1149T1294
1155T1285 1178T1274 1208Q1260 1239 1221 1278Q1076 1405 743 1405Q491 1405 362 1228T233 786Q233 585 311 415T544 136T903 27Q1077 27 1206 119Q1267 164 1284 205Q1300 256 1308 256T1317 231Q1317 204 1303 139T1286 66Q1282 39 1274 34Q1270 32 1262 29Q1133
-20 930 -31L854 -133Q1069 -133 1069 -246Z" />
<glyph unicode="&#xc8;" glyph-name="Egrave" horiz-adv-x="1110" d="M956 1292Q956 1280 948 1280Q942 1280 932 1294Q918 1323 903 1333T848 1354Q801 1366 731 1366H483Q463 1366 456 1364T444 1354T438 1327V844Q438 819 443 811T473 803H707Q801 803 825
825Q845 841 852 864Q862 907 868 907Q878 907 879 868Q879 852 876 822T872 776Q872 751 874 703T877 631Q877 611 868 610Q864 610 861 617T857 636T856 649Q850 665 836 684Q813 713 733 713H469Q449 713 444 706T438 676V197Q438 144 467 117Q510 78 668 78Q891
78 944 152Q946 156 949 161T955 171T961 179T969 182Q977 182 977 174Q977 154 954 87T918 8Q904 -6 866 -6Q796 -6 638 -3T410 0Q373 0 297 -3T184 -6Q145 -6 145 4Q145 12 180 16Q262 24 281 70Q308 142 307 584V1278Q307 1425 182 1425Q164 1425 164 1434Q164
1444 184 1444Q213 1444 272 1439T360 1434Q440 1434 601 1439T842 1444Q860 1444 895 1446T946 1448Q954 1448 954 1434Q954 1428 953 1416T952 1399Q952 1381 954 1346T956 1292ZM780 1544Q780 1534 770 1534Q766 1534 755 1538T741 1542Q696 1556 614 1570T474
1592T408 1599Q398 1599 373 1586T340 1573Q330 1573 330 1583T387 1649T455 1706Q473 1706 605 1643T766 1561Q780 1550 780 1544Z" />
<glyph unicode="&#xc9;" glyph-name="Eacute" horiz-adv-x="1110" d="M956 1292Q956 1280 948 1280Q942 1280 932 1294Q918 1323 903 1333T848 1354Q801 1366 731 1366H483Q463 1366 456 1364T444 1354T438 1327V844Q438 819 443 811T473 803H707Q801 803 825
825Q845 841 852 864Q862 907 868 907Q878 907 879 868Q879 852 876 822T872 776Q872 751 874 703T877 631Q877 611 868 610Q864 610 861 617T857 636T856 649Q850 665 836 684Q813 713 733 713H469Q449 713 444 706T438 676V197Q438 144 467 117Q510 78 668 78Q891
78 944 152Q946 156 949 161T955 171T961 179T969 182Q977 182 977 174Q977 154 954 87T918 8Q904 -6 866 -6Q796 -6 638 -3T410 0Q373 0 297 -3T184 -6Q145 -6 145 4Q145 12 180 16Q262 24 281 70Q308 142 307 584V1278Q307 1425 182 1425Q164 1425 164 1434Q164
1444 184 1444Q213 1444 272 1439T360 1434Q440 1434 601 1439T842 1444Q860 1444 895 1446T946 1448Q954 1448 954 1434Q954 1428 953 1416T952 1399Q952 1381 954 1346T956 1292ZM836 1593T836 1583T825 1573Q817 1573 793 1586T758 1599Q750 1599 692 1592T551
1571T424 1542Q422 1542 411 1538T395 1534Q385 1534 385 1544Q385 1550 399 1561Q426 1579 559 1642T711 1706Q721 1706 778 1650Z" />
<glyph unicode="&#xca;" glyph-name="Ecircumflex" horiz-adv-x="1110" d="M956 1292Q956 1280 948 1280Q942 1280 932 1294Q918 1323 903 1333T848 1354Q801 1366 731 1366H483Q463 1366 456 1364T444 1354T438 1327V844Q438 819 443 811T473 803H707Q801 803
825 825Q845 841 852 864Q862 907 868 907Q878 907 879 868Q879 852 876 822T872 776Q872 751 874 703T877 631Q877 611 868 610Q864 610 861 617T857 636T856 649Q850 665 836 684Q813 713 733 713H469Q449 713 444 706T438 676V197Q438 144 467 117Q510 78 668
78Q891 78 944 152Q946 156 949 161T955 171T961 179T969 182Q977 182 977 174Q977 154 954 87T918 8Q904 -6 866 -6Q796 -6 638 -3T410 0Q373 0 297 -3T184 -6Q145 -6 145 4Q145 12 180 16Q262 24 281 70Q308 142 307 584V1278Q307 1425 182 1425Q164 1425 164
1434Q164 1444 184 1444Q213 1444 272 1439T360 1434Q440 1434 601 1439T842 1444Q860 1444 895 1446T946 1448Q954 1448 954 1434Q954 1428 953 1416T952 1399Q952 1381 954 1346T956 1292ZM834 1606Q834 1600 793 1567T741 1534Q733 1534 645 1590T553 1647Q545
1647 412 1573Q400 1567 386 1558T363 1543T350 1538Q334 1538 334 1548Q334 1564 360 1577Q391 1593 492 1656T608 1729Q620 1737 629 1737Q633 1737 659 1716Q669 1708 713 1679T785 1632T823 1614T834 1606Z" />
<glyph unicode="&#xcb;" glyph-name="Edieresis" horiz-adv-x="1110" d="M956 1292Q956 1280 948 1280Q942 1280 932 1294Q918 1323 903 1333T848 1354Q801 1366 731 1366H483Q463 1366 456 1364T444 1354T438 1327V844Q438 819 443 811T473 803H707Q801 803 825
825Q845 841 852 864Q862 907 868 907Q878 907 879 868Q879 852 876 822T872 776Q872 751 874 703T877 631Q877 611 868 610Q864 610 861 617T857 636T856 649Q850 665 836 684Q813 713 733 713H469Q449 713 444 706T438 676V197Q438 144 467 117Q510 78 668 78Q891
78 944 152Q946 156 949 161T955 171T961 179T969 182Q977 182 977 174Q977 154 954 87T918 8Q904 -6 866 -6Q796 -6 638 -3T410 0Q373 0 297 -3T184 -6Q145 -6 145 4Q145 12 180 16Q262 24 281 70Q308 142 307 584V1278Q307 1425 182 1425Q164 1425 164 1434Q164
1444 184 1444Q213 1444 272 1439T360 1434Q440 1434 601 1439T842 1444Q860 1444 895 1446T946 1448Q954 1448 954 1434Q954 1428 953 1416T952 1399Q952 1381 954 1346T956 1292ZM840 1622Q840 1583 818 1559T756 1534Q719 1534 698 1556T676 1616Q676 1651 699
1674T758 1698T816 1678T840 1622ZM485 1622Q485 1583 463 1559T401 1534Q364 1534 343 1556T322 1616Q322 1651 345 1674T403 1698T461 1678T485 1622Z" />
<glyph unicode="&#xcc;" glyph-name="Igrave" horiz-adv-x="741" d="M604 2Q604 -8 588 -8Q557 -8 494 -4T398 0T297 -2T195 -4Q168 -4 168 6T195 16Q242 16 268 47Q307 92 307 250V1249Q307 1329 284 1369T195 1417Q156 1421 156 1433T190 1446Q217 1446 268
1440T346 1434Q377 1434 439 1441T532 1448Q571 1448 571 1436Q571 1432 556 1427T519 1415T487 1403Q438 1372 438 1243V287Q438 213 441 172T458 89T504 31Q518 23 544 19T587 11T604 2ZM541 1544Q541 1534 530 1534Q526 1534 515 1538T502 1542Q457 1556 375
1570T235 1592T168 1599Q158 1599 134 1586T100 1573Q90 1573 90 1583T147 1649T215 1706Q233 1706 366 1643T526 1561Q541 1550 541 1544Z" />
<glyph unicode="&#xcd;" glyph-name="Iacute" horiz-adv-x="741" d="M604 2Q604 -8 588 -8Q557 -8 494 -4T398 0T297 -2T195 -4Q168 -4 168 6T195 16Q242 16 268 47Q307 92 307 250V1249Q307 1329 284 1369T195 1417Q156 1421 156 1433T190 1446Q217 1446 268
1440T346 1434Q377 1434 439 1441T532 1448Q571 1448 571 1436Q571 1432 556 1427T519 1415T487 1403Q438 1372 438 1243V287Q438 213 441 172T458 89T504 31Q518 23 544 19T587 11T604 2ZM596 1589T596 1579T586 1569Q578 1569 553 1582T518 1595Q510 1595 452
1588T311 1567T184 1538Q182 1538 171 1534T156 1530Q146 1530 145 1540Q145 1546 160 1556Q189 1574 321 1638T471 1702Q481 1702 538 1646Z" />
<glyph unicode="&#xce;" glyph-name="Icircumflex" horiz-adv-x="741" d="M604 2Q604 -8 588 -8Q557 -8 494 -4T398 0T297 -2T195 -4Q168 -4 168 6T195 16Q242 16 268 47Q307 92 307 250V1249Q307 1329 284 1369T195 1417Q156 1421 156 1433T190 1446Q217 1446
268 1440T346 1434Q377 1434 439 1441T532 1448Q571 1448 571 1436Q571 1432 556 1427T519 1415T487 1403Q438 1372 438 1243V287Q438 213 441 172T458 89T504 31Q518 23 544 19T587 11T604 2ZM631 1606Q631 1600 590 1567T539 1534Q531 1534 443 1590T350 1647Q342
1647 209 1573Q197 1567 183 1558T160 1543T147 1538Q131 1538 131 1548Q131 1564 158 1577Q189 1593 290 1656T406 1729Q418 1737 426 1737Q430 1737 457 1716Q467 1708 511 1679T582 1632T620 1614T631 1606Z" />
<glyph unicode="&#xcf;" glyph-name="Idieresis" horiz-adv-x="741" d="M604 2Q604 -8 588 -8Q557 -8 494 -4T398 0T297 -2T195 -4Q168 -4 168 6T195 16Q242 16 268 47Q307 92 307 250V1249Q307 1329 284 1369T195 1417Q156 1421 156 1433T190 1446Q217 1446 268
1440T346 1434Q377 1434 439 1441T532 1448Q571 1448 571 1436Q571 1432 556 1427T519 1415T487 1403Q438 1372 438 1243V287Q438 213 441 172T458 89T504 31Q518 23 544 19T587 11T604 2ZM637 1622Q637 1583 615 1559T553 1534Q516 1534 495 1556T473 1616Q473
1651 496 1674T555 1698T613 1678T637 1622ZM283 1622Q283 1583 261 1559T199 1534Q162 1534 141 1556T119 1616Q119 1651 142 1674T201 1698T259 1678T283 1622Z" />
<glyph unicode="&#xd0;" glyph-name="Eth" horiz-adv-x="1622" d="M1540 748Q1540 398 1345 191T799 -16Q729 -16 588 -8T377 0Q344 0 279 -4T180 -8Q151 -8 152 4Q152 8 160 11T180 15T195 16Q263 28 281 63Q310 114 309 315V668Q309 693 302 697T268 702H186Q149
702 150 717Q150 719 152 725T158 744T166 774Q168 786 174 788T203 791H268Q295 791 302 798T309 831V1257Q309 1415 180 1415Q160 1415 160 1427Q160 1441 211 1442Q238 1442 290 1438T369 1434Q443 1434 589 1441T809 1448Q1059 1448 1210 1364Q1368 1276 1454
1107T1540 748ZM457 168L455 186Q455 184 456 178T457 168ZM455 186L457 168Q463 133 471 123T510 96Q625 39 827 39Q1405 39 1405 690Q1405 880 1315 1052T1063 1313Q920 1391 715 1391Q629 1391 563 1389Q553 1389 531 1388T502 1385T481 1382T461 1374T451 1359T442
1336T440 1300V829Q440 804 448 798T481 791H856Q891 791 891 780Q891 774 877 729Q869 702 846 702H481Q454 702 447 696T440 662V469Q441 295 455 186Z" />
<glyph unicode="&#xd1;" glyph-name="Ntilde" horiz-adv-x="1740" d="M1651 1436Q1651 1432 1640 1428T1610 1418T1579 1407Q1540 1384 1540 1135V29Q1540 -41 1528 -41Q1518 -41 1496 -22T1446 28T1417 61L436 1126Q399 1167 393 1167Q385 1167 385 1114V244Q385
82 444 37Q467 21 496 14Q529 8 528 2Q528 -10 489 -10Q462 -10 417 -5T344 0Q319 0 266 -3T188 -6Q155 -6 156 4Q156 8 170 11T205 17T238 29Q287 64 287 250V1106L286 1239Q285 1372 285 1384Q285 1456 303 1456Q309 1456 321 1447T344 1428T366 1404T381 1389L1405
272Q1430 247 1436 248Q1446 248 1446 301L1434 1122Q1434 1339 1399 1386Q1387 1404 1363 1413T1322 1427T1305 1438Q1305 1448 1323 1448Q1348 1448 1397 1441T1472 1434T1548 1439T1624 1444T1651 1436ZM1114 1692Q1126 1692 1126 1673Q1126 1644 1080 1590T999
1536Q942 1536 875 1573T776 1610Q721 1610 671 1570T618 1530Q610 1530 610 1536Q610 1565 684 1628T799 1692Q858 1692 927 1654T1012 1616Q1045 1616 1066 1635T1098 1673T1114 1692Z" />
<glyph unicode="&#xd2;" glyph-name="Ograve" horiz-adv-x="1576" d="M1495 748Q1495 412 1320 190T817 -33Q487 -33 285 171T82 705Q82 836 104 926Q161 1162 338 1314T756 1466Q924 1466 1032 1430Q1245 1354 1370 1166T1495 748ZM1352 590Q1352 731 1317 869T1215
1130T1028 1329T758 1405Q500 1405 367 1227T233 782Q233 596 297 428T503 145T836 29Q1082 29 1217 184T1352 590ZM956 1544Q956 1534 946 1534Q942 1534 931 1538T918 1542Q873 1556 791 1570T651 1592T584 1599Q574 1599 549 1586T516 1573Q506 1573 506 1583T563
1649T631 1706Q649 1706 781 1643T942 1561Q956 1550 956 1544Z" />
<glyph unicode="&#xd3;" glyph-name="Oacute" horiz-adv-x="1576" d="M1495 748Q1495 412 1320 190T817 -33Q487 -33 285 171T82 705Q82 836 104 926Q161 1162 338 1314T756 1466Q924 1466 1032 1430Q1245 1354 1370 1166T1495 748ZM1352 590Q1352 731 1317 869T1215
1130T1028 1329T758 1405Q500 1405 367 1227T233 782Q233 596 297 428T503 145T836 29Q1082 29 1217 184T1352 590ZM1044 1593T1044 1583T1034 1573Q1026 1573 1002 1586T967 1599Q959 1599 901 1592T760 1571T633 1542Q631 1542 620 1538T604 1534Q594 1534 594
1544Q594 1550 608 1561Q635 1579 768 1642T920 1706Q930 1706 987 1650Z" />
<glyph unicode="&#xd4;" glyph-name="Ocircumflex" horiz-adv-x="1576" d="M1495 748Q1495 412 1320 190T817 -33Q487 -33 285 171T82 705Q82 836 104 926Q161 1162 338 1314T756 1466Q924 1466 1032 1430Q1245 1354 1370 1166T1495 748ZM1352 590Q1352 731 1317
869T1215 1130T1028 1329T758 1405Q500 1405 367 1227T233 782Q233 596 297 428T503 145T836 29Q1082 29 1217 184T1352 590ZM1047 1606Q1047 1600 1006 1567T954 1534Q946 1534 858 1590T766 1647Q758 1647 625 1573Q613 1567 599 1558T576 1543T563 1538Q547
1538 547 1548Q547 1564 573 1577Q604 1593 705 1656T821 1729Q833 1737 842 1737Q846 1737 872 1716Q882 1708 926 1679T998 1632T1036 1614T1047 1606Z" />
<glyph unicode="&#xd5;" glyph-name="Otilde" horiz-adv-x="1576" d="M1495 748Q1495 412 1320 190T817 -33Q487 -33 285 171T82 705Q82 836 104 926Q161 1162 338 1314T756 1466Q924 1466 1032 1430Q1245 1354 1370 1166T1495 748ZM1352 590Q1352 731 1317 869T1215
1130T1028 1329T758 1405Q500 1405 367 1227T233 782Q233 596 297 428T503 145T836 29Q1082 29 1217 184T1352 590ZM1014 1692Q1026 1692 1026 1673Q1026 1644 980 1590T899 1536Q842 1536 775 1573T676 1610Q621 1610 571 1570T518 1530Q510 1530 510 1536Q510
1565 583 1628T698 1692Q757 1692 827 1654T911 1616Q944 1616 965 1635T998 1673T1014 1692Z" />
<glyph unicode="&#xd6;" glyph-name="Odieresis" horiz-adv-x="1576" d="M1495 748Q1495 412 1320 190T817 -33Q487 -33 285 171T82 705Q82 836 104 926Q161 1162 338 1314T756 1466Q924 1466 1032 1430Q1245 1354 1370 1166T1495 748ZM1352 590Q1352 731 1317
869T1215 1130T1028 1329T758 1405Q500 1405 367 1227T233 782Q233 596 297 428T503 145T836 29Q1082 29 1217 184T1352 590ZM1028 1622Q1028 1583 1006 1559T944 1534Q907 1534 886 1556T864 1616Q864 1651 887 1674T946 1698T1004 1678T1028 1622ZM674 1622Q674
1583 652 1559T590 1534Q553 1534 532 1556T510 1616Q510 1651 533 1674T592 1698T650 1678T674 1622Z" />
<glyph unicode="&#xd7;" glyph-name="multiply" horiz-adv-x="970" d="M104 1034L174 1106L483 786L795 1106L868 1034L557 715L868 399L797 328L485 645L176 328L102 399L414 715L104 1034Z" />
<glyph unicode="&#xd8;" glyph-name="Oslash" horiz-adv-x="1576" d="M338 119L231 -16Q217 -36 207 -37Q199 -37 190 -29L160 -4Q146 6 146 12T164 41L274 178Q81 383 82 705Q82 838 104 926Q165 1164 340 1315T756 1466Q897 1466 996 1441T1198 1341L1272 1436Q1286
1454 1292 1454Q1296 1454 1303 1450L1337 1423Q1349 1413 1350 1409Q1350 1401 1343 1395L1262 1292Q1375 1190 1435 1048T1495 748Q1495 531 1423 358T1194 76T817 -33Q526 -33 338 119ZM1124 1249Q972 1405 758 1405Q500 1405 359 1230T217 791Q217 666 257
532T365 293L1124 1249ZM1352 590Q1352 748 1308 907T1178 1186L418 221Q586 28 836 29Q1082 29 1217 184T1352 590Z" />
<glyph unicode="&#xd9;" glyph-name="Ugrave" horiz-adv-x="1619" d="M1559 1425Q1559 1415 1534 1415Q1495 1415 1470 1396T1433 1335T1418 1254T1415 1149V596Q1415 305 1256 136T805 -33Q531 -33 373 108T215 512V1233Q215 1358 195 1380Q183 1394 154 1403T104
1417T82 1427Q82 1441 109 1442Q140 1442 199 1438T289 1434Q324 1434 391 1439T492 1444Q508 1444 508 1436Q508 1430 495 1425T463 1414T440 1407Q383 1378 369 1315T354 1053V545Q354 303 480 166T823 29Q1042 29 1184 163T1327 545V881Q1327 1024 1309 1264Q1305
1340 1288 1368T1206 1409Q1145 1419 1145 1425Q1145 1441 1180 1442Q1213 1442 1274 1438T1368 1434Q1397 1434 1452 1436T1536 1438Q1559 1437 1559 1425ZM1020 1544Q1020 1534 1010 1534Q1006 1534 995 1538T981 1542Q936 1556 854 1570T714 1592T647 1599Q637
1599 613 1586T580 1573Q570 1573 570 1583T626 1649T694 1706Q712 1706 845 1643T1006 1561Q1020 1550 1020 1544Z" />
<glyph unicode="&#xda;" glyph-name="Uacute" horiz-adv-x="1619" d="M1559 1425Q1559 1415 1534 1415Q1495 1415 1470 1396T1433 1335T1418 1254T1415 1149V596Q1415 305 1256 136T805 -33Q531 -33 373 108T215 512V1233Q215 1358 195 1380Q183 1394 154 1403T104
1417T82 1427Q82 1441 109 1442Q140 1442 199 1438T289 1434Q324 1434 391 1439T492 1444Q508 1444 508 1436Q508 1430 495 1425T463 1414T440 1407Q383 1378 369 1315T354 1053V545Q354 303 480 166T823 29Q1042 29 1184 163T1327 545V881Q1327 1024 1309 1264Q1305
1340 1288 1368T1206 1409Q1145 1419 1145 1425Q1145 1441 1180 1442Q1213 1442 1274 1438T1368 1434Q1397 1434 1452 1436T1536 1438Q1559 1437 1559 1425ZM1051 1593T1051 1583T1040 1573Q1032 1573 1008 1586T973 1599Q965 1599 907 1592T766 1571T639 1542Q637
1542 626 1538T610 1534Q600 1534 600 1544Q600 1550 614 1561Q643 1579 775 1642T926 1706Q936 1706 993 1650Z" />
<glyph unicode="&#xdb;" glyph-name="Ucircumflex" horiz-adv-x="1619" d="M1559 1425Q1559 1415 1534 1415Q1495 1415 1470 1396T1433 1335T1418 1254T1415 1149V596Q1415 305 1256 136T805 -33Q531 -33 373 108T215 512V1233Q215 1358 195 1380Q183 1394 154
1403T104 1417T82 1427Q82 1441 109 1442Q140 1442 199 1438T289 1434Q324 1434 391 1439T492 1444Q508 1444 508 1436Q508 1430 495 1425T463 1414T440 1407Q383 1378 369 1315T354 1053V545Q354 303 480 166T823 29Q1042 29 1184 163T1327 545V881Q1327 1024
1309 1264Q1305 1340 1288 1368T1206 1409Q1145 1419 1145 1425Q1145 1441 1180 1442Q1213 1442 1274 1438T1368 1434Q1397 1434 1452 1436T1536 1438Q1559 1437 1559 1425ZM1075 1606Q1075 1600 1034 1567T983 1534Q975 1534 887 1590T795 1647Q787 1647 653 1573Q641
1567 627 1558T604 1543T592 1538Q576 1538 575 1548Q575 1564 602 1577Q633 1593 734 1656T850 1729Q862 1737 870 1737Q874 1737 901 1716Q911 1708 955 1679T1027 1632T1065 1614T1075 1606Z" />
<glyph unicode="&#xdc;" glyph-name="Udieresis" horiz-adv-x="1619" d="M1559 1425Q1559 1415 1534 1415Q1495 1415 1470 1396T1433 1335T1418 1254T1415 1149V596Q1415 305 1256 136T805 -33Q531 -33 373 108T215 512V1233Q215 1358 195 1380Q183 1394 154 1403T104
1417T82 1427Q82 1441 109 1442Q140 1442 199 1438T289 1434Q324 1434 391 1439T492 1444Q508 1444 508 1436Q508 1430 495 1425T463 1414T440 1407Q383 1378 369 1315T354 1053V545Q354 303 480 166T823 29Q1042 29 1184 163T1327 545V881Q1327 1024 1309 1264Q1305
1340 1288 1368T1206 1409Q1145 1419 1145 1425Q1145 1441 1180 1442Q1213 1442 1274 1438T1368 1434Q1397 1434 1452 1436T1536 1438Q1559 1437 1559 1425ZM1092 1622Q1092 1583 1070 1559T1008 1534Q971 1534 950 1556T928 1616Q928 1651 951 1674T1009 1698T1068
1678T1092 1622ZM737 1622Q737 1583 715 1559T653 1534Q616 1534 595 1556T573 1616Q573 1651 597 1674T655 1698T713 1678T737 1622Z" />
<glyph unicode="&#xdd;" glyph-name="Yacute" horiz-adv-x="1318" d="M1339 1432Q1339 1426 1321 1425Q1290 1425 1255 1413Q1187 1388 1053 1174L780 743Q723 663 723 625V174Q723 106 762 61Q791 28 840 12Q844 10 858 9T881 6T891 0Q891 -10 850 -10Q819 -10
759 -5T668 0Q639 0 584 -5T502 -10Q459 -10 459 -2T479 6Q493 6 506 10Q592 45 592 209V616Q592 647 555 698L147 1311Q100 1377 53 1399Q39 1405 -35 1421Q-62 1421 -61 1432Q-61 1446 -10 1446Q17 1446 73 1440T158 1434Q185 1434 237 1441T313 1448Q356 1448
356 1440Q356 1438 324 1426T291 1393Q291 1346 334 1278L612 836Q663 756 676 756Q690 756 725 811L961 1182Q1047 1317 1047 1391Q1047 1409 1031 1421L1016 1434Q1016 1442 1032 1442Q1046 1442 1076 1438T1120 1434Q1147 1434 1200 1441T1282 1448Q1339 1448
1339 1432ZM952 1593T952 1583T942 1573Q934 1573 910 1586T874 1599Q866 1599 808 1592T668 1571T541 1542Q539 1542 528 1538T512 1534Q502 1534 502 1544Q502 1550 516 1561Q545 1579 677 1642T827 1706Q837 1706 894 1650Z" />
<glyph unicode="&#xde;" glyph-name="Thorn" horiz-adv-x="1189" d="M1108 793Q1108 607 1004 471T719 334Q692 334 639 342T586 362Q586 368 592 369Q608 369 640 363T688 356Q768 356 835 406T934 532Q959 593 958 698Q958 1114 567 1114Q506 1114 477 1110Q438
1106 438 879V467Q438 373 446 225T471 55Q512 8 584 8Q604 8 604 -2Q604 -14 555 -14Q520 -14 455 -7T354 0Q327 0 274 -5T195 -10Q166 -10 166 -2Q166 2 172 5T186 9T197 10Q244 18 274 57Q307 102 307 285V1274Q307 1376 246 1411Q238 1415 223 1419T196 1425T184
1432Q184 1442 199 1442Q230 1442 287 1438T375 1434Q402 1434 455 1441T535 1448Q570 1448 569 1434Q569 1432 565 1427Q555 1421 526 1416T477 1397Q467 1389 461 1380T451 1356T443 1330T439 1301T438 1274T438 1246T438 1223Q438 1172 477 1171Q504 1171 558
1174T639 1178Q768 1178 856 1145Q973 1102 1040 1009T1108 793Z" />
<glyph unicode="&#xdf;" glyph-name="germandbls" horiz-adv-x="1945" d="M1843 397Q1843 190 1663 53Q1548 -33 1397 -33Q1229 -33 1106 16Q1077 28 1077 41Q1077 66 1076 116T1075 190Q1075 280 1087 281Q1089 281 1091 279T1096 264T1100 238T1102 219Q1106
199 1114 182Q1186 28 1425 29Q1540 29 1606 76Q1663 115 1701 184T1739 324Q1739 480 1532 608L1313 745Q1213 806 1158 903T1102 1116Q1102 1206 1146 1289T1266 1415Q1356 1466 1505 1466Q1560 1466 1671 1450Q1757 1438 1763 1438Q1783 1438 1793 1443T1808
1448Q1814 1448 1814 1440T1810 1415T1804 1389Q1804 1373 1806 1341T1808 1292Q1808 1194 1790 1194Q1786 1194 1783 1205T1778 1232T1776 1249Q1764 1294 1720 1335Q1679 1370 1607 1390T1473 1411Q1360 1411 1282 1348T1204 1176Q1204 1000 1415 868L1626 735Q1737
665 1790 590T1843 397ZM870 397Q870 190 690 53Q575 -33 424 -33Q256 -33 133 16Q104 28 104 41Q104 66 103 116T102 190Q102 280 115 281Q117 281 119 279T123 264T127 238T129 219Q133 199 141 182Q213 28 453 29Q568 29 633 76Q690 115 728 184T766 324Q766
480 559 608L340 745Q240 806 185 903T129 1116Q129 1206 173 1289T293 1415Q383 1466 532 1466Q587 1466 698 1450Q784 1438 791 1438Q811 1438 821 1443T836 1448Q842 1448 842 1440T837 1415T831 1389Q831 1373 833 1341T836 1292Q836 1194 817 1194Q813 1194
810 1205T805 1232T803 1249Q791 1294 748 1335Q707 1370 634 1390T500 1411Q387 1411 309 1348T231 1176Q231 1000 442 868L653 735Q764 665 817 590T870 397Z" />
<glyph unicode="&#xe0;" glyph-name="agrave" horiz-adv-x="1290" d="M1331 2Q1331 -8 1317 -8Q1284 -8 1219 -4T1120 0Q1093 0 1038 -3T956 -6Q919 -6 920 0Q920 8 932 11T961 15T983 18Q1028 32 1028 90Q1028 127 1004 201L907 457Q891 500 877 511T811 522H403Q356
522 343 514T313 463L227 229Q194 143 195 96Q195 45 233 23Q235 21 248 19T272 12T283 4Q283 -6 263 -6T191 -3T119 0Q94 0 53 -3T-12 -6Q-41 -6 -41 6Q-41 10 -30 13T-2 20T23 33Q80 88 188 367L535 1233Q549 1270 566 1316T595 1391T617 1450T637 1492T649 1505Q657
1505 676 1468Q694 1423 723 1338T766 1217L1157 184Q1184 114 1208 74T1274 18Q1331 4 1331 2ZM848 616Q848 641 741 918L678 1087Q633 1208 619 1208T573 1128L494 926Q492 918 460 839T402 689T375 610Q375 598 401 598H797Q848 598 848 616ZM801 1565Q801 1555
791 1554Q787 1554 776 1558T762 1563Q717 1577 635 1591T495 1613T428 1620Q418 1620 394 1607T360 1593Q350 1593 350 1603T407 1670T475 1726Q493 1726 625 1663T786 1581Q801 1571 801 1565Z" />
<glyph unicode="&#xe1;" glyph-name="aacute" horiz-adv-x="1290" d="M1331 2Q1331 -8 1317 -8Q1284 -8 1219 -4T1120 0Q1093 0 1038 -3T956 -6Q919 -6 920 0Q920 8 932 11T961 15T983 18Q1028 32 1028 90Q1028 127 1004 201L907 457Q891 500 877 511T811 522H403Q356
522 343 514T313 463L227 229Q194 143 195 96Q195 45 233 23Q235 21 248 19T272 12T283 4Q283 -6 263 -6T191 -3T119 0Q94 0 53 -3T-12 -6Q-41 -6 -41 6Q-41 10 -30 13T-2 20T23 33Q80 88 188 367L535 1233Q549 1270 566 1316T595 1391T617 1450T637 1492T649 1505Q657
1505 676 1468Q694 1423 723 1338T766 1217L1157 184Q1184 114 1208 74T1274 18Q1331 4 1331 2ZM848 616Q848 641 741 918L678 1087Q633 1208 619 1208T573 1128L494 926Q492 918 460 839T402 689T375 610Q375 598 401 598H797Q848 598 848 616ZM915 1614T915 1604T905
1593Q897 1593 873 1606T838 1620Q830 1620 772 1613T631 1592T504 1563Q502 1563 491 1559T475 1554Q465 1554 465 1565Q465 1571 479 1581Q508 1599 640 1662T791 1726Q801 1726 858 1670Z" />
<glyph unicode="&#xe2;" glyph-name="acircumflex" horiz-adv-x="1290" d="M1331 2Q1331 -8 1317 -8Q1284 -8 1219 -4T1120 0Q1093 0 1038 -3T956 -6Q919 -6 920 0Q920 8 932 11T961 15T983 18Q1028 32 1028 90Q1028 127 1004 201L907 457Q891 500 877 511T811
522H403Q356 522 343 514T313 463L227 229Q194 143 195 96Q195 45 233 23Q235 21 248 19T272 12T283 4Q283 -6 263 -6T191 -3T119 0Q94 0 53 -3T-12 -6Q-41 -6 -41 6Q-41 10 -30 13T-2 20T23 33Q80 88 188 367L535 1233Q549 1270 566 1316T595 1391T617 1450T637
1492T649 1505Q657 1505 676 1468Q694 1423 723 1338T766 1217L1157 184Q1184 114 1208 74T1274 18Q1331 4 1331 2ZM848 616Q848 641 741 918L678 1087Q633 1208 619 1208T573 1128L494 926Q492 918 460 839T402 689T375 610Q375 598 401 598H797Q848 598 848 616ZM938
1606Q938 1600 897 1567T846 1534Q838 1534 750 1590T657 1647Q649 1647 516 1573Q504 1567 490 1558T467 1543T455 1538Q439 1538 438 1548Q438 1564 465 1577Q496 1593 597 1656T713 1729Q725 1737 733 1737Q737 1737 764 1716Q774 1708 818 1679T890 1632T928
1614T938 1606Z" />
<glyph unicode="&#xe3;" glyph-name="atilde" horiz-adv-x="1290" d="M1331 2Q1331 -8 1317 -8Q1284 -8 1219 -4T1120 0Q1093 0 1038 -3T956 -6Q919 -6 920 0Q920 8 932 11T961 15T983 18Q1028 32 1028 90Q1028 127 1004 201L907 457Q891 500 877 511T811 522H403Q356
522 343 514T313 463L227 229Q194 143 195 96Q195 45 233 23Q235 21 248 19T272 12T283 4Q283 -6 263 -6T191 -3T119 0Q94 0 53 -3T-12 -6Q-41 -6 -41 6Q-41 10 -30 13T-2 20T23 33Q80 88 188 367L535 1233Q549 1270 566 1316T595 1391T617 1450T637 1492T649 1505Q657
1505 676 1468Q694 1423 723 1338T766 1217L1157 184Q1184 114 1208 74T1274 18Q1331 4 1331 2ZM848 616Q848 641 741 918L678 1087Q633 1208 619 1208T573 1128L494 926Q492 918 460 839T402 689T375 610Q375 598 401 598H797Q848 598 848 616ZM924 1692Q936 1692
936 1673Q936 1644 890 1590T809 1536Q752 1536 684 1573T586 1610Q531 1610 481 1570T428 1530Q420 1530 420 1536Q420 1565 493 1628T608 1692Q667 1692 737 1654T821 1616Q854 1616 875 1635T908 1673T924 1692Z" />
<glyph unicode="&#xe4;" glyph-name="adieresis" horiz-adv-x="1290" d="M1331 2Q1331 -8 1317 -8Q1284 -8 1219 -4T1120 0Q1093 0 1038 -3T956 -6Q919 -6 920 0Q920 8 932 11T961 15T983 18Q1028 32 1028 90Q1028 127 1004 201L907 457Q891 500 877 511T811 522H403Q356
522 343 514T313 463L227 229Q194 143 195 96Q195 45 233 23Q235 21 248 19T272 12T283 4Q283 -6 263 -6T191 -3T119 0Q94 0 53 -3T-12 -6Q-41 -6 -41 6Q-41 10 -30 13T-2 20T23 33Q80 88 188 367L535 1233Q549 1270 566 1316T595 1391T617 1450T637 1492T649 1505Q657
1505 676 1468Q694 1423 723 1338T766 1217L1157 184Q1184 114 1208 74T1274 18Q1331 4 1331 2ZM848 616Q848 641 741 918L678 1087Q633 1208 619 1208T573 1128L494 926Q492 918 460 839T402 689T375 610Q375 598 401 598H797Q848 598 848 616ZM922 1622Q922 1583
900 1559T838 1534Q801 1534 780 1556T758 1616Q758 1651 781 1674T839 1698T898 1678T922 1622ZM567 1622Q567 1583 545 1559T483 1534Q446 1534 425 1556T403 1616Q403 1651 427 1674T485 1698T543 1678T567 1622Z" />
<glyph unicode="&#xe5;" glyph-name="aring" horiz-adv-x="1290" d="M1331 2Q1331 -8 1317 -8Q1284 -8 1219 -4T1120 0Q1093 0 1038 -3T956 -6Q919 -6 920 0Q920 8 932 11T961 15T983 18Q1028 32 1028 90Q1028 127 1004 201L907 457Q891 500 877 511T811 522H403Q356
522 343 514T313 463L227 229Q194 143 195 96Q195 45 233 23Q235 21 248 19T272 12T283 4Q283 -6 263 -6T191 -3T119 0Q94 0 53 -3T-12 -6Q-41 -6 -41 6Q-41 10 -30 13T-2 20T23 33Q80 88 188 367L535 1233Q549 1270 566 1316T595 1391T617 1450T637 1492T649 1505Q657
1505 676 1468Q694 1423 723 1338T766 1217L1157 184Q1184 114 1208 74T1274 18Q1331 4 1331 2ZM848 616Q848 641 741 918L678 1087Q633 1208 619 1208T573 1128L494 926Q492 918 460 839T402 689T375 610Q375 598 401 598H797Q848 598 848 616ZM836 1679Q836 1611
779 1574T649 1536Q586 1536 528 1574T469 1671Q469 1737 524 1774T647 1812T775 1777T836 1679ZM762 1679Q762 1724 729 1753T649 1782T573 1752T543 1675Q543 1632 574 1601T649 1569Q698 1569 730 1599T762 1679Z" />
<glyph unicode="&#xe6;" glyph-name="ae" horiz-adv-x="1751" d="M1587 1292Q1587 1280 1579 1280Q1573 1280 1563 1294Q1549 1323 1534 1333T1479 1354Q1432 1366 1362 1366H1114Q1094 1366 1087 1364T1074 1354T1069 1327V844Q1069 819 1074 811T1104 803H1337Q1431
803 1456 825Q1476 841 1483 864Q1493 907 1499 907Q1509 907 1509 868Q1509 852 1506 822T1503 776Q1503 751 1505 703T1507 631Q1507 611 1499 610Q1495 610 1492 617T1488 636T1487 649Q1481 665 1466 684Q1443 713 1364 713H1100Q1080 713 1075 706T1069 676V197Q1069
144 1098 117Q1141 78 1298 78Q1480 78 1534 152Q1536 156 1539 161T1545 171T1551 179T1559 182Q1567 182 1567 174Q1567 154 1544 87T1507 8Q1493 -6 1456 -6Q1386 -6 1248 -3T1040 0Q1003 0 928 -3T815 -6Q776 -6 776 4Q776 10 791 13T826 17T850 20Q895 32
911 70Q931 127 938 522H532Q489 522 475 512T436 463L289 229Q215 114 215 70Q215 43 240 23Q244 19 255 17T274 11T283 4Q283 -4 260 -4Q240 -4 199 -2T137 0Q110 0 60 -2T-14 -4Q-41 -4 -41 6Q-41 12 -37 12Q-33 14 -22 15T3 20T31 33Q94 76 162 176L932 1337Q932
1378 902 1400T825 1423H815Q795 1423 795 1433T815 1444H838Q873 1442 921 1438T991 1434Q1071 1434 1232 1439T1473 1444Q1491 1444 1526 1446T1577 1448Q1585 1448 1585 1434Q1585 1428 1584 1416T1583 1399Q1583 1381 1585 1346T1587 1292ZM537 606Q537 598
561 598H938V1225Q537 622 537 606Z" />
<glyph unicode="&#xe7;" glyph-name="ccedilla" horiz-adv-x="1460" d="M1069 -246Q1069 -295 1033 -338T929 -411T821 -456T719 -489Q670 -505 655 -506Q639 -506 639 -492Q639 -482 676 -469Q955 -373 954 -268Q954 -178 813 -178Q790 -178 791 -162L874 -33H844Q484
-33 283 168T82 731Q82 883 135 1024Q215 1241 383 1353T786 1466Q962 1466 1108 1436Q1116 1434 1192 1415T1286 1395Q1292 1395 1298 1400T1309 1405Q1315 1405 1315 1382Q1315 1368 1312 1341T1309 1298Q1309 1278 1312 1239T1315 1180Q1315 1149 1307 1149T1294
1155T1285 1178T1274 1208Q1260 1239 1221 1278Q1076 1405 743 1405Q491 1405 362 1228T233 786Q233 585 311 415T544 136T903 27Q1077 27 1206 119Q1267 164 1284 205Q1300 256 1308 256T1317 231Q1317 204 1303 139T1286 66Q1282 39 1274 34Q1270 32 1262 29Q1133
-20 930 -31L854 -133Q1069 -133 1069 -246Z" />
<glyph unicode="&#xe8;" glyph-name="egrave" horiz-adv-x="1110" d="M956 1292Q956 1280 948 1280Q942 1280 932 1294Q918 1323 903 1333T848 1354Q801 1366 731 1366H483Q463 1366 456 1364T444 1354T438 1327V844Q438 819 443 811T473 803H707Q801 803 825
825Q845 841 852 864Q862 907 868 907Q878 907 879 868Q879 852 876 822T872 776Q872 751 874 703T877 631Q877 611 868 610Q864 610 861 617T857 636T856 649Q850 665 836 684Q813 713 733 713H469Q449 713 444 706T438 676V197Q438 144 467 117Q510 78 668 78Q891
78 944 152Q946 156 949 161T955 171T961 179T969 182Q977 182 977 174Q977 154 954 87T918 8Q904 -6 866 -6Q796 -6 638 -3T410 0Q373 0 297 -3T184 -6Q145 -6 145 4Q145 12 180 16Q262 24 281 70Q308 142 307 584V1278Q307 1425 182 1425Q164 1425 164 1434Q164
1444 184 1444Q213 1444 272 1439T360 1434Q440 1434 601 1439T842 1444Q860 1444 895 1446T946 1448Q954 1448 954 1434Q954 1428 953 1416T952 1399Q952 1381 954 1346T956 1292ZM780 1544Q780 1534 770 1534Q766 1534 755 1538T741 1542Q696 1556 614 1570T474
1592T408 1599Q398 1599 373 1586T340 1573Q330 1573 330 1583T387 1649T455 1706Q473 1706 605 1643T766 1561Q780 1550 780 1544Z" />
<glyph unicode="&#xe9;" glyph-name="eacute" horiz-adv-x="1110" d="M956 1292Q956 1280 948 1280Q942 1280 932 1294Q918 1323 903 1333T848 1354Q801 1366 731 1366H483Q463 1366 456 1364T444 1354T438 1327V844Q438 819 443 811T473 803H707Q801 803 825
825Q845 841 852 864Q862 907 868 907Q878 907 879 868Q879 852 876 822T872 776Q872 751 874 703T877 631Q877 611 868 610Q864 610 861 617T857 636T856 649Q850 665 836 684Q813 713 733 713H469Q449 713 444 706T438 676V197Q438 144 467 117Q510 78 668 78Q891
78 944 152Q946 156 949 161T955 171T961 179T969 182Q977 182 977 174Q977 154 954 87T918 8Q904 -6 866 -6Q796 -6 638 -3T410 0Q373 0 297 -3T184 -6Q145 -6 145 4Q145 12 180 16Q262 24 281 70Q308 142 307 584V1278Q307 1425 182 1425Q164 1425 164 1434Q164
1444 184 1444Q213 1444 272 1439T360 1434Q440 1434 601 1439T842 1444Q860 1444 895 1446T946 1448Q954 1448 954 1434Q954 1428 953 1416T952 1399Q952 1381 954 1346T956 1292ZM836 1593T836 1583T825 1573Q817 1573 793 1586T758 1599Q750 1599 692 1592T551
1571T424 1542Q422 1542 411 1538T395 1534Q385 1534 385 1544Q385 1550 399 1561Q426 1579 559 1642T711 1706Q721 1706 778 1650Z" />
<glyph unicode="&#xea;" glyph-name="ecircumflex" horiz-adv-x="1110" d="M956 1292Q956 1280 948 1280Q942 1280 932 1294Q918 1323 903 1333T848 1354Q801 1366 731 1366H483Q463 1366 456 1364T444 1354T438 1327V844Q438 819 443 811T473 803H707Q801 803
825 825Q845 841 852 864Q862 907 868 907Q878 907 879 868Q879 852 876 822T872 776Q872 751 874 703T877 631Q877 611 868 610Q864 610 861 617T857 636T856 649Q850 665 836 684Q813 713 733 713H469Q449 713 444 706T438 676V197Q438 144 467 117Q510 78 668
78Q891 78 944 152Q946 156 949 161T955 171T961 179T969 182Q977 182 977 174Q977 154 954 87T918 8Q904 -6 866 -6Q796 -6 638 -3T410 0Q373 0 297 -3T184 -6Q145 -6 145 4Q145 12 180 16Q262 24 281 70Q308 142 307 584V1278Q307 1425 182 1425Q164 1425 164
1434Q164 1444 184 1444Q213 1444 272 1439T360 1434Q440 1434 601 1439T842 1444Q860 1444 895 1446T946 1448Q954 1448 954 1434Q954 1428 953 1416T952 1399Q952 1381 954 1346T956 1292ZM834 1606Q834 1600 793 1567T741 1534Q733 1534 645 1590T553 1647Q545
1647 412 1573Q400 1567 386 1558T363 1543T350 1538Q334 1538 334 1548Q334 1564 360 1577Q391 1593 492 1656T608 1729Q620 1737 629 1737Q633 1737 659 1716Q669 1708 713 1679T785 1632T823 1614T834 1606Z" />
<glyph unicode="&#xeb;" glyph-name="edieresis" horiz-adv-x="1110" d="M956 1292Q956 1280 948 1280Q942 1280 932 1294Q918 1323 903 1333T848 1354Q801 1366 731 1366H483Q463 1366 456 1364T444 1354T438 1327V844Q438 819 443 811T473 803H707Q801 803 825
825Q845 841 852 864Q862 907 868 907Q878 907 879 868Q879 852 876 822T872 776Q872 751 874 703T877 631Q877 611 868 610Q864 610 861 617T857 636T856 649Q850 665 836 684Q813 713 733 713H469Q449 713 444 706T438 676V197Q438 144 467 117Q510 78 668 78Q891
78 944 152Q946 156 949 161T955 171T961 179T969 182Q977 182 977 174Q977 154 954 87T918 8Q904 -6 866 -6Q796 -6 638 -3T410 0Q373 0 297 -3T184 -6Q145 -6 145 4Q145 12 180 16Q262 24 281 70Q308 142 307 584V1278Q307 1425 182 1425Q164 1425 164 1434Q164
1444 184 1444Q213 1444 272 1439T360 1434Q440 1434 601 1439T842 1444Q860 1444 895 1446T946 1448Q954 1448 954 1434Q954 1428 953 1416T952 1399Q952 1381 954 1346T956 1292ZM840 1622Q840 1583 818 1559T756 1534Q719 1534 698 1556T676 1616Q676 1651 699
1674T758 1698T816 1678T840 1622ZM485 1622Q485 1583 463 1559T401 1534Q364 1534 343 1556T322 1616Q322 1651 345 1674T403 1698T461 1678T485 1622Z" />
<glyph unicode="&#xec;" glyph-name="igrave" horiz-adv-x="741" d="M604 2Q604 -8 588 -8Q557 -8 494 -4T398 0T297 -2T195 -4Q168 -4 168 6T195 16Q242 16 268 47Q307 92 307 250V1249Q307 1329 284 1369T195 1417Q156 1421 156 1433T190 1446Q217 1446 268
1440T346 1434Q377 1434 439 1441T532 1448Q571 1448 571 1436Q571 1432 556 1427T519 1415T487 1403Q438 1372 438 1243V287Q438 213 441 172T458 89T504 31Q518 23 544 19T587 11T604 2ZM541 1544Q541 1534 530 1534Q526 1534 515 1538T502 1542Q457 1556 375
1570T235 1592T168 1599Q158 1599 134 1586T100 1573Q90 1573 90 1583T147 1649T215 1706Q233 1706 366 1643T526 1561Q541 1550 541 1544Z" />
<glyph unicode="&#xed;" glyph-name="iacute" horiz-adv-x="741" d="M604 2Q604 -8 588 -8Q557 -8 494 -4T398 0T297 -2T195 -4Q168 -4 168 6T195 16Q242 16 268 47Q307 92 307 250V1249Q307 1329 284 1369T195 1417Q156 1421 156 1433T190 1446Q217 1446 268
1440T346 1434Q377 1434 439 1441T532 1448Q571 1448 571 1436Q571 1432 556 1427T519 1415T487 1403Q438 1372 438 1243V287Q438 213 441 172T458 89T504 31Q518 23 544 19T587 11T604 2ZM596 1593T596 1583T586 1573Q578 1573 553 1586T518 1599Q510 1599 452
1592T311 1571T184 1542Q182 1542 171 1538T156 1534Q146 1534 145 1544Q145 1550 160 1561Q189 1579 321 1642T471 1706Q481 1706 538 1650Z" />
<glyph unicode="&#xee;" glyph-name="icircumflex" horiz-adv-x="741" d="M604 2Q604 -8 588 -8Q557 -8 494 -4T398 0T297 -2T195 -4Q168 -4 168 6T195 16Q242 16 268 47Q307 92 307 250V1249Q307 1329 284 1369T195 1417Q156 1421 156 1433T190 1446Q217 1446
268 1440T346 1434Q377 1434 439 1441T532 1448Q571 1448 571 1436Q571 1432 556 1427T519 1415T487 1403Q438 1372 438 1243V287Q438 213 441 172T458 89T504 31Q518 23 544 19T587 11T604 2ZM631 1606Q631 1600 590 1567T539 1534Q531 1534 443 1590T350 1647Q342
1647 209 1573Q197 1567 183 1558T160 1543T147 1538Q131 1538 131 1548Q131 1564 158 1577Q189 1593 290 1656T406 1729Q418 1737 426 1737Q430 1737 457 1716Q467 1708 511 1679T582 1632T620 1614T631 1606Z" />
<glyph unicode="&#xef;" glyph-name="idieresis" horiz-adv-x="741" d="M604 2Q604 -8 588 -8Q557 -8 494 -4T398 0T297 -2T195 -4Q168 -4 168 6T195 16Q242 16 268 47Q307 92 307 250V1249Q307 1329 284 1369T195 1417Q156 1421 156 1433T190 1446Q217 1446 268
1440T346 1434Q377 1434 439 1441T532 1448Q571 1448 571 1436Q571 1432 556 1427T519 1415T487 1403Q438 1372 438 1243V287Q438 213 441 172T458 89T504 31Q518 23 544 19T587 11T604 2ZM637 1622Q637 1583 615 1559T553 1534Q516 1534 495 1556T473 1616Q473
1651 496 1674T555 1698T613 1678T637 1622ZM283 1622Q283 1583 261 1559T199 1534Q162 1534 141 1556T119 1616Q119 1651 142 1674T201 1698T259 1678T283 1622Z" />
<glyph unicode="&#xf0;" glyph-name="eth" horiz-adv-x="1622" d="M1540 748Q1540 398 1345 191T799 -16Q729 -16 588 -8T377 0Q344 0 279 -4T180 -8Q151 -8 152 4Q152 8 160 11T180 15T195 16Q263 28 281 63Q310 114 309 315V668Q309 693 302 697T268 702H186Q149
702 150 717Q150 719 152 725T158 744T166 774Q168 786 174 788T203 791H268Q295 791 302 798T309 831V1257Q309 1415 180 1415Q160 1415 160 1427Q160 1441 211 1442Q238 1442 290 1438T369 1434Q443 1434 589 1441T809 1448Q1059 1448 1210 1364Q1368 1276 1454
1107T1540 748ZM457 168L455 186Q455 184 456 178T457 168ZM455 186L457 168Q463 133 471 123T510 96Q625 39 827 39Q1405 39 1405 690Q1405 880 1315 1052T1063 1313Q920 1391 715 1391Q629 1391 563 1389Q553 1389 531 1388T502 1385T481 1382T461 1374T451 1359T442
1336T440 1300V829Q440 804 448 798T481 791H856Q891 791 891 780Q891 774 877 729Q869 702 846 702H481Q454 702 447 696T440 662V469Q441 295 455 186Z" />
<glyph unicode="&#xf1;" glyph-name="ntilde" horiz-adv-x="1740" d="M1651 1436Q1651 1432 1640 1428T1610 1418T1579 1407Q1540 1384 1540 1135V29Q1540 -41 1528 -41Q1518 -41 1496 -22T1446 28T1417 61L436 1126Q399 1167 393 1167Q385 1167 385 1114V244Q385
82 444 37Q467 21 496 14Q529 8 528 2Q528 -10 489 -10Q462 -10 417 -5T344 0Q319 0 266 -3T188 -6Q155 -6 156 4Q156 8 170 11T205 17T238 29Q287 64 287 250V1106L286 1239Q285 1372 285 1384Q285 1456 303 1456Q309 1456 321 1447T344 1428T366 1404T381 1389L1405
272Q1430 247 1436 248Q1446 248 1446 301L1434 1122Q1434 1339 1399 1386Q1387 1404 1363 1413T1322 1427T1305 1438Q1305 1448 1323 1448Q1348 1448 1397 1441T1472 1434T1548 1439T1624 1444T1651 1436ZM1114 1692Q1126 1692 1126 1673Q1126 1644 1080 1590T999
1536Q942 1536 875 1573T776 1610Q721 1610 671 1570T618 1530Q610 1530 610 1536Q610 1565 684 1628T799 1692Q858 1692 927 1654T1012 1616Q1045 1616 1066 1635T1098 1673T1114 1692Z" />
<glyph unicode="&#xf2;" glyph-name="ograve" horiz-adv-x="1576" d="M1495 748Q1495 412 1320 190T817 -33Q487 -33 285 171T82 705Q82 836 104 926Q161 1162 338 1314T756 1466Q924 1466 1032 1430Q1245 1354 1370 1166T1495 748ZM1352 590Q1352 731 1317 869T1215
1130T1028 1329T758 1405Q500 1405 367 1227T233 782Q233 596 297 428T503 145T836 29Q1082 29 1217 184T1352 590ZM956 1544Q956 1534 946 1534Q942 1534 931 1538T918 1542Q873 1556 791 1570T651 1592T584 1599Q574 1599 549 1586T516 1573Q506 1573 506 1583T563
1649T631 1706Q649 1706 781 1643T942 1561Q956 1550 956 1544Z" />
<glyph unicode="&#xf3;" glyph-name="oacute" horiz-adv-x="1576" d="M1495 748Q1495 412 1320 190T817 -33Q487 -33 285 171T82 705Q82 836 104 926Q161 1162 338 1314T756 1466Q924 1466 1032 1430Q1245 1354 1370 1166T1495 748ZM1352 590Q1352 731 1317 869T1215
1130T1028 1329T758 1405Q500 1405 367 1227T233 782Q233 596 297 428T503 145T836 29Q1082 29 1217 184T1352 590ZM1044 1593T1044 1583T1034 1573Q1026 1573 1002 1586T967 1599Q959 1599 901 1592T760 1571T633 1542Q631 1542 620 1538T604 1534Q594 1534 594
1544Q594 1550 608 1561Q635 1579 768 1642T920 1706Q930 1706 987 1650Z" />
<glyph unicode="&#xf4;" glyph-name="ocircumflex" horiz-adv-x="1576" d="M1495 748Q1495 412 1320 190T817 -33Q487 -33 285 171T82 705Q82 836 104 926Q161 1162 338 1314T756 1466Q924 1466 1032 1430Q1245 1354 1370 1166T1495 748ZM1352 590Q1352 731 1317
869T1215 1130T1028 1329T758 1405Q500 1405 367 1227T233 782Q233 596 297 428T503 145T836 29Q1082 29 1217 184T1352 590ZM1047 1606Q1047 1600 1006 1567T954 1534Q946 1534 858 1590T766 1647Q758 1647 625 1573Q613 1567 599 1558T576 1543T563 1538Q547
1538 547 1548Q547 1564 573 1577Q604 1593 705 1656T821 1729Q833 1737 842 1737Q846 1737 872 1716Q882 1708 926 1679T998 1632T1036 1614T1047 1606Z" />
<glyph unicode="&#xf5;" glyph-name="otilde" horiz-adv-x="1576" d="M1495 748Q1495 412 1320 190T817 -33Q487 -33 285 171T82 705Q82 836 104 926Q161 1162 338 1314T756 1466Q924 1466 1032 1430Q1245 1354 1370 1166T1495 748ZM1352 590Q1352 731 1317 869T1215
1130T1028 1329T758 1405Q500 1405 367 1227T233 782Q233 596 297 428T503 145T836 29Q1082 29 1217 184T1352 590ZM1014 1692Q1026 1692 1026 1673Q1026 1644 980 1590T899 1536Q842 1536 775 1573T676 1610Q621 1610 571 1570T518 1530Q510 1530 510 1536Q510
1565 583 1628T698 1692Q757 1692 827 1654T911 1616Q944 1616 965 1635T998 1673T1014 1692Z" />
<glyph unicode="&#xf6;" glyph-name="odieresis" horiz-adv-x="1576" d="M1495 748Q1495 412 1320 190T817 -33Q487 -33 285 171T82 705Q82 836 104 926Q161 1162 338 1314T756 1466Q924 1466 1032 1430Q1245 1354 1370 1166T1495 748ZM1352 590Q1352 731 1317
869T1215 1130T1028 1329T758 1405Q500 1405 367 1227T233 782Q233 596 297 428T503 145T836 29Q1082 29 1217 184T1352 590ZM1028 1622Q1028 1583 1006 1559T944 1534Q907 1534 886 1556T864 1616Q864 1651 887 1674T946 1698T1004 1678T1028 1622ZM674 1622Q674
1583 652 1559T590 1534Q553 1534 532 1556T510 1616Q510 1651 533 1674T592 1698T650 1678T674 1622Z" />
<glyph unicode="&#xf7;" glyph-name="divide" horiz-adv-x="1019" d="M512 909Q473 909 447 937T420 1006Q420 1049 445 1076T512 1104T581 1077T610 1010Q610 967 583 939T512 909ZM918 766V670H102V766H918ZM512 332Q473 332 447 358T420 426Q420 469 445 496T512
524T581 497T610 430Q610 389 584 362T512 332Z" />
<glyph unicode="&#xf8;" glyph-name="oslash" horiz-adv-x="1576" d="M338 119L231 -16Q217 -36 207 -37Q199 -37 190 -29L160 -4Q146 6 146 12T164 41L274 178Q81 383 82 705Q82 838 104 926Q165 1164 340 1315T756 1466Q897 1466 996 1441T1198 1341L1272 1436Q1286
1454 1292 1454Q1296 1454 1303 1450L1337 1423Q1349 1413 1350 1409Q1350 1401 1343 1395L1262 1292Q1375 1190 1435 1048T1495 748Q1495 531 1423 358T1194 76T817 -33Q526 -33 338 119ZM1124 1249Q972 1405 758 1405Q500 1405 359 1230T217 791Q217 666 257
532T365 293L1124 1249ZM1352 590Q1352 748 1308 907T1178 1186L418 221Q586 28 836 29Q1082 29 1217 184T1352 590Z" />
<glyph unicode="&#xf9;" glyph-name="ugrave" horiz-adv-x="1619" d="M1559 1425Q1559 1415 1534 1415Q1495 1415 1470 1396T1433 1335T1418 1254T1415 1149V596Q1415 305 1256 136T805 -33Q531 -33 373 108T215 512V1233Q215 1358 195 1380Q183 1394 154 1403T104
1417T82 1427Q82 1441 109 1442Q140 1442 199 1438T289 1434Q324 1434 391 1439T492 1444Q508 1444 508 1436Q508 1430 495 1425T463 1414T440 1407Q383 1378 369 1315T354 1053V545Q354 303 480 166T823 29Q1042 29 1184 163T1327 545V881Q1327 1024 1309 1264Q1305
1340 1288 1368T1206 1409Q1145 1419 1145 1425Q1145 1441 1180 1442Q1213 1442 1274 1438T1368 1434Q1397 1434 1452 1436T1536 1438Q1559 1437 1559 1425ZM1020 1544Q1020 1534 1010 1534Q1006 1534 995 1538T981 1542Q936 1556 854 1570T714 1592T647 1599Q637
1599 613 1586T580 1573Q570 1573 570 1583T626 1649T694 1706Q712 1706 845 1643T1006 1561Q1020 1550 1020 1544Z" />
<glyph unicode="&#xfa;" glyph-name="uacute" horiz-adv-x="1619" d="M1559 1425Q1559 1415 1534 1415Q1495 1415 1470 1396T1433 1335T1418 1254T1415 1149V596Q1415 305 1256 136T805 -33Q531 -33 373 108T215 512V1233Q215 1358 195 1380Q183 1394 154 1403T104
1417T82 1427Q82 1441 109 1442Q140 1442 199 1438T289 1434Q324 1434 391 1439T492 1444Q508 1444 508 1436Q508 1430 495 1425T463 1414T440 1407Q383 1378 369 1315T354 1053V545Q354 303 480 166T823 29Q1042 29 1184 163T1327 545V881Q1327 1024 1309 1264Q1305
1340 1288 1368T1206 1409Q1145 1419 1145 1425Q1145 1441 1180 1442Q1213 1442 1274 1438T1368 1434Q1397 1434 1452 1436T1536 1438Q1559 1437 1559 1425ZM1051 1593T1051 1583T1040 1573Q1032 1573 1008 1586T973 1599Q965 1599 907 1592T766 1571T639 1542Q637
1542 626 1538T610 1534Q600 1534 600 1544Q600 1550 614 1561Q643 1579 775 1642T926 1706Q936 1706 993 1650Z" />
<glyph unicode="&#xfb;" glyph-name="ucircumflex" horiz-adv-x="1619" d="M1559 1425Q1559 1415 1534 1415Q1495 1415 1470 1396T1433 1335T1418 1254T1415 1149V596Q1415 305 1256 136T805 -33Q531 -33 373 108T215 512V1233Q215 1358 195 1380Q183 1394 154
1403T104 1417T82 1427Q82 1441 109 1442Q140 1442 199 1438T289 1434Q324 1434 391 1439T492 1444Q508 1444 508 1436Q508 1430 495 1425T463 1414T440 1407Q383 1378 369 1315T354 1053V545Q354 303 480 166T823 29Q1042 29 1184 163T1327 545V881Q1327 1024
1309 1264Q1305 1340 1288 1368T1206 1409Q1145 1419 1145 1425Q1145 1441 1180 1442Q1213 1442 1274 1438T1368 1434Q1397 1434 1452 1436T1536 1438Q1559 1437 1559 1425ZM1075 1606Q1075 1600 1034 1567T983 1534Q975 1534 887 1590T795 1647Q787 1647 653 1573Q641
1567 627 1558T604 1543T592 1538Q576 1538 575 1548Q575 1564 602 1577Q633 1593 734 1656T850 1729Q862 1737 870 1737Q874 1737 901 1716Q911 1708 955 1679T1027 1632T1065 1614T1075 1606Z" />
<glyph unicode="&#xfc;" glyph-name="udieresis" horiz-adv-x="1619" d="M1559 1425Q1559 1415 1534 1415Q1495 1415 1470 1396T1433 1335T1418 1254T1415 1149V596Q1415 305 1256 136T805 -33Q531 -33 373 108T215 512V1233Q215 1358 195 1380Q183 1394 154 1403T104
1417T82 1427Q82 1441 109 1442Q140 1442 199 1438T289 1434Q324 1434 391 1439T492 1444Q508 1444 508 1436Q508 1430 495 1425T463 1414T440 1407Q383 1378 369 1315T354 1053V545Q354 303 480 166T823 29Q1042 29 1184 163T1327 545V881Q1327 1024 1309 1264Q1305
1340 1288 1368T1206 1409Q1145 1419 1145 1425Q1145 1441 1180 1442Q1213 1442 1274 1438T1368 1434Q1397 1434 1452 1436T1536 1438Q1559 1437 1559 1425ZM1092 1622Q1092 1583 1070 1559T1008 1534Q971 1534 950 1556T928 1616Q928 1651 951 1674T1009 1698T1068
1678T1092 1622ZM737 1622Q737 1583 715 1559T653 1534Q616 1534 595 1556T573 1616Q573 1651 597 1674T655 1698T713 1678T737 1622Z" />
<glyph unicode="&#xfd;" glyph-name="yacute" horiz-adv-x="1318" d="M1339 1432Q1339 1426 1321 1425Q1290 1425 1255 1413Q1187 1388 1053 1174L780 743Q723 663 723 625V174Q723 106 762 61Q791 28 840 12Q844 10 858 9T881 6T891 0Q891 -10 850 -10Q819 -10
759 -5T668 0Q639 0 584 -5T502 -10Q459 -10 459 -2T479 6Q493 6 506 10Q592 45 592 209V616Q592 647 555 698L147 1311Q100 1377 53 1399Q39 1405 -35 1421Q-62 1421 -61 1432Q-61 1446 -10 1446Q17 1446 73 1440T158 1434Q185 1434 237 1441T313 1448Q356 1448
356 1440Q356 1438 324 1426T291 1393Q291 1346 334 1278L612 836Q663 756 676 756Q690 756 725 811L961 1182Q1047 1317 1047 1391Q1047 1409 1031 1421L1016 1434Q1016 1442 1032 1442Q1046 1442 1076 1438T1120 1434Q1147 1434 1200 1441T1282 1448Q1339 1448
1339 1432ZM971 1593T971 1583T961 1573Q953 1573 928 1586T893 1599Q885 1599 827 1592T686 1571T559 1542Q557 1542 546 1538T530 1534Q520 1534 520 1544Q520 1550 535 1561Q562 1579 694 1642T846 1706Q856 1706 913 1650Z" />
<glyph unicode="&#xfe;" glyph-name="thorn" horiz-adv-x="1189" d="M1108 793Q1108 607 1004 471T719 334Q692 334 639 342T586 362Q586 368 592 369Q608 369 640 363T688 356Q768 356 835 406T934 532Q959 593 958 698Q958 1114 567 1114Q506 1114 477 1110Q438
1106 438 879V467Q438 373 446 225T471 55Q512 8 584 8Q604 8 604 -2Q604 -14 555 -14Q520 -14 455 -7T354 0Q327 0 274 -5T195 -10Q166 -10 166 -2Q166 2 172 5T186 9T197 10Q244 18 274 57Q307 102 307 285V1274Q307 1376 246 1411Q238 1415 223 1419T196 1425T184
1432Q184 1442 199 1442Q230 1442 287 1438T375 1434Q402 1434 455 1441T535 1448Q570 1448 569 1434Q569 1432 565 1427Q555 1421 526 1416T477 1397Q467 1389 461 1380T451 1356T443 1330T439 1301T438 1274T438 1246T438 1223Q438 1172 477 1171Q504 1171 558
1174T639 1178Q768 1178 856 1145Q973 1102 1040 1009T1108 793Z" />
<glyph unicode="&#xff;" glyph-name="ydieresis" horiz-adv-x="1318" d="M1339 1432Q1339 1426 1321 1425Q1290 1425 1255 1413Q1187 1388 1053 1174L780 743Q723 663 723 625V174Q723 106 762 61Q791 28 840 12Q844 10 858 9T881 6T891 0Q891 -10 850 -10Q819
-10 759 -5T668 0Q639 0 584 -5T502 -10Q459 -10 459 -2T479 6Q493 6 506 10Q592 45 592 209V616Q592 647 555 698L147 1311Q100 1377 53 1399Q39 1405 -35 1421Q-62 1421 -61 1432Q-61 1446 -10 1446Q17 1446 73 1440T158 1434Q185 1434 237 1441T313 1448Q356
1448 356 1440Q356 1438 324 1426T291 1393Q291 1346 334 1278L612 836Q663 756 676 756Q690 756 725 811L961 1182Q1047 1317 1047 1391Q1047 1409 1031 1421L1016 1434Q1016 1442 1032 1442Q1046 1442 1076 1438T1120 1434Q1147 1434 1200 1441T1282 1448Q1339
1448 1339 1432ZM952 1622Q952 1583 930 1559T868 1534Q831 1534 810 1556T788 1616Q788 1651 812 1674T870 1698T928 1678T952 1622ZM598 1622Q598 1583 576 1559T514 1534Q477 1534 456 1556T434 1616Q434 1651 457 1674T516 1698T574 1678T598 1622Z" />
<glyph unicode="&#x100;" glyph-name="Amacron" horiz-adv-x="1290" d="M1331 2Q1331 -8 1317 -8Q1284 -8 1219 -4T1120 0Q1093 0 1038 -3T956 -6Q919 -6 920 0Q920 8 932 11T961 15T983 18Q1028 32 1028 90Q1028 127 1004 201L907 457Q891 500 877 511T811 522H403Q356
522 343 514T313 463L227 229Q194 143 195 96Q195 45 233 23Q235 21 248 19T272 12T283 4Q283 -6 263 -6T191 -3T119 0Q94 0 53 -3T-12 -6Q-41 -6 -41 6Q-41 10 -30 13T-2 20T23 33Q80 88 188 367L535 1233Q549 1270 566 1316T595 1391T617 1450T637 1492T649 1505Q657
1505 676 1468Q694 1423 723 1338T766 1217L1157 184Q1184 114 1208 74T1274 18Q1331 4 1331 2ZM848 616Q848 641 741 918L678 1087Q633 1208 619 1208T573 1128L494 926Q492 918 460 839T402 689T375 610Q375 598 401 598H797Q848 598 848 616ZM879 1630Q897 1630
897 1614Q897 1608 893 1599T881 1570T864 1532Q856 1516 848 1516Q846 1516 835 1521T801 1531T752 1536H494Q467 1536 440 1529T410 1522Q392 1522 391 1534Q391 1544 401 1565Q405 1573 411 1592T423 1619T438 1626T473 1620T512 1614H752Q795 1614 834 1622T879
1630Z" />
<glyph unicode="&#x101;" glyph-name="amacron" horiz-adv-x="1290" d="M1331 2Q1331 -8 1317 -8Q1284 -8 1219 -4T1120 0Q1093 0 1038 -3T956 -6Q919 -6 920 0Q920 8 932 11T961 15T983 18Q1028 32 1028 90Q1028 127 1004 201L907 457Q891 500 877 511T811 522H403Q356
522 343 514T313 463L227 229Q194 143 195 96Q195 45 233 23Q235 21 248 19T272 12T283 4Q283 -6 263 -6T191 -3T119 0Q94 0 53 -3T-12 -6Q-41 -6 -41 6Q-41 10 -30 13T-2 20T23 33Q80 88 188 367L535 1233Q549 1270 566 1316T595 1391T617 1450T637 1492T649 1505Q657
1505 676 1468Q694 1423 723 1338T766 1217L1157 184Q1184 114 1208 74T1274 18Q1331 4 1331 2ZM848 616Q848 641 741 918L678 1087Q633 1208 619 1208T573 1128L494 926Q492 918 460 839T402 689T375 610Q375 598 401 598H797Q848 598 848 616ZM879 1630Q897 1630
897 1614Q897 1608 893 1599T881 1570T864 1532Q856 1516 848 1516Q846 1516 835 1521T801 1531T752 1536H494Q467 1536 440 1529T410 1522Q392 1522 391 1534Q391 1544 401 1565Q405 1573 411 1592T423 1619T438 1626T473 1620T512 1614H752Q795 1614 834 1622T879
1630Z" />
<glyph unicode="&#x102;" glyph-name="Abreve" horiz-adv-x="1290" d="M1331 2Q1331 -8 1317 -8Q1284 -8 1219 -4T1120 0Q1093 0 1038 -3T956 -6Q919 -6 920 0Q920 8 932 11T961 15T983 18Q1028 32 1028 90Q1028 127 1004 201L907 457Q891 500 877 511T811 522H403Q356
522 343 514T313 463L227 229Q194 143 195 96Q195 45 233 23Q235 21 248 19T272 12T283 4Q283 -6 263 -6T191 -3T119 0Q94 0 53 -3T-12 -6Q-41 -6 -41 6Q-41 10 -30 13T-2 20T23 33Q80 88 188 367L535 1233Q549 1270 566 1316T595 1391T617 1450T637 1492T649 1505Q657
1505 676 1468Q694 1423 723 1338T766 1217L1157 184Q1184 114 1208 74T1274 18Q1331 4 1331 2ZM848 616Q848 641 741 918L678 1087Q633 1208 619 1208T573 1128L494 926Q492 918 460 839T402 689T375 610Q375 598 401 598H797Q848 598 848 616ZM928 1733Q928 1713
887 1663T823 1597Q731 1536 651 1536Q585 1536 514 1567T401 1634T360 1683Q360 1687 418 1726L479 1765Q487 1765 487 1753Q487 1687 546 1646T682 1604Q752 1604 805 1638T885 1708T920 1743Q928 1743 928 1733Z" />
<glyph unicode="&#x103;" glyph-name="abreve" horiz-adv-x="1290" d="M1331 2Q1331 -8 1317 -8Q1284 -8 1219 -4T1120 0Q1093 0 1038 -3T956 -6Q919 -6 920 0Q920 8 932 11T961 15T983 18Q1028 32 1028 90Q1028 127 1004 201L907 457Q891 500 877 511T811 522H403Q356
522 343 514T313 463L227 229Q194 143 195 96Q195 45 233 23Q235 21 248 19T272 12T283 4Q283 -6 263 -6T191 -3T119 0Q94 0 53 -3T-12 -6Q-41 -6 -41 6Q-41 10 -30 13T-2 20T23 33Q80 88 188 367L535 1233Q549 1270 566 1316T595 1391T617 1450T637 1492T649 1505Q657
1505 676 1468Q694 1423 723 1338T766 1217L1157 184Q1184 114 1208 74T1274 18Q1331 4 1331 2ZM848 616Q848 641 741 918L678 1087Q633 1208 619 1208T573 1128L494 926Q492 918 460 839T402 689T375 610Q375 598 401 598H797Q848 598 848 616ZM928 1733Q928 1713
887 1663T823 1597Q731 1536 651 1536Q585 1536 514 1567T401 1634T360 1683Q360 1687 418 1726L479 1765Q487 1765 487 1753Q487 1687 546 1646T682 1604Q752 1604 805 1638T885 1708T920 1743Q928 1743 928 1733Z" />
<glyph unicode="&#x104;" glyph-name="Aogonek" horiz-adv-x="1290" d="M1303 -332Q1303 -355 1242 -376T1128 -397Q1081 -397 1036 -387T951 -347T911 -270Q911 -213 950 -156T1022 -71T1110 0Q1085 0 1034 -3T956 -6Q919 -6 920 0Q920 8 932 11T961 15T983 18Q1028
32 1028 90Q1028 127 1004 201L909 457Q893 500 879 511T813 522H403Q356 522 343 514T313 463L227 229Q194 143 195 96Q195 45 233 23Q235 21 248 19T272 12T283 4Q283 -6 263 -6T191 -3T119 0Q94 0 53 -3T-12 -6Q-41 -6 -41 6Q-41 10 -31 13T-4 21T23 33Q50 51
76 95T116 174T156 279T188 367L535 1233Q555 1282 582 1361T624 1472T649 1505Q657 1505 676 1468Q696 1421 730 1330T772 1219Q922 830 948 752L1157 184Q1184 114 1208 74T1274 18Q1331 4 1331 2Q1331 -8 1317 -8Q1286 -8 1229 -4T1155 0Q1020 -135 1020 -223Q1020
-276 1053 -319T1145 -362Q1196 -362 1243 -342T1292 -322Q1303 -322 1303 -332ZM850 598T850 616T741 918L678 1087Q633 1208 619 1208T573 1128L494 926Q492 918 460 839T402 689T375 610Q375 598 401 598H799Q850 598 850 616Z" />
<glyph unicode="&#x105;" glyph-name="aogonek" horiz-adv-x="1290" d="M1303 -332Q1303 -355 1242 -376T1128 -397Q1081 -397 1036 -387T951 -347T911 -270Q911 -213 950 -156T1022 -71T1110 0Q1085 0 1034 -3T956 -6Q919 -6 920 0Q920 8 932 11T961 15T983 18Q1028
32 1028 90Q1028 127 1004 201L909 457Q893 500 879 511T813 522H403Q356 522 343 514T313 463L227 229Q194 143 195 96Q195 45 233 23Q235 21 248 19T272 12T283 4Q283 -6 263 -6T191 -3T119 0Q94 0 53 -3T-12 -6Q-41 -6 -41 6Q-41 10 -31 13T-4 21T23 33Q50 51
76 95T116 174T156 279T188 367L535 1233Q555 1282 582 1361T624 1472T649 1505Q657 1505 676 1468Q696 1421 730 1330T772 1219Q922 830 948 752L1157 184Q1184 114 1208 74T1274 18Q1331 4 1331 2Q1331 -8 1317 -8Q1286 -8 1229 -4T1155 0Q1020 -135 1020 -223Q1020
-276 1053 -319T1145 -362Q1196 -362 1243 -342T1292 -322Q1303 -322 1303 -332ZM850 598T850 616T741 918L678 1087Q633 1208 619 1208T573 1128L494 926Q492 918 460 839T402 689T375 610Q375 598 401 598H799Q850 598 850 616Z" />
<glyph unicode="&#x106;" glyph-name="Cacute" horiz-adv-x="1460" d="M1317 231Q1317 227 1290 68Q1288 56 1287 52T1283 42T1276 35T1262 29Q1098 -32 844 -33Q484 -33 283 168T82 731Q82 883 135 1024Q215 1241 383 1353T786 1466Q962 1466 1108 1436Q1116
1434 1192 1415T1286 1395Q1292 1395 1298 1400T1309 1405Q1315 1405 1315 1382Q1315 1368 1312 1341T1309 1298Q1309 1278 1312 1239T1315 1180Q1315 1149 1307 1149T1294 1155T1285 1178T1274 1208Q1260 1239 1221 1278Q1076 1405 743 1405Q491 1405 362 1228T233
786Q233 585 311 415T544 136T903 27Q1077 27 1206 119Q1267 164 1284 205Q1300 256 1308 256T1317 231ZM1059 1593T1059 1583T1049 1573Q1041 1573 1016 1586T981 1599Q973 1599 915 1592T774 1571T647 1542Q645 1542 634 1538T618 1534Q608 1534 608 1544Q608
1550 623 1561Q652 1579 783 1642T934 1706Q944 1706 1001 1650Z" />
<glyph unicode="&#x107;" glyph-name="cacute" horiz-adv-x="1460" d="M1317 231Q1317 227 1290 68Q1288 56 1287 52T1283 42T1276 35T1262 29Q1098 -32 844 -33Q484 -33 283 168T82 731Q82 883 135 1024Q215 1241 383 1353T786 1466Q962 1466 1108 1436Q1116
1434 1192 1415T1286 1395Q1292 1395 1298 1400T1309 1405Q1315 1405 1315 1382Q1315 1368 1312 1341T1309 1298Q1309 1278 1312 1239T1315 1180Q1315 1149 1307 1149T1294 1155T1285 1178T1274 1208Q1260 1239 1221 1278Q1076 1405 743 1405Q491 1405 362 1228T233
786Q233 585 311 415T544 136T903 27Q1077 27 1206 119Q1267 164 1284 205Q1300 256 1308 256T1317 231ZM1059 1593T1059 1583T1049 1573Q1041 1573 1016 1586T981 1599Q973 1599 915 1592T774 1571T647 1542Q645 1542 634 1538T618 1534Q608 1534 608 1544Q608
1550 623 1561Q652 1579 783 1642T934 1706Q944 1706 1001 1650Z" />
<glyph unicode="&#x108;" glyph-name="Ccircumflex" horiz-adv-x="1460" d="M1317 231Q1317 227 1290 68Q1288 56 1287 52T1283 42T1276 35T1262 29Q1098 -32 844 -33Q484 -33 283 168T82 731Q82 883 135 1024Q215 1241 383 1353T786 1466Q962 1466 1108 1436Q1116
1434 1192 1415T1286 1395Q1292 1395 1298 1400T1309 1405Q1315 1405 1315 1382Q1315 1368 1312 1341T1309 1298Q1309 1278 1312 1239T1315 1180Q1315 1149 1307 1149T1294 1155T1285 1178T1274 1208Q1260 1239 1221 1278Q1076 1405 743 1405Q491 1405 362 1228T233
786Q233 585 311 415T544 136T903 27Q1077 27 1206 119Q1267 164 1284 205Q1300 256 1308 256T1317 231ZM1083 1606Q1083 1600 1042 1567T991 1534Q983 1534 895 1590T803 1647Q795 1647 662 1573Q650 1567 636 1558T613 1543T600 1538Q584 1538 584 1548Q584 1564
610 1577Q641 1593 742 1656T858 1729Q870 1737 879 1737Q883 1737 909 1716Q919 1708 963 1679T1035 1632T1073 1614T1083 1606Z" />
<glyph unicode="&#x109;" glyph-name="ccircumflex" horiz-adv-x="1460" d="M1317 231Q1317 227 1290 68Q1288 56 1287 52T1283 42T1276 35T1262 29Q1098 -32 844 -33Q484 -33 283 168T82 731Q82 883 135 1024Q215 1241 383 1353T786 1466Q962 1466 1108 1436Q1116
1434 1192 1415T1286 1395Q1292 1395 1298 1400T1309 1405Q1315 1405 1315 1382Q1315 1368 1312 1341T1309 1298Q1309 1278 1312 1239T1315 1180Q1315 1149 1307 1149T1294 1155T1285 1178T1274 1208Q1260 1239 1221 1278Q1076 1405 743 1405Q491 1405 362 1228T233
786Q233 585 311 415T544 136T903 27Q1077 27 1206 119Q1267 164 1284 205Q1300 256 1308 256T1317 231ZM1083 1606Q1083 1600 1042 1567T991 1534Q983 1534 895 1590T803 1647Q795 1647 662 1573Q650 1567 636 1558T613 1543T600 1538Q584 1538 584 1548Q584 1564
610 1577Q641 1593 742 1656T858 1729Q870 1737 879 1737Q883 1737 909 1716Q919 1708 963 1679T1035 1632T1073 1614T1083 1606Z" />
<glyph unicode="&#x10a;" glyph-name="Cdotaccent" horiz-adv-x="1460" d="M1317 231Q1317 227 1290 68Q1288 56 1287 52T1283 42T1276 35T1262 29Q1098 -32 844 -33Q484 -33 283 168T82 731Q82 883 135 1024Q215 1241 383 1353T786 1466Q962 1466 1108 1436Q1116
1434 1192 1415T1286 1395Q1292 1395 1298 1400T1309 1405Q1315 1405 1315 1382Q1315 1368 1312 1341T1309 1298Q1309 1278 1312 1239T1315 1180Q1315 1149 1307 1149T1294 1155T1285 1178T1274 1208Q1260 1239 1221 1278Q1076 1405 743 1405Q491 1405 362 1228T233
786Q233 585 311 415T544 136T903 27Q1077 27 1206 119Q1267 164 1284 205Q1300 256 1308 256T1317 231ZM883 1636Q883 1593 859 1564T793 1534T727 1561T702 1630T728 1701T793 1731Q834 1731 858 1704T883 1636Z" />
<glyph unicode="&#x10b;" glyph-name="cdotaccent" horiz-adv-x="1460" d="M1317 231Q1317 227 1290 68Q1288 56 1287 52T1283 42T1276 35T1262 29Q1098 -32 844 -33Q484 -33 283 168T82 731Q82 883 135 1024Q215 1241 383 1353T786 1466Q962 1466 1108 1436Q1116
1434 1192 1415T1286 1395Q1292 1395 1298 1400T1309 1405Q1315 1405 1315 1382Q1315 1368 1312 1341T1309 1298Q1309 1278 1312 1239T1315 1180Q1315 1149 1307 1149T1294 1155T1285 1178T1274 1208Q1260 1239 1221 1278Q1076 1405 743 1405Q491 1405 362 1228T233
786Q233 585 311 415T544 136T903 27Q1077 27 1206 119Q1267 164 1284 205Q1300 256 1308 256T1317 231ZM883 1636Q883 1593 859 1564T793 1534T727 1561T702 1630T728 1701T793 1731Q834 1731 858 1704T883 1636Z" />
<glyph unicode="&#x10c;" glyph-name="Ccaron" horiz-adv-x="1460" d="M1317 231Q1317 227 1290 68Q1288 56 1287 52T1283 42T1276 35T1262 29Q1098 -32 844 -33Q484 -33 283 168T82 731Q82 883 135 1024Q215 1241 383 1353T786 1466Q962 1466 1108 1436Q1116
1434 1192 1415T1286 1395Q1292 1395 1298 1400T1309 1405Q1315 1405 1315 1382Q1315 1368 1312 1341T1309 1298Q1309 1278 1312 1239T1315 1180Q1315 1149 1307 1149T1294 1155T1285 1178T1274 1208Q1260 1239 1221 1278Q1076 1405 743 1405Q491 1405 362 1228T233
786Q233 585 311 415T544 136T903 27Q1077 27 1206 119Q1267 164 1284 205Q1300 256 1308 256T1317 231ZM553 1665Q553 1671 594 1704T645 1737Q653 1737 741 1681T834 1624Q863 1624 954 1698Q999 1733 1015 1733T1032 1722Q1032 1708 1006 1694T902 1618T799
1542Q787 1534 778 1534Q774 1534 748 1554Q590 1656 563 1657Q553 1657 553 1665Z" />
<glyph unicode="&#x10d;" glyph-name="ccaron" horiz-adv-x="1464" d="M1317 231Q1317 227 1290 68Q1288 56 1287 52T1283 42T1276 35T1262 29Q1098 -32 844 -33Q484 -33 283 168T82 731Q82 883 135 1024Q215 1241 383 1353T786 1466Q962 1466 1108 1436Q1116
1434 1192 1415T1286 1395Q1292 1395 1298 1400T1309 1405Q1315 1405 1315 1382Q1315 1368 1312 1341T1309 1298Q1309 1278 1312 1239T1315 1180Q1315 1149 1307 1149T1294 1155T1285 1178T1274 1208Q1260 1239 1221 1278Q1076 1405 743 1405Q491 1405 362 1228T233
786Q233 585 311 415T544 136T903 27Q1077 27 1206 119Q1267 164 1284 205Q1300 256 1308 256T1317 231ZM553 1665Q553 1671 594 1704T645 1737Q653 1737 741 1681T834 1624Q863 1624 954 1698Q999 1733 1015 1733T1032 1722Q1032 1708 1006 1694T902 1618T799
1542Q787 1534 778 1534Q774 1534 748 1554Q590 1656 563 1657Q553 1657 553 1665Z" />
<glyph unicode="&#x10e;" glyph-name="Dcaron" horiz-adv-x="1619" d="M1538 748Q1538 398 1343 191T797 -16Q725 -16 586 -8T375 0Q342 0 277 -4T178 -8Q149 -8 150 4Q150 8 158 11T178 15T193 16Q261 28 279 63Q308 114 307 315V1257Q307 1415 178 1415Q158
1415 158 1427Q158 1441 209 1442Q236 1442 288 1438T367 1434Q441 1434 587 1441T807 1448Q1057 1448 1208 1364Q1366 1276 1452 1107T1538 748ZM1403 690Q1403 880 1313 1052T1061 1313Q918 1391 713 1391Q627 1391 561 1389Q551 1389 529 1388T500 1385T479
1382T459 1374T449 1359T440 1336T438 1300V469Q438 150 469 119Q471 117 488 108T508 96Q623 39 825 39Q1403 39 1403 690ZM563 1665Q563 1671 604 1704T655 1737Q663 1737 751 1681T844 1624Q873 1624 965 1698Q1010 1733 1026 1733T1042 1722Q1042 1708 1016
1694T913 1618T809 1542Q797 1534 788 1534Q784 1534 758 1554Q600 1656 573 1657Q563 1657 563 1665Z" />
<glyph unicode="&#x10f;" glyph-name="dcaron" horiz-adv-x="1619" d="M1538 748Q1538 398 1343 191T797 -16Q725 -16 586 -8T375 0Q342 0 277 -4T178 -8Q149 -8 150 4Q150 8 158 11T178 15T193 16Q261 28 279 63Q308 114 307 315V1257Q307 1415 178 1415Q158
1415 158 1427Q158 1441 209 1442Q236 1442 288 1438T367 1434Q441 1434 587 1441T807 1448Q1057 1448 1208 1364Q1366 1276 1452 1107T1538 748ZM1403 690Q1403 880 1313 1052T1061 1313Q918 1391 713 1391Q627 1391 561 1389Q551 1389 529 1388T500 1385T479
1382T459 1374T449 1359T440 1336T438 1300V469Q438 150 469 119Q471 117 488 108T508 96Q623 39 825 39Q1403 39 1403 690ZM563 1665Q563 1671 604 1704T655 1737Q663 1737 751 1681T844 1624Q873 1624 965 1698Q1010 1733 1026 1733T1042 1722Q1042 1708 1016
1694T913 1618T809 1542Q797 1534 788 1534Q784 1534 758 1554Q600 1656 573 1657Q563 1657 563 1665Z" />
<glyph unicode="&#x110;" glyph-name="Dcroat" horiz-adv-x="1622" d="M1540 748Q1540 398 1345 191T799 -16Q729 -16 588 -8T377 0Q344 0 279 -4T180 -8Q151 -8 152 4Q152 8 160 11T180 15T195 16Q263 28 281 63Q310 114 309 315V668Q309 693 302 697T268 702H186Q149
702 150 717Q150 719 152 725T158 744T166 774Q168 786 174 788T203 791H268Q295 791 302 798T309 831V1257Q309 1415 180 1415Q160 1415 160 1427Q160 1441 211 1442Q238 1442 290 1438T369 1434Q443 1434 589 1441T809 1448Q1059 1448 1210 1364Q1368 1276 1454
1107T1540 748ZM457 168L455 186Q455 184 456 178T457 168ZM455 186L457 168Q463 133 471 123T510 96Q625 39 827 39Q1405 39 1405 690Q1405 880 1315 1052T1063 1313Q920 1391 715 1391Q629 1391 563 1389Q553 1389 531 1388T502 1385T481 1382T461 1374T451 1359T442
1336T440 1300V829Q440 804 448 798T481 791H856Q891 791 891 780Q891 774 877 729Q869 702 846 702H481Q454 702 447 696T440 662V469Q441 295 455 186Z" />
<glyph unicode="&#x111;" glyph-name="" horiz-adv-x="1622" d="M1540 748Q1540 398 1345 191T799 -16Q729 -16 588 -8T377 0Q344 0 279 -4T180 -8Q151 -8 152 4Q152 8 160 11T180 15T195 16Q263 28 281 63Q310 114 309 315V668Q309 693 302 697T268 702H186Q149
702 150 717Q150 719 152 725T158 744T166 774Q168 786 174 788T203 791H268Q295 791 302 798T309 831V1257Q309 1415 180 1415Q160 1415 160 1427Q160 1441 211 1442Q238 1442 290 1438T369 1434Q443 1434 589 1441T809 1448Q1059 1448 1210 1364Q1368 1276 1454
1107T1540 748ZM457 168L455 186Q455 184 456 178T457 168ZM455 186L457 168Q463 133 471 123T510 96Q625 39 827 39Q1405 39 1405 690Q1405 880 1315 1052T1063 1313Q920 1391 715 1391Q629 1391 563 1389Q553 1389 531 1388T502 1385T481 1382T461 1374T451 1359T442
1336T440 1300V829Q440 804 448 798T481 791H856Q891 791 891 780Q891 774 877 729Q869 702 846 702H481Q454 702 447 696T440 662V469Q441 295 455 186Z" />
<glyph unicode="&#x112;" glyph-name="Emacron" horiz-adv-x="1118" d="M956 1292Q956 1280 948 1280Q942 1280 932 1294Q918 1323 903 1333T848 1354Q801 1366 731 1366H483Q463 1366 456 1364T444 1354T438 1327V844Q438 819 443 811T473 803H707Q801 803 825
825Q845 841 852 864Q862 907 868 907Q878 907 879 868Q879 852 876 822T872 776Q872 751 874 703T877 631Q877 611 868 610Q864 610 861 617T857 636T856 649Q850 665 836 684Q813 713 733 713H469Q449 713 444 706T438 676V197Q438 144 467 117Q510 78 668 78Q891
78 944 152Q946 156 949 161T955 171T961 179T969 182Q977 182 977 174Q977 154 954 87T918 8Q904 -6 866 -6Q796 -6 638 -3T410 0Q373 0 297 -3T184 -6Q145 -6 145 4Q145 12 180 16Q262 24 281 70Q308 142 307 584V1278Q307 1425 182 1425Q164 1425 164 1434Q164
1444 184 1444Q213 1444 272 1439T360 1434Q440 1434 601 1439T842 1444Q860 1444 895 1446T946 1448Q954 1448 954 1434Q954 1428 953 1416T952 1399Q952 1381 954 1346T956 1292ZM834 1630Q852 1630 852 1614Q852 1608 848 1599T836 1570T819 1532Q811 1516 803
1516Q801 1516 790 1521T756 1531T707 1536H449Q422 1536 395 1529T365 1522Q347 1522 346 1534Q346 1544 356 1565Q360 1573 366 1592T378 1619T393 1626T428 1620T467 1614H707Q750 1614 789 1622T834 1630Z" />
<glyph unicode="&#x113;" glyph-name="emacron" horiz-adv-x="1118" d="M956 1292Q956 1280 948 1280Q942 1280 932 1294Q918 1323 903 1333T848 1354Q801 1366 731 1366H483Q463 1366 456 1364T444 1354T438 1327V844Q438 819 443 811T473 803H707Q801 803 825
825Q845 841 852 864Q862 907 868 907Q878 907 879 868Q879 852 876 822T872 776Q872 751 874 703T877 631Q877 611 868 610Q864 610 861 617T857 636T856 649Q850 665 836 684Q813 713 733 713H469Q449 713 444 706T438 676V197Q438 144 467 117Q510 78 668 78Q891
78 944 152Q946 156 949 161T955 171T961 179T969 182Q977 182 977 174Q977 154 954 87T918 8Q904 -6 866 -6Q796 -6 638 -3T410 0Q373 0 297 -3T184 -6Q145 -6 145 4Q145 12 180 16Q262 24 281 70Q308 142 307 584V1278Q307 1425 182 1425Q164 1425 164 1434Q164
1444 184 1444Q213 1444 272 1439T360 1434Q440 1434 601 1439T842 1444Q860 1444 895 1446T946 1448Q954 1448 954 1434Q954 1428 953 1416T952 1399Q952 1381 954 1346T956 1292ZM834 1630Q852 1630 852 1614Q852 1608 848 1599T836 1570T819 1532Q811 1516 803
1516Q801 1516 790 1521T756 1531T707 1536H449Q422 1536 395 1529T365 1522Q347 1522 346 1534Q346 1544 356 1565Q360 1573 366 1592T378 1619T393 1626T428 1620T467 1614H707Q750 1614 789 1622T834 1630Z" />
<glyph unicode="&#x114;" glyph-name="Ebreve" horiz-adv-x="1118" d="M956 1292Q956 1280 948 1280Q942 1280 932 1294Q918 1323 903 1333T848 1354Q801 1366 731 1366H483Q463 1366 456 1364T444 1354T438 1327V844Q438 819 443 811T473 803H707Q801 803 825
825Q845 841 852 864Q862 907 868 907Q878 907 879 868Q879 852 876 822T872 776Q872 751 874 703T877 631Q877 611 868 610Q864 610 861 617T857 636T856 649Q850 665 836 684Q813 713 733 713H469Q449 713 444 706T438 676V197Q438 144 467 117Q510 78 668 78Q891
78 944 152Q946 156 949 161T955 171T961 179T969 182Q977 182 977 174Q977 154 954 87T918 8Q904 -6 866 -6Q796 -6 638 -3T410 0Q373 0 297 -3T184 -6Q145 -6 145 4Q145 12 180 16Q262 24 281 70Q308 142 307 584V1278Q307 1425 182 1425Q164 1425 164 1434Q164
1444 184 1444Q213 1444 272 1439T360 1434Q440 1434 601 1439T842 1444Q860 1444 895 1446T946 1448Q954 1448 954 1434Q954 1428 953 1416T952 1399Q952 1381 954 1346T956 1292ZM883 1733Q883 1713 842 1663T778 1597Q686 1536 606 1536Q540 1536 469 1567T356
1634T315 1683Q315 1687 373 1726L434 1765Q442 1765 442 1753Q442 1687 501 1646T637 1604Q707 1604 760 1638T840 1708T874 1743Q883 1743 883 1733Z" />
<glyph unicode="&#x115;" glyph-name="ebreve" horiz-adv-x="1118" d="M956 1292Q956 1280 948 1280Q942 1280 932 1294Q918 1323 903 1333T848 1354Q801 1366 731 1366H483Q463 1366 456 1364T444 1354T438 1327V844Q438 819 443 811T473 803H707Q801 803 825
825Q845 841 852 864Q862 907 868 907Q878 907 879 868Q879 852 876 822T872 776Q872 751 874 703T877 631Q877 611 868 610Q864 610 861 617T857 636T856 649Q850 665 836 684Q813 713 733 713H469Q449 713 444 706T438 676V197Q438 144 467 117Q510 78 668 78Q891
78 944 152Q946 156 949 161T955 171T961 179T969 182Q977 182 977 174Q977 154 954 87T918 8Q904 -6 866 -6Q796 -6 638 -3T410 0Q373 0 297 -3T184 -6Q145 -6 145 4Q145 12 180 16Q262 24 281 70Q308 142 307 584V1278Q307 1425 182 1425Q164 1425 164 1434Q164
1444 184 1444Q213 1444 272 1439T360 1434Q440 1434 601 1439T842 1444Q860 1444 895 1446T946 1448Q954 1448 954 1434Q954 1428 953 1416T952 1399Q952 1381 954 1346T956 1292ZM883 1733Q883 1713 842 1663T778 1597Q686 1536 606 1536Q540 1536 469 1567T356
1634T315 1683Q315 1687 373 1726L434 1765Q442 1765 442 1753Q442 1687 501 1646T637 1604Q707 1604 760 1638T840 1708T874 1743Q883 1743 883 1733Z" />
<glyph unicode="&#x116;" glyph-name="Edotaccent" horiz-adv-x="1118" d="M956 1292Q956 1280 948 1280Q942 1280 932 1294Q918 1323 903 1333T848 1354Q801 1366 731 1366H483Q463 1366 456 1364T444 1354T438 1327V844Q438 819 443 811T473 803H707Q801 803
825 825Q845 841 852 864Q862 907 868 907Q878 907 879 868Q879 852 876 822T872 776Q872 751 874 703T877 631Q877 611 868 610Q864 610 861 617T857 636T856 649Q850 665 836 684Q813 713 733 713H469Q449 713 444 706T438 676V197Q438 144 467 117Q510 78 668
78Q891 78 944 152Q946 156 949 161T955 171T961 179T969 182Q977 182 977 174Q977 154 954 87T918 8Q904 -6 866 -6Q796 -6 638 -3T410 0Q373 0 297 -3T184 -6Q145 -6 145 4Q145 12 180 16Q262 24 281 70Q308 142 307 584V1278Q307 1425 182 1425Q164 1425 164
1434Q164 1444 184 1444Q213 1444 272 1439T360 1434Q440 1434 601 1439T842 1444Q860 1444 895 1446T946 1448Q954 1448 954 1434Q954 1428 953 1416T952 1399Q952 1381 954 1346T956 1292ZM690 1636Q690 1593 666 1564T600 1534T535 1561T510 1630T535 1701T600
1731Q641 1731 665 1704T690 1636Z" />
<glyph unicode="&#x117;" glyph-name="edotaccent" horiz-adv-x="1118" d="M956 1292Q956 1280 948 1280Q942 1280 932 1294Q918 1323 903 1333T848 1354Q801 1366 731 1366H483Q463 1366 456 1364T444 1354T438 1327V844Q438 819 443 811T473 803H707Q801 803
825 825Q845 841 852 864Q862 907 868 907Q878 907 879 868Q879 852 876 822T872 776Q872 751 874 703T877 631Q877 611 868 610Q864 610 861 617T857 636T856 649Q850 665 836 684Q813 713 733 713H469Q449 713 444 706T438 676V197Q438 144 467 117Q510 78 668
78Q891 78 944 152Q946 156 949 161T955 171T961 179T969 182Q977 182 977 174Q977 154 954 87T918 8Q904 -6 866 -6Q796 -6 638 -3T410 0Q373 0 297 -3T184 -6Q145 -6 145 4Q145 12 180 16Q262 24 281 70Q308 142 307 584V1278Q307 1425 182 1425Q164 1425 164
1434Q164 1444 184 1444Q213 1444 272 1439T360 1434Q440 1434 601 1439T842 1444Q860 1444 895 1446T946 1448Q954 1448 954 1434Q954 1428 953 1416T952 1399Q952 1381 954 1346T956 1292ZM690 1636Q690 1593 666 1564T600 1534T535 1561T510 1630T535 1701T600
1731Q641 1731 665 1704T690 1636Z" />
<glyph unicode="&#x118;" glyph-name="Eogonek" horiz-adv-x="1118" d="M965 -332Q965 -355 904 -376T791 -397Q744 -397 699 -387T613 -347T573 -270Q573 -215 609 -160T678 -75T764 -6Q402 0 397 0Q360 0 285 -3T172 -6Q133 -6 133 4Q133 12 168 16Q250 24 268
70Q295 142 295 584V1278Q295 1425 170 1425Q152 1425 152 1434Q152 1444 172 1444Q201 1444 260 1439T348 1434Q428 1434 589 1439T829 1444Q847 1444 882 1446T934 1448Q942 1448 942 1434Q942 1428 941 1416T940 1399Q940 1381 942 1346T944 1292Q944 1280 936
1280Q930 1280 920 1294Q906 1323 890 1333T836 1354Q789 1366 719 1366H471Q451 1366 444 1364T431 1354T426 1327V844Q426 819 431 811T461 803H694Q788 803 813 825Q833 841 840 864Q850 907 856 907Q866 907 866 868Q866 852 863 822T860 776Q860 751 862 703T864
631Q864 611 856 610Q852 610 849 617T845 636T844 649Q838 665 823 684Q800 713 721 713H457Q437 713 432 706T426 676V197Q426 144 455 117Q498 78 655 78Q878 78 932 152Q934 156 937 161T943 171T949 179T956 182Q964 182 965 174Q965 154 942 87T905 8Q891
-6 854 -6H811Q682 -135 682 -223Q682 -276 716 -319T807 -362Q860 -362 905 -342T954 -322Q965 -322 965 -332Z" />
<glyph unicode="&#x119;" glyph-name="eogonek" horiz-adv-x="1118" d="M965 -332Q965 -355 904 -376T791 -397Q744 -397 699 -387T613 -347T573 -270Q573 -215 609 -160T678 -75T764 -6Q402 0 397 0Q360 0 285 -3T172 -6Q133 -6 133 4Q133 12 168 16Q250 24 268
70Q295 142 295 584V1278Q295 1425 170 1425Q152 1425 152 1434Q152 1444 172 1444Q201 1444 260 1439T348 1434Q428 1434 589 1439T829 1444Q847 1444 882 1446T934 1448Q942 1448 942 1434Q942 1428 941 1416T940 1399Q940 1381 942 1346T944 1292Q944 1280 936
1280Q930 1280 920 1294Q906 1323 890 1333T836 1354Q789 1366 719 1366H471Q451 1366 444 1364T431 1354T426 1327V844Q426 819 431 811T461 803H694Q788 803 813 825Q833 841 840 864Q850 907 856 907Q866 907 866 868Q866 852 863 822T860 776Q860 751 862 703T864
631Q864 611 856 610Q852 610 849 617T845 636T844 649Q838 665 823 684Q800 713 721 713H457Q437 713 432 706T426 676V197Q426 144 455 117Q498 78 655 78Q878 78 932 152Q934 156 937 161T943 171T949 179T956 182Q964 182 965 174Q965 154 942 87T905 8Q891
-6 854 -6H811Q682 -135 682 -223Q682 -276 716 -319T807 -362Q860 -362 905 -342T954 -322Q965 -322 965 -332Z" />
<glyph unicode="&#x11a;" glyph-name="Ecaron" horiz-adv-x="1118" d="M956 1292Q956 1280 948 1280Q942 1280 932 1294Q918 1323 903 1333T848 1354Q801 1366 731 1366H483Q463 1366 456 1364T444 1354T438 1327V844Q438 819 443 811T473 803H707Q801 803 825
825Q845 841 852 864Q862 907 868 907Q878 907 879 868Q879 852 876 822T872 776Q872 751 874 703T877 631Q877 611 868 610Q864 610 861 617T857 636T856 649Q850 665 836 684Q813 713 733 713H469Q449 713 444 706T438 676V197Q438 144 467 117Q510 78 668 78Q891
78 944 152Q946 156 949 161T955 171T961 179T969 182Q977 182 977 174Q977 154 954 87T918 8Q904 -6 866 -6Q796 -6 638 -3T410 0Q373 0 297 -3T184 -6Q145 -6 145 4Q145 12 180 16Q262 24 281 70Q308 142 307 584V1278Q307 1425 182 1425Q164 1425 164 1434Q164
1444 184 1444Q213 1444 272 1439T360 1434Q440 1434 601 1439T842 1444Q860 1444 895 1446T946 1448Q954 1448 954 1434Q954 1428 953 1416T952 1399Q952 1381 954 1346T956 1292ZM360 1665Q360 1671 401 1704T453 1737Q461 1737 549 1681T641 1624Q670 1624 762
1698Q807 1733 823 1733T840 1722Q840 1708 813 1694T710 1618T606 1542Q594 1534 586 1534Q582 1534 555 1554Q397 1656 371 1657Q360 1657 360 1665Z" />
<glyph unicode="&#x11b;" glyph-name="ecaron" horiz-adv-x="1118" d="M956 1292Q956 1280 948 1280Q942 1280 932 1294Q918 1323 903 1333T848 1354Q801 1366 731 1366H483Q463 1366 456 1364T444 1354T438 1327V844Q438 819 443 811T473 803H707Q801 803 825
825Q845 841 852 864Q862 907 868 907Q878 907 879 868Q879 852 876 822T872 776Q872 751 874 703T877 631Q877 611 868 610Q864 610 861 617T857 636T856 649Q850 665 836 684Q813 713 733 713H469Q449 713 444 706T438 676V197Q438 144 467 117Q510 78 668 78Q891
78 944 152Q946 156 949 161T955 171T961 179T969 182Q977 182 977 174Q977 154 954 87T918 8Q904 -6 866 -6Q796 -6 638 -3T410 0Q373 0 297 -3T184 -6Q145 -6 145 4Q145 12 180 16Q262 24 281 70Q308 142 307 584V1278Q307 1425 182 1425Q164 1425 164 1434Q164
1444 184 1444Q213 1444 272 1439T360 1434Q440 1434 601 1439T842 1444Q860 1444 895 1446T946 1448Q954 1448 954 1434Q954 1428 953 1416T952 1399Q952 1381 954 1346T956 1292ZM360 1665Q360 1671 401 1704T453 1737Q461 1737 549 1681T641 1624Q670 1624 762
1698Q807 1733 823 1733T840 1722Q840 1708 813 1694T710 1618T606 1542Q594 1534 586 1534Q582 1534 555 1554Q397 1656 371 1657Q360 1657 360 1665Z" />
<glyph unicode="&#x11c;" glyph-name="Gcircumflex" horiz-adv-x="1587" d="M1464 694Q1464 690 1450 686T1415 676T1380 662Q1353 644 1346 599T1339 449Q1339 416 1340 265T1341 80Q1341 68 1323 53Q1270 16 1130 -8T899 -33Q82 -33 82 745Q82 956 194 1143T496
1413Q619 1466 831 1466Q991 1466 1122 1436Q1128 1434 1201 1413T1298 1391Q1331 1391 1347 1402T1366 1413Q1374 1413 1374 1399Q1374 1376 1366 1329T1358 1249V1192Q1358 1110 1343 1110Q1325 1110 1325 1137Q1325 1184 1274 1243Q1204 1321 1073 1362T821
1403Q635 1403 514 1346Q371 1280 302 1136T233 819Q233 387 494 172Q668 27 901 27Q1065 27 1143 90Q1209 141 1208 305V537Q1208 617 1174 645Q1156 661 1129 672T1086 689T1069 702Q1069 712 1094 713Q1117 713 1194 706T1317 698Q1340 698 1383 701T1448 705Q1464
704 1464 694ZM1083 1606Q1083 1600 1042 1567T991 1534Q983 1534 895 1590T803 1647Q795 1647 662 1573Q650 1567 636 1558T613 1543T600 1538Q584 1538 584 1548Q584 1564 610 1577Q641 1593 742 1656T858 1729Q870 1737 879 1737Q883 1737 909 1716Q919 1708
963 1679T1035 1632T1073 1614T1083 1606Z" />
<glyph unicode="&#x11d;" glyph-name="gcircumflex" horiz-adv-x="1587" d="M1464 694Q1464 690 1450 686T1415 676T1380 662Q1353 644 1346 599T1339 449Q1339 416 1340 265T1341 80Q1341 68 1323 53Q1270 16 1130 -8T899 -33Q82 -33 82 745Q82 956 194 1143T496
1413Q619 1466 831 1466Q991 1466 1122 1436Q1128 1434 1201 1413T1298 1391Q1331 1391 1347 1402T1366 1413Q1374 1413 1374 1399Q1374 1376 1366 1329T1358 1249V1192Q1358 1110 1343 1110Q1325 1110 1325 1137Q1325 1184 1274 1243Q1204 1321 1073 1362T821
1403Q635 1403 514 1346Q371 1280 302 1136T233 819Q233 387 494 172Q668 27 901 27Q1065 27 1143 90Q1209 141 1208 305V537Q1208 617 1174 645Q1156 661 1129 672T1086 689T1069 702Q1069 712 1094 713Q1117 713 1194 706T1317 698Q1340 698 1383 701T1448 705Q1464
704 1464 694ZM1083 1606Q1083 1600 1042 1567T991 1534Q983 1534 895 1590T803 1647Q795 1647 662 1573Q650 1567 636 1558T613 1543T600 1538Q584 1538 584 1548Q584 1564 610 1577Q641 1593 742 1656T858 1729Q870 1737 879 1737Q883 1737 909 1716Q919 1708
963 1679T1035 1632T1073 1614T1083 1606Z" />
<glyph unicode="&#x11e;" glyph-name="Gbreve" horiz-adv-x="1587" d="M1464 694Q1464 690 1450 686T1415 676T1380 662Q1353 644 1346 599T1339 449Q1339 416 1340 265T1341 80Q1341 68 1323 53Q1270 16 1130 -8T899 -33Q82 -33 82 745Q82 956 194 1143T496 1413Q619
1466 831 1466Q991 1466 1122 1436Q1128 1434 1201 1413T1298 1391Q1331 1391 1347 1402T1366 1413Q1374 1413 1374 1399Q1374 1376 1366 1329T1358 1249V1192Q1358 1110 1343 1110Q1325 1110 1325 1137Q1325 1184 1274 1243Q1204 1321 1073 1362T821 1403Q635
1403 514 1346Q371 1280 302 1136T233 819Q233 387 494 172Q668 27 901 27Q1065 27 1143 90Q1209 141 1208 305V537Q1208 617 1174 645Q1156 661 1129 672T1086 689T1069 702Q1069 712 1094 713Q1117 713 1194 706T1317 698Q1340 698 1383 701T1448 705Q1464 704
1464 694ZM1098 1733Q1098 1713 1057 1663T993 1597Q901 1536 821 1536Q755 1536 684 1567T571 1634T530 1683Q530 1687 588 1726L649 1765Q657 1765 657 1753Q657 1687 716 1646T852 1604Q922 1604 975 1638T1055 1708T1090 1743Q1098 1743 1098 1733Z" />
<glyph unicode="&#x11f;" glyph-name="gbreve" horiz-adv-x="1587" d="M1464 694Q1464 690 1450 686T1415 676T1380 662Q1353 644 1346 599T1339 449Q1339 416 1340 265T1341 80Q1341 68 1323 53Q1270 16 1130 -8T899 -33Q82 -33 82 745Q82 956 194 1143T496 1413Q619
1466 831 1466Q991 1466 1122 1436Q1128 1434 1201 1413T1298 1391Q1331 1391 1347 1402T1366 1413Q1374 1413 1374 1399Q1374 1376 1366 1329T1358 1249V1192Q1358 1110 1343 1110Q1325 1110 1325 1137Q1325 1184 1274 1243Q1204 1321 1073 1362T821 1403Q635
1403 514 1346Q371 1280 302 1136T233 819Q233 387 494 172Q668 27 901 27Q1065 27 1143 90Q1209 141 1208 305V537Q1208 617 1174 645Q1156 661 1129 672T1086 689T1069 702Q1069 712 1094 713Q1117 713 1194 706T1317 698Q1340 698 1383 701T1448 705Q1464 704
1464 694ZM1098 1733Q1098 1713 1057 1663T993 1597Q901 1536 821 1536Q755 1536 684 1567T571 1634T530 1683Q530 1687 588 1726L649 1765Q657 1765 657 1753Q657 1687 716 1646T852 1604Q922 1604 975 1638T1055 1708T1090 1743Q1098 1743 1098 1733Z" />
<glyph unicode="&#x120;" glyph-name="Gdotaccent" horiz-adv-x="1587" d="M1464 694Q1464 690 1450 686T1415 676T1380 662Q1353 644 1346 599T1339 449Q1339 416 1340 265T1341 80Q1341 68 1323 53Q1270 16 1130 -8T899 -33Q82 -33 82 745Q82 956 194 1143T496
1413Q619 1466 831 1466Q991 1466 1122 1436Q1128 1434 1201 1413T1298 1391Q1331 1391 1347 1402T1366 1413Q1374 1413 1374 1399Q1374 1376 1366 1329T1358 1249V1192Q1358 1110 1343 1110Q1325 1110 1325 1137Q1325 1184 1274 1243Q1204 1321 1073 1362T821
1403Q635 1403 514 1346Q371 1280 302 1136T233 819Q233 387 494 172Q668 27 901 27Q1065 27 1143 90Q1209 141 1208 305V537Q1208 617 1174 645Q1156 661 1129 672T1086 689T1069 702Q1069 712 1094 713Q1117 713 1194 706T1317 698Q1340 698 1383 701T1448 705Q1464
704 1464 694ZM903 1636Q903 1593 879 1564T813 1534T748 1561T723 1630T748 1701T813 1731Q854 1731 878 1704T903 1636Z" />
<glyph unicode="&#x121;" glyph-name="gdotaccent" horiz-adv-x="1587" d="M1464 694Q1464 690 1450 686T1415 676T1380 662Q1353 644 1346 599T1339 449Q1339 416 1340 265T1341 80Q1341 68 1323 53Q1270 16 1130 -8T899 -33Q82 -33 82 745Q82 956 194 1143T496
1413Q619 1466 831 1466Q991 1466 1122 1436Q1128 1434 1201 1413T1298 1391Q1331 1391 1347 1402T1366 1413Q1374 1413 1374 1399Q1374 1376 1366 1329T1358 1249V1192Q1358 1110 1343 1110Q1325 1110 1325 1137Q1325 1184 1274 1243Q1204 1321 1073 1362T821
1403Q635 1403 514 1346Q371 1280 302 1136T233 819Q233 387 494 172Q668 27 901 27Q1065 27 1143 90Q1209 141 1208 305V537Q1208 617 1174 645Q1156 661 1129 672T1086 689T1069 702Q1069 712 1094 713Q1117 713 1194 706T1317 698Q1340 698 1383 701T1448 705Q1464
704 1464 694ZM903 1636Q903 1593 879 1564T813 1534T748 1561T723 1630T748 1701T813 1731Q854 1731 878 1704T903 1636Z" />
<glyph unicode="&#x122;" glyph-name="Gcommaaccent" horiz-adv-x="1587" d="M1464 694Q1464 690 1450 686T1415 676T1380 662Q1353 644 1346 599T1339 449Q1339 416 1340 265T1341 80Q1341 68 1323 53Q1270 16 1130 -8T899 -33Q82 -33 82 745Q82 956 194 1143T496
1413Q619 1466 831 1466Q991 1466 1122 1436Q1128 1434 1201 1413T1298 1391Q1331 1391 1347 1402T1366 1413Q1374 1413 1374 1399Q1374 1376 1366 1329T1358 1249V1192Q1358 1110 1343 1110Q1325 1110 1325 1137Q1325 1184 1274 1243Q1204 1321 1073 1362T821
1403Q635 1403 514 1346Q371 1280 302 1136T233 819Q233 387 494 172Q668 27 901 27Q1065 27 1143 90Q1209 141 1208 305V537Q1208 617 1174 645Q1156 661 1129 672T1086 689T1069 702Q1069 712 1094 713Q1117 713 1194 706T1317 698Q1340 698 1383 701T1448 705Q1464
704 1464 694ZM958 -233Q958 -323 831 -471Q823 -481 815 -481Q813 -481 813 -475Q813 -473 826 -442T854 -370T868 -303Q868 -280 830 -254T791 -221Q791 -201 821 -165T872 -129Q888 -129 923 -167T958 -233Z" />
<glyph unicode="&#x123;" glyph-name="gcommaaccent" horiz-adv-x="1587" d="M1464 694Q1464 690 1450 686T1415 676T1380 662Q1353 644 1346 599T1339 449Q1339 416 1340 265T1341 80Q1341 68 1323 53Q1270 16 1130 -8T899 -33Q82 -33 82 745Q82 956 194 1143T496
1413Q619 1466 831 1466Q991 1466 1122 1436Q1128 1434 1201 1413T1298 1391Q1331 1391 1347 1402T1366 1413Q1374 1413 1374 1399Q1374 1376 1366 1329T1358 1249V1192Q1358 1110 1343 1110Q1325 1110 1325 1137Q1325 1184 1274 1243Q1204 1321 1073 1362T821
1403Q635 1403 514 1346Q371 1280 302 1136T233 819Q233 387 494 172Q668 27 901 27Q1065 27 1143 90Q1209 141 1208 305V537Q1208 617 1174 645Q1156 661 1129 672T1086 689T1069 702Q1069 712 1094 713Q1117 713 1194 706T1317 698Q1340 698 1383 701T1448 705Q1464
704 1464 694ZM958 -233Q958 -323 831 -471Q823 -481 815 -481Q813 -481 813 -475Q813 -473 826 -442T854 -370T868 -303Q868 -280 830 -254T791 -221Q791 -201 821 -165T872 -129Q888 -129 923 -167T958 -233Z" />
<glyph unicode="&#x124;" glyph-name="Hcircumflex" horiz-adv-x="1796" d="M1655 6Q1655 -6 1595 -6Q1572 -6 1529 -3T1462 0Q1431 0 1370 -3T1278 -6Q1264 -6 1264 2Q1264 8 1274 11T1302 19T1335 33Q1360 49 1370 82Q1382 127 1382 289V664Q1382 689 1375 695T1343
702H475Q450 702 444 695T438 664V225Q438 80 487 37Q499 27 512 22T543 14T571 8Q579 4 580 0Q580 -10 561 -10Q536 -10 485 -5T369 0Q349 0 293 -3T195 -6Q177 -6 176 4Q176 10 186 14T211 20T227 25Q284 50 293 74Q307 115 307 238V1249Q307 1384 227 1417Q225
1419 211 1421T188 1427T178 1438T197 1444Q230 1444 293 1439T387 1434Q433 1434 479 1440Q481 1440 503 1443T539 1446Q568 1446 567 1432Q567 1426 555 1425Q510 1419 483 1399Q438 1368 438 1219V831Q438 804 443 798T473 791H1346Q1371 791 1376 798T1382
831V1217Q1382 1399 1296 1413Q1253 1421 1253 1431T1303 1442Q1328 1442 1381 1438T1458 1434Q1487 1434 1538 1440T1620 1446Q1647 1446 1647 1436Q1647 1432 1606 1417Q1571 1407 1548 1382Q1513 1341 1513 1204V580Q1513 164 1542 84Q1552 57 1569 43T1601
25T1642 16Q1655 16 1655 6ZM1167 1606Q1167 1600 1126 1567T1075 1534Q1067 1534 979 1590T887 1647Q879 1647 745 1573Q733 1567 719 1558T697 1543T684 1538Q668 1538 668 1548Q668 1564 694 1577Q725 1593 826 1656T942 1729Q954 1737 963 1737Q967 1737 993
1716Q1003 1708 1047 1679T1119 1632T1157 1614T1167 1606Z" />
<glyph unicode="&#x125;" glyph-name="hcircumflex" horiz-adv-x="1796" d="M1655 6Q1655 -6 1595 -6Q1572 -6 1529 -3T1462 0Q1431 0 1370 -3T1278 -6Q1264 -6 1264 2Q1264 8 1274 11T1302 19T1335 33Q1360 49 1370 82Q1382 127 1382 289V664Q1382 689 1375 695T1343
702H475Q450 702 444 695T438 664V225Q438 80 487 37Q499 27 512 22T543 14T571 8Q579 4 580 0Q580 -10 561 -10Q536 -10 485 -5T369 0Q349 0 293 -3T195 -6Q177 -6 176 4Q176 10 186 14T211 20T227 25Q284 50 293 74Q307 115 307 238V1249Q307 1384 227 1417Q225
1419 211 1421T188 1427T178 1438T197 1444Q230 1444 293 1439T387 1434Q433 1434 479 1440Q481 1440 503 1443T539 1446Q568 1446 567 1432Q567 1426 555 1425Q510 1419 483 1399Q438 1368 438 1219V831Q438 804 443 798T473 791H1346Q1371 791 1376 798T1382
831V1217Q1382 1399 1296 1413Q1253 1421 1253 1431T1303 1442Q1328 1442 1381 1438T1458 1434Q1487 1434 1538 1440T1620 1446Q1647 1446 1647 1436Q1647 1432 1606 1417Q1571 1407 1548 1382Q1513 1341 1513 1204V580Q1513 164 1542 84Q1552 57 1569 43T1601
25T1642 16Q1655 16 1655 6ZM1167 1606Q1167 1600 1126 1567T1075 1534Q1067 1534 979 1590T887 1647Q879 1647 745 1573Q733 1567 719 1558T697 1543T684 1538Q668 1538 668 1548Q668 1564 694 1577Q725 1593 826 1656T942 1729Q954 1737 963 1737Q967 1737 993
1716Q1003 1708 1047 1679T1119 1632T1157 1614T1167 1606Z" />
<glyph unicode="&#x126;" glyph-name="Hbar" horiz-adv-x="1796" d="M1642 6Q1642 -6 1583 -6Q1560 -6 1517 -3T1450 0Q1419 0 1358 -3T1266 -6Q1252 -6 1251 2Q1251 8 1261 11T1290 19T1323 33Q1348 49 1358 82Q1370 127 1370 289V664Q1370 689 1363 695T1331
702H463Q438 702 432 695T426 664V225Q426 80 475 37Q487 27 500 22T531 14T559 8Q567 4 567 0Q567 -10 549 -10Q524 -10 473 -5T356 0Q336 0 280 -3T182 -6Q164 -6 164 4Q164 10 174 14T198 20T215 25Q272 50 281 74Q295 115 295 238V987H197Q160 987 160 1001Q160
1003 162 1007T168 1024T176 1053Q178 1065 184 1067T213 1069H295V1249Q295 1384 215 1417Q213 1419 199 1421T175 1427T166 1438T184 1444Q217 1444 280 1439T375 1434Q421 1434 467 1440Q469 1440 491 1443T526 1446Q555 1446 555 1432Q555 1426 543 1425Q498
1419 471 1399Q426 1368 426 1219V1069H1370V1217Q1370 1399 1284 1413Q1241 1421 1241 1431T1290 1442Q1315 1442 1368 1438T1446 1434Q1475 1434 1526 1440T1608 1446Q1635 1446 1634 1436Q1634 1432 1593 1417Q1558 1407 1536 1382Q1501 1341 1501 1204V1069H1606Q1641
1069 1640 1059Q1640 1055 1639 1052T1634 1038T1626 1014Q1618 987 1595 987H1501V580Q1501 164 1530 84Q1540 57 1557 43T1589 25T1630 16Q1642 16 1642 6ZM1333 791Q1358 791 1364 798T1370 831V987H426V831Q426 804 431 798T461 791H1333Z" />
<glyph unicode="&#x127;" glyph-name="hbar" horiz-adv-x="1796" d="M1642 6Q1642 -6 1583 -6Q1560 -6 1517 -3T1450 0Q1419 0 1358 -3T1266 -6Q1252 -6 1251 2Q1251 8 1261 11T1290 19T1323 33Q1348 49 1358 82Q1370 127 1370 289V664Q1370 689 1363 695T1331
702H463Q438 702 432 695T426 664V225Q426 80 475 37Q487 27 500 22T531 14T559 8Q567 4 567 0Q567 -10 549 -10Q524 -10 473 -5T356 0Q336 0 280 -3T182 -6Q164 -6 164 4Q164 10 174 14T198 20T215 25Q272 50 281 74Q295 115 295 238V987H197Q160 987 160 1001Q160
1003 162 1007T168 1024T176 1053Q178 1065 184 1067T213 1069H295V1249Q295 1384 215 1417Q213 1419 199 1421T175 1427T166 1438T184 1444Q217 1444 280 1439T375 1434Q421 1434 467 1440Q469 1440 491 1443T526 1446Q555 1446 555 1432Q555 1426 543 1425Q498
1419 471 1399Q426 1368 426 1219V1069H1370V1217Q1370 1399 1284 1413Q1241 1421 1241 1431T1290 1442Q1315 1442 1368 1438T1446 1434Q1475 1434 1526 1440T1608 1446Q1635 1446 1634 1436Q1634 1432 1593 1417Q1558 1407 1536 1382Q1501 1341 1501 1204V1069H1606Q1641
1069 1640 1059Q1640 1055 1639 1052T1634 1038T1626 1014Q1618 987 1595 987H1501V580Q1501 164 1530 84Q1540 57 1557 43T1589 25T1630 16Q1642 16 1642 6ZM1333 791Q1358 791 1364 798T1370 831V987H426V831Q426 804 431 798T461 791H1333Z" />
<glyph unicode="&#x128;" glyph-name="Itilde" horiz-adv-x="720" d="M604 2Q604 -8 588 -8Q557 -8 494 -4T398 0T297 -2T195 -4Q168 -4 168 6T195 16Q242 16 268 47Q307 92 307 250V1249Q307 1329 284 1369T195 1417Q156 1421 156 1433T190 1446Q217 1446 268
1440T346 1434Q377 1434 439 1441T532 1448Q571 1448 571 1436Q571 1432 556 1427T519 1415T487 1403Q438 1372 438 1243V287Q438 213 441 172T458 89T504 31Q518 23 544 19T587 11T604 2ZM606 1692Q618 1692 618 1673Q618 1644 572 1590T492 1536Q435 1536 367
1573T268 1610Q213 1610 163 1570T111 1530Q103 1530 102 1536Q102 1565 176 1628T291 1692Q350 1692 419 1654T504 1616Q537 1616 558 1635T591 1673T606 1692Z" />
<glyph unicode="&#x129;" glyph-name="itilde" horiz-adv-x="720" d="M604 2Q604 -8 588 -8Q557 -8 494 -4T398 0T297 -2T195 -4Q168 -4 168 6T195 16Q242 16 268 47Q307 92 307 250V1249Q307 1329 284 1369T195 1417Q156 1421 156 1433T190 1446Q217 1446 268
1440T346 1434Q377 1434 439 1441T532 1448Q571 1448 571 1436Q571 1432 556 1427T519 1415T487 1403Q438 1372 438 1243V287Q438 213 441 172T458 89T504 31Q518 23 544 19T587 11T604 2ZM606 1692Q618 1692 618 1673Q618 1644 572 1590T492 1536Q435 1536 367
1573T268 1610Q213 1610 163 1570T111 1530Q103 1530 102 1536Q102 1565 176 1628T291 1692Q350 1692 419 1654T504 1616Q537 1616 558 1635T591 1673T606 1692Z" />
<glyph unicode="&#x12a;" glyph-name="Imacron" horiz-adv-x="720" d="M604 2Q604 -8 588 -8Q557 -8 494 -4T398 0T297 -2T195 -4Q168 -4 168 6T195 16Q242 16 268 47Q307 92 307 250V1249Q307 1329 284 1369T195 1417Q156 1421 156 1433T190 1446Q217 1446 268
1440T346 1434Q377 1434 439 1441T532 1448Q571 1448 571 1436Q571 1432 556 1427T519 1415T487 1403Q438 1372 438 1243V287Q438 213 441 172T458 89T504 31Q518 23 544 19T587 11T604 2ZM594 1630Q612 1630 612 1614Q612 1608 608 1599T596 1570T580 1532Q572
1516 563 1516Q561 1516 550 1521T517 1531T467 1536H209Q182 1536 155 1529T125 1522Q107 1522 106 1534Q106 1544 117 1565Q121 1573 127 1592T138 1619T153 1626T188 1620T227 1614H467Q512 1614 549 1622T594 1630Z" />
<glyph unicode="&#x12b;" glyph-name="imacron" horiz-adv-x="720" d="M604 2Q604 -8 588 -8Q557 -8 494 -4T398 0T297 -2T195 -4Q168 -4 168 6T195 16Q242 16 268 47Q307 92 307 250V1249Q307 1329 284 1369T195 1417Q156 1421 156 1433T190 1446Q217 1446 268
1440T346 1434Q377 1434 439 1441T532 1448Q571 1448 571 1436Q571 1432 556 1427T519 1415T487 1403Q438 1372 438 1243V287Q438 213 441 172T458 89T504 31Q518 23 544 19T587 11T604 2ZM594 1630Q612 1630 612 1614Q612 1608 608 1599T596 1570T580 1532Q572
1516 563 1516Q561 1516 550 1521T517 1531T467 1536H209Q182 1536 155 1529T125 1522Q107 1522 106 1534Q106 1544 117 1565Q121 1573 127 1592T138 1619T153 1626T188 1620T227 1614H467Q512 1614 549 1622T594 1630Z" />
<glyph unicode="&#x12c;" glyph-name="Ibreve" horiz-adv-x="720" d="M604 2Q604 -8 588 -8Q557 -8 494 -4T398 0T297 -2T195 -4Q168 -4 168 6T195 16Q242 16 268 47Q307 92 307 250V1249Q307 1329 284 1369T195 1417Q156 1421 156 1433T190 1446Q217 1446 268
1440T346 1434Q377 1434 439 1441T532 1448Q571 1448 571 1436Q571 1432 556 1427T519 1415T487 1403Q438 1372 438 1243V287Q438 213 441 172T458 89T504 31Q518 23 544 19T587 11T604 2ZM643 1733Q643 1713 602 1663T539 1597Q447 1536 367 1536Q301 1536 230
1567T117 1634T76 1683Q76 1687 133 1726L195 1765Q203 1765 203 1753Q203 1687 262 1646T397 1604Q467 1604 520 1638T601 1708T635 1743Q643 1743 643 1733Z" />
<glyph unicode="&#x12d;" glyph-name="ibreve" horiz-adv-x="720" d="M604 2Q604 -8 588 -8Q557 -8 494 -4T398 0T297 -2T195 -4Q168 -4 168 6T195 16Q242 16 268 47Q307 92 307 250V1249Q307 1329 284 1369T195 1417Q156 1421 156 1433T190 1446Q217 1446 268
1440T346 1434Q377 1434 439 1441T532 1448Q571 1448 571 1436Q571 1432 556 1427T519 1415T487 1403Q438 1372 438 1243V287Q438 213 441 172T458 89T504 31Q518 23 544 19T587 11T604 2ZM643 1733Q643 1713 602 1663T539 1597Q447 1536 367 1536Q301 1536 230
1567T117 1634T76 1683Q76 1687 133 1726L195 1765Q203 1765 203 1753Q203 1687 262 1646T397 1604Q467 1604 520 1638T601 1708T635 1743Q643 1743 643 1733Z" />
<glyph unicode="&#x12e;" glyph-name="Iogonek" horiz-adv-x="720" d="M592 -332Q592 -355 531 -376T418 -397Q371 -397 326 -387T241 -347T201 -270Q201 -227 219 -187T276 -108T334 -52T399 0H385Q352 0 285 -2T182 -4Q155 -4 155 6T182 16Q229 16 256 47Q295
92 295 250V1249Q295 1329 272 1369T182 1417Q143 1421 143 1433T178 1446Q205 1446 256 1440T334 1434Q365 1434 427 1441T520 1448Q559 1448 559 1436Q559 1432 544 1427T506 1415T475 1403Q426 1372 426 1243V287Q426 213 429 172T446 89T492 31Q506 23 532
19T575 11T592 2Q592 -8 575 -8Q548 -8 504 -4T442 0Q309 -133 309 -223Q309 -276 343 -319T434 -362Q487 -362 532 -342T582 -322Q592 -322 592 -332Z" />
<glyph unicode="&#x12f;" glyph-name="iogonek" horiz-adv-x="720" d="M592 -332Q592 -355 531 -376T418 -397Q371 -397 326 -387T241 -347T201 -270Q201 -227 219 -187T276 -108T334 -52T399 0H385Q352 0 285 -2T182 -4Q155 -4 155 6T182 16Q229 16 256 47Q295
92 295 250V1249Q295 1329 272 1369T182 1417Q143 1421 143 1433T178 1446Q205 1446 256 1440T334 1434Q365 1434 427 1441T520 1448Q559 1448 559 1436Q559 1432 544 1427T506 1415T475 1403Q426 1372 426 1243V287Q426 213 429 172T446 89T492 31Q506 23 532
19T575 11T592 2Q592 -8 575 -8Q548 -8 504 -4T442 0Q309 -133 309 -223Q309 -276 343 -319T434 -362Q487 -362 532 -342T582 -322Q592 -322 592 -332Z" />
<glyph unicode="&#x130;" glyph-name="Idot" horiz-adv-x="720" d="M604 2Q604 -8 588 -8Q557 -8 494 -4T398 0T297 -2T195 -4Q168 -4 168 6T195 16Q242 16 268 47Q307 92 307 250V1249Q307 1329 284 1369T195 1417Q156 1421 156 1433T190 1446Q217 1446 268 1440T346
1434Q377 1434 439 1441T532 1448Q571 1448 571 1436Q571 1432 556 1427T519 1415T487 1403Q438 1372 438 1243V287Q438 213 441 172T458 89T504 31Q518 23 544 19T587 11T604 2ZM451 1636Q451 1593 426 1564T360 1534T295 1561T270 1630T296 1701T360 1731Q401
1731 426 1704T451 1636Z" />
<glyph unicode="&#x131;" glyph-name="dotlessi" horiz-adv-x="720" d="M592 2Q592 -8 575 -8Q544 -8 481 -4T385 0T285 -2T182 -4Q155 -4 155 6T182 16Q229 16 256 47Q295 92 295 250V1249Q295 1329 272 1369T182 1417Q143 1421 143 1433T178 1446Q205 1446 256
1440T334 1434Q365 1434 427 1441T520 1448Q559 1448 559 1436Q559 1432 544 1427T506 1415T475 1403Q426 1372 426 1243V287Q426 213 429 172T446 89T492 31Q506 23 532 19T575 11T592 2Z" />
<glyph unicode="&#x132;" glyph-name="IJ" horiz-adv-x="1404" d="M604 2Q604 -8 588 -8Q557 -8 494 -4T398 0T297 -2T195 -4Q168 -4 168 6T195 16Q242 16 268 47Q307 92 307 250V1249Q307 1329 284 1369T195 1417Q156 1421 156 1433T190 1446Q217 1446 268 1440T346
1434Q377 1434 439 1441T532 1448Q571 1448 571 1436Q571 1432 556 1427T519 1415T487 1403Q438 1372 438 1243V287Q438 213 441 172T458 89T504 31Q518 23 544 19T587 11T604 2ZM1315 1427Q1315 1419 1294 1419Q1259 1413 1244 1409T1210 1390T1182 1348Q1159
1270 1159 1012V53Q1159 -109 1055 -244T856 -379Q809 -379 809 -354Q809 -338 834 -338Q879 -338 912 -319T967 -256T1001 -169T1020 -49T1027 83T1028 236V1112Q1028 1214 1020 1280Q1014 1335 994 1367T957 1406T905 1419Q864 1429 864 1432Q864 1442 918 1442Q949
1442 1009 1438T1099 1434T1193 1438T1290 1442Q1315 1441 1315 1427Z" />
<glyph unicode="&#x133;" glyph-name="ij" horiz-adv-x="1406" d="M604 2Q604 -8 588 -8Q557 -8 494 -4T398 0T297 -2T195 -4Q168 -4 168 6T195 16Q242 16 268 47Q307 92 307 250V1249Q307 1329 284 1369T195 1417Q156 1421 156 1433T190 1446Q217 1446 268 1440T346
1434Q377 1434 439 1441T532 1448Q571 1448 571 1436Q571 1432 556 1427T519 1415T487 1403Q438 1372 438 1243V287Q438 213 441 172T458 89T504 31Q518 23 544 19T587 11T604 2ZM1315 1427Q1315 1419 1294 1419Q1259 1413 1244 1409T1210 1390T1182 1348Q1159
1270 1159 1012V53Q1159 -109 1055 -244T856 -379Q809 -379 809 -354Q809 -338 834 -338Q879 -338 912 -319T967 -256T1001 -169T1020 -49T1027 83T1028 236V1112Q1028 1214 1020 1280Q1014 1335 994 1367T957 1406T905 1419Q864 1429 864 1432Q864 1442 918 1442Q949
1442 1009 1438T1099 1434T1193 1438T1290 1442Q1315 1441 1315 1427Z" />
<glyph unicode="&#x134;" glyph-name="Jcircumflex" horiz-adv-x="686" d="M616 1606Q616 1600 576 1567T524 1534Q516 1534 428 1590T336 1647Q328 1647 195 1573Q183 1567 169 1558T146 1543T133 1538Q117 1538 117 1548Q117 1564 143 1577Q174 1593 275 1656T391
1729Q403 1737 412 1737Q416 1737 442 1716Q452 1708 496 1679T568 1632T606 1614T616 1606ZM594 1427Q594 1419 573 1419Q538 1413 523 1409T489 1390T461 1348Q438 1270 438 1012V53Q438 -109 334 -244T135 -379Q88 -379 88 -354Q88 -338 113 -338Q158 -338 191
-319T246 -256T280 -169T299 -49T306 83T307 236V1112Q307 1214 299 1280Q293 1335 273 1367T236 1406T184 1419Q143 1429 143 1432Q143 1442 197 1442Q228 1442 288 1438T379 1434T473 1438T569 1442Q594 1441 594 1427Z" />
<glyph unicode="&#x135;" glyph-name="jcircumflex" horiz-adv-x="686" d="M616 1606Q616 1600 576 1567T524 1534Q516 1534 428 1590T336 1647Q328 1647 195 1573Q183 1567 169 1558T146 1543T133 1538Q117 1538 117 1548Q117 1564 143 1577Q174 1593 275 1656T391
1729Q403 1737 412 1737Q416 1737 442 1716Q452 1708 496 1679T568 1632T606 1614T616 1606ZM594 1427Q594 1419 573 1419Q538 1413 523 1409T489 1390T461 1348Q438 1270 438 1012V53Q438 -109 334 -244T135 -379Q88 -379 88 -354Q88 -338 113 -338Q158 -338 191
-319T246 -256T280 -169T299 -49T306 83T307 236V1112Q307 1214 299 1280Q293 1335 273 1367T236 1406T184 1419Q143 1429 143 1432Q143 1442 197 1442Q228 1442 288 1438T379 1434T473 1438T569 1442Q594 1441 594 1427Z" />
<glyph unicode="&#x136;" glyph-name="Kcommaaccent" horiz-adv-x="1501" d="M1513 2Q1513 -12 1421 -12Q1392 -12 1334 -9T1247 -6Q1241 -6 1228 -8T1208 -10Q1196 -10 1178 8L575 584Q454 705 446 705T438 688V197Q438 78 492 39Q527 10 571 8Q598 8 598 -4Q598
-14 584 -14Q557 -14 501 -7T383 0Q348 0 285 -4T186 -8Q168 -8 168 2Q168 8 179 11T204 15T221 16Q258 28 283 70Q293 86 300 190T307 346V1264Q307 1305 291 1349T246 1409Q228 1419 190 1423Q174 1423 174 1430Q174 1442 221 1442Q250 1442 301 1438T381 1434T463
1438T544 1442T573 1434Q573 1428 563 1425T540 1420T522 1417Q475 1397 457 1341T438 1135V762Q438 750 444 750Q448 750 488 784T577 863L625 907L946 1202Q1081 1321 1081 1366Q1081 1397 1062 1407T1023 1419T1004 1430Q1004 1440 1032 1440Q1059 1440 1115
1437T1198 1434Q1280 1434 1333 1438T1395 1442Q1415 1442 1415 1436T1402 1425T1371 1415T1346 1409Q1272 1380 1128 1253L618 791Q598 771 598 764Q598 750 623 731L1178 205Q1334 55 1411 29Q1436 20 1460 16Q1462 16 1478 15T1504 12T1513 2ZM834 -233Q834
-323 707 -471Q699 -481 690 -481Q688 -481 688 -475Q688 -473 702 -442T730 -370T743 -303Q743 -280 705 -254T666 -221Q666 -201 696 -165T748 -129Q764 -129 799 -167T834 -233Z" />
<glyph unicode="&#x137;" glyph-name="kcommaaccent" horiz-adv-x="1501" d="M1513 2Q1513 -12 1421 -12Q1392 -12 1334 -9T1247 -6Q1241 -6 1228 -8T1208 -10Q1196 -10 1178 8L575 584Q454 705 446 705T438 688V197Q438 78 492 39Q527 10 571 8Q598 8 598 -4Q598
-14 584 -14Q557 -14 501 -7T383 0Q348 0 285 -4T186 -8Q168 -8 168 2Q168 8 179 11T204 15T221 16Q258 28 283 70Q293 86 300 190T307 346V1264Q307 1305 291 1349T246 1409Q228 1419 190 1423Q174 1423 174 1430Q174 1442 221 1442Q250 1442 301 1438T381 1434T463
1438T544 1442T573 1434Q573 1428 563 1425T540 1420T522 1417Q475 1397 457 1341T438 1135V762Q438 750 444 750Q448 750 488 784T577 863L625 907L946 1202Q1081 1321 1081 1366Q1081 1397 1062 1407T1023 1419T1004 1430Q1004 1440 1032 1440Q1059 1440 1115
1437T1198 1434Q1280 1434 1333 1438T1395 1442Q1415 1442 1415 1436T1402 1425T1371 1415T1346 1409Q1272 1380 1128 1253L618 791Q598 771 598 764Q598 750 623 731L1178 205Q1334 55 1411 29Q1436 20 1460 16Q1462 16 1478 15T1504 12T1513 2ZM834 -233Q834
-323 707 -471Q699 -481 690 -481Q688 -481 688 -475Q688 -473 702 -442T730 -370T743 -303Q743 -280 705 -254T666 -221Q666 -201 696 -165T748 -129Q764 -129 799 -167T834 -233Z" />
<glyph unicode="&#x138;" glyph-name="kgreenlandic" horiz-adv-x="1501" d="M1513 2Q1513 -12 1421 -12Q1392 -12 1334 -9T1247 -6Q1241 -6 1228 -8T1208 -10Q1196 -10 1178 8L575 584Q454 705 446 705T438 688V197Q438 78 492 39Q527 10 571 8Q598 8 598 -4Q598
-14 584 -14Q557 -14 501 -7T383 0Q348 0 285 -4T186 -8Q168 -8 168 2Q168 8 179 11T204 15T221 16Q258 28 283 70Q293 86 300 190T307 346V1264Q307 1305 291 1349T246 1409Q228 1419 190 1423Q174 1423 174 1430Q174 1442 221 1442Q250 1442 301 1438T381 1434T463
1438T544 1442T573 1434Q573 1428 563 1425T540 1420T522 1417Q475 1397 457 1341T438 1135V762Q438 750 444 750Q448 750 488 784T577 863L625 907L946 1202Q1081 1321 1081 1366Q1081 1397 1062 1407T1023 1419T1004 1430Q1004 1440 1032 1440Q1059 1440 1115
1437T1198 1434Q1280 1434 1333 1438T1395 1442Q1415 1442 1415 1436T1402 1425T1371 1415T1346 1409Q1272 1380 1128 1253L618 791Q598 771 598 764Q598 750 623 731L1178 205Q1334 55 1411 29Q1436 20 1460 16Q1462 16 1478 15T1504 12T1513 2Z" />
<glyph unicode="&#x139;" glyph-name="Lacute" horiz-adv-x="1026" d="M995 188T995 180T975 113T948 10Q946 -4 932 -4Q842 -4 663 -2T393 0Q362 0 301 -2T209 -4Q180 -4 180 4Q180 10 186 12T201 14T211 14Q258 24 276 61Q307 122 307 324V1251Q307 1345 274
1389Q260 1409 203 1421Q180 1429 180 1434Q180 1442 205 1442Q234 1442 290 1438T374 1434T459 1438T545 1442Q557 1442 557 1432Q557 1426 528 1417Q485 1407 465 1380Q438 1343 438 1272V387Q438 307 444 223Q448 112 512 98Q586 82 739 82Q880 82 909 104Q919
112 936 134T968 172T987 188Q995 188 995 180ZM748 1593T748 1583T737 1573Q729 1573 705 1586T670 1599Q662 1599 604 1592T463 1571T336 1542Q334 1542 323 1538T307 1534Q297 1534 297 1544Q297 1550 311 1561Q340 1579 472 1642T623 1706Q633 1706 690 1650Z"
/>
<glyph unicode="&#x13a;" glyph-name="lacute" horiz-adv-x="1026" d="M995 188T995 180T975 113T948 10Q946 -4 932 -4Q842 -4 663 -2T393 0Q362 0 301 -2T209 -4Q180 -4 180 4Q180 10 186 12T201 14T211 14Q258 24 276 61Q307 122 307 324V1251Q307 1345 274
1389Q260 1409 203 1421Q180 1429 180 1434Q180 1442 205 1442Q234 1442 290 1438T374 1434T459 1438T545 1442Q557 1442 557 1432Q557 1426 528 1417Q485 1407 465 1380Q438 1343 438 1272V387Q438 307 444 223Q448 112 512 98Q586 82 739 82Q880 82 909 104Q919
112 936 134T968 172T987 188Q995 188 995 180ZM748 1593T748 1583T737 1573Q729 1573 705 1586T670 1599Q662 1599 604 1592T463 1571T336 1542Q334 1542 323 1538T307 1534Q297 1534 297 1544Q297 1550 311 1561Q340 1579 472 1642T623 1706Q633 1706 690 1650Z"
/>
<glyph unicode="&#x13b;" glyph-name="Lcommaaccent" horiz-adv-x="1026" d="M995 188T995 180T975 113T948 10Q946 -4 932 -4Q842 -4 663 -2T393 0Q362 0 301 -2T209 -4Q180 -4 180 4Q180 10 186 12T201 14T211 14Q258 24 276 61Q307 122 307 324V1251Q307 1345
274 1389Q260 1409 203 1421Q180 1429 180 1434Q180 1442 205 1442Q234 1442 290 1438T374 1434T459 1438T545 1442Q557 1442 557 1432Q557 1426 528 1417Q485 1407 465 1380Q438 1343 438 1272V387Q438 307 444 223Q448 112 512 98Q586 82 739 82Q880 82 909 104Q919
112 936 134T968 172T987 188Q995 188 995 180ZM688 -233Q688 -323 561 -471Q553 -481 545 -481Q543 -481 543 -475Q543 -473 556 -442T583 -370T598 -303Q598 -280 559 -254T520 -221Q520 -201 551 -165T602 -129Q618 -129 653 -167T688 -233Z" />
<glyph unicode="&#x13c;" glyph-name="lcommaaccent" horiz-adv-x="1026" d="M995 188T995 180T975 113T948 10Q946 -4 932 -4Q842 -4 663 -2T393 0Q362 0 301 -2T209 -4Q180 -4 180 4Q180 10 186 12T201 14T211 14Q258 24 276 61Q307 122 307 324V1251Q307 1345
274 1389Q260 1409 203 1421Q180 1429 180 1434Q180 1442 205 1442Q234 1442 290 1438T374 1434T459 1438T545 1442Q557 1442 557 1432Q557 1426 528 1417Q485 1407 465 1380Q438 1343 438 1272V387Q438 307 444 223Q448 112 512 98Q586 82 739 82Q880 82 909 104Q919
112 936 134T968 172T987 188Q995 188 995 180ZM688 -233Q688 -323 561 -471Q553 -481 545 -481Q543 -481 543 -475Q543 -473 556 -442T583 -370T598 -303Q598 -280 559 -254T520 -221Q520 -201 551 -165T602 -129Q618 -129 653 -167T688 -233Z" />
<glyph unicode="&#x13d;" glyph-name="Lcaron" horiz-adv-x="1026" d="M995 188T995 180T975 113T948 10Q946 -4 932 -4Q842 -4 663 -2T393 0Q362 0 301 -2T209 -4Q180 -4 180 4Q180 10 186 12T201 14T211 14Q258 24 276 61Q307 122 307 324V1251Q307 1345 274
1389Q260 1409 203 1421Q180 1429 180 1434Q180 1442 205 1442Q234 1442 290 1438T374 1434T459 1438T545 1442Q557 1442 557 1432Q557 1426 528 1417Q485 1407 465 1380Q438 1343 438 1272V387Q438 307 444 223Q448 112 512 98Q586 82 739 82Q880 82 909 104Q919
112 936 134T968 172T987 188Q995 188 995 180ZM811 1350Q811 1301 762 1209T672 1067Q662 1053 653 1051Q649 1051 649 1057Q649 1059 664 1086T694 1153T709 1225Q709 1264 693 1294T660 1341T643 1366Q643 1378 689 1422T754 1466Q768 1466 789 1417T811 1350Z"
/>
<glyph unicode="&#x13e;" glyph-name="lcaron" horiz-adv-x="1026" d="M995 188T995 180T975 113T948 10Q946 -4 932 -4Q842 -4 663 -2T393 0Q362 0 301 -2T209 -4Q180 -4 180 4Q180 10 186 12T201 14T211 14Q258 24 276 61Q307 122 307 324V1251Q307 1345 274
1389Q260 1409 203 1421Q180 1429 180 1434Q180 1442 205 1442Q234 1442 290 1438T374 1434T459 1438T545 1442Q557 1442 557 1432Q557 1426 528 1417Q485 1407 465 1380Q438 1343 438 1272V387Q438 307 444 223Q448 112 512 98Q586 82 739 82Q880 82 909 104Q919
112 936 134T968 172T987 188Q995 188 995 180ZM811 1350Q811 1301 762 1209T672 1067Q662 1053 653 1051Q649 1051 649 1057Q649 1059 664 1086T694 1153T709 1225Q709 1264 693 1294T660 1341T643 1366Q643 1378 689 1422T754 1466Q768 1466 789 1417T811 1350Z"
/>
<glyph unicode="&#x13f;" glyph-name="Ldot" horiz-adv-x="1026" d="M995 188T995 180T975 113T948 10Q946 -4 932 -4Q842 -4 663 -2T393 0Q362 0 301 -2T209 -4Q180 -4 180 4Q180 10 186 12T201 14T211 14Q258 24 276 61Q307 122 307 324V1251Q307 1345 274 1389Q260
1409 203 1421Q180 1429 180 1434Q180 1442 205 1442Q234 1442 290 1438T374 1434T459 1438T545 1442Q557 1442 557 1432Q557 1426 528 1417Q485 1407 465 1380Q438 1343 438 1272V387Q438 307 444 223Q448 112 512 98Q586 82 739 82Q880 82 909 104Q919 112 936
134T968 172T987 188Q995 188 995 180ZM629 707T629 750T656 819T725 846T794 821T823 752Q823 707 797 678T725 649Q684 649 657 678Z" />
<glyph unicode="&#x140;" glyph-name="ldot" horiz-adv-x="1026" d="M995 188T995 180T975 113T948 10Q946 -4 932 -4Q842 -4 663 -2T393 0Q362 0 301 -2T209 -4Q180 -4 180 4Q180 10 186 12T201 14T211 14Q258 24 276 61Q307 122 307 324V1251Q307 1345 274 1389Q260
1409 203 1421Q180 1429 180 1434Q180 1442 205 1442Q234 1442 290 1438T374 1434T459 1438T545 1442Q557 1442 557 1432Q557 1426 528 1417Q485 1407 465 1380Q438 1343 438 1272V387Q438 307 444 223Q448 112 512 98Q586 82 739 82Q880 82 909 104Q919 112 936
134T968 172T987 188Q995 188 995 180ZM629 707T629 750T656 819T725 846T794 821T823 752Q823 707 797 678T725 649Q684 649 657 678Z" />
<glyph unicode="&#x141;" glyph-name="Lslash" horiz-adv-x="1044" d="M743 883L426 727V387Q426 307 432 223Q436 112 500 98Q574 82 727 82Q868 82 897 104Q907 112 924 134T956 172T975 188Q983 188 983 180T963 113T936 10Q934 -4 920 -4Q830 -4 651 -2T381
0Q350 0 289 -2T197 -4Q168 -4 168 4Q168 10 174 12T188 14T199 14Q246 24 264 61Q295 122 295 324V674L117 588Q105 582 100 582Q94 582 92 590L74 627Q68 639 68 643T74 651L295 760V1251Q295 1345 262 1389Q248 1409 190 1421Q167 1429 168 1434Q168 1442 193
1442Q222 1442 278 1438T362 1434T447 1438T532 1442Q544 1442 545 1432Q545 1426 516 1417Q473 1407 453 1380Q426 1343 426 1272V813L713 954Q721 958 723 958Q727 958 733 946L752 911Q758 901 758 897Q757 889 743 883Z" />
<glyph unicode="&#x142;" glyph-name="lslash" horiz-adv-x="1044" d="M743 883L426 727V387Q426 307 432 223Q436 112 500 98Q574 82 727 82Q868 82 897 104Q907 112 924 134T956 172T975 188Q983 188 983 180T963 113T936 10Q934 -4 920 -4Q830 -4 651 -2T381
0Q350 0 289 -2T197 -4Q168 -4 168 4Q168 10 174 12T188 14T199 14Q246 24 264 61Q295 122 295 324V674L117 588Q105 582 100 582Q94 582 92 590L74 627Q68 639 68 643T74 651L295 760V1251Q295 1345 262 1389Q248 1409 190 1421Q167 1429 168 1434Q168 1442 193
1442Q222 1442 278 1438T362 1434T447 1438T532 1442Q544 1442 545 1432Q545 1426 516 1417Q473 1407 453 1380Q426 1343 426 1272V813L713 954Q721 958 723 958Q727 958 733 946L752 911Q758 901 758 897Q757 889 743 883Z" />
<glyph unicode="&#x143;" glyph-name="Nacute" horiz-adv-x="1761" d="M1651 1436Q1651 1432 1640 1428T1610 1418T1579 1407Q1540 1384 1540 1135V29Q1540 -41 1528 -41Q1518 -41 1496 -22T1446 28T1417 61L436 1126Q399 1167 393 1167Q385 1167 385 1114V244Q385
82 444 37Q467 21 496 14Q529 8 528 2Q528 -10 489 -10Q462 -10 417 -5T344 0Q319 0 266 -3T188 -6Q155 -6 156 4Q156 8 170 11T205 17T238 29Q287 64 287 250V1106L286 1239Q285 1372 285 1384Q285 1456 303 1456Q309 1456 321 1447T344 1428T366 1404T381 1389L1405
272Q1430 247 1436 248Q1446 248 1446 301L1434 1122Q1434 1339 1399 1386Q1387 1404 1363 1413T1322 1427T1305 1438Q1305 1448 1323 1448Q1348 1448 1397 1441T1472 1434T1548 1439T1624 1444T1651 1436ZM1167 1593T1167 1583T1157 1573Q1149 1573 1125 1586T1090
1599Q1082 1599 1024 1592T883 1571T756 1542Q754 1542 743 1538T727 1534Q717 1534 717 1544Q717 1550 731 1561Q758 1579 891 1642T1042 1706Q1052 1706 1109 1650Z" />
<glyph unicode="&#x144;" glyph-name="nacute" horiz-adv-x="1761" d="M1651 1436Q1651 1432 1640 1428T1610 1418T1579 1407Q1540 1384 1540 1135V29Q1540 -41 1528 -41Q1518 -41 1496 -22T1446 28T1417 61L436 1126Q399 1167 393 1167Q385 1167 385 1114V244Q385
82 444 37Q467 21 496 14Q529 8 528 2Q528 -10 489 -10Q462 -10 417 -5T344 0Q319 0 266 -3T188 -6Q155 -6 156 4Q156 8 170 11T205 17T238 29Q287 64 287 250V1106L286 1239Q285 1372 285 1384Q285 1456 303 1456Q309 1456 321 1447T344 1428T366 1404T381 1389L1405
272Q1430 247 1436 248Q1446 248 1446 301L1434 1122Q1434 1339 1399 1386Q1387 1404 1363 1413T1322 1427T1305 1438Q1305 1448 1323 1448Q1348 1448 1397 1441T1472 1434T1548 1439T1624 1444T1651 1436ZM1167 1593T1167 1583T1157 1573Q1149 1573 1125 1586T1090
1599Q1082 1599 1024 1592T883 1571T756 1542Q754 1542 743 1538T727 1534Q717 1534 717 1544Q717 1550 731 1561Q758 1579 891 1642T1042 1706Q1052 1706 1109 1650Z" />
<glyph unicode="&#x145;" glyph-name="Ncommaaccent" horiz-adv-x="1761" d="M1651 1436Q1651 1432 1640 1428T1610 1418T1579 1407Q1540 1384 1540 1135V29Q1540 -41 1528 -41Q1518 -41 1496 -22T1446 28T1417 61L436 1126Q399 1167 393 1167Q385 1167 385 1114V244Q385
82 444 37Q467 21 496 14Q529 8 528 2Q528 -10 489 -10Q462 -10 417 -5T344 0Q319 0 266 -3T188 -6Q155 -6 156 4Q156 8 170 11T205 17T238 29Q287 64 287 250V1106L286 1239Q285 1372 285 1384Q285 1456 303 1456Q309 1456 321 1447T344 1428T366 1404T381 1389L1405
272Q1430 247 1436 248Q1446 248 1446 301L1434 1122Q1434 1339 1399 1386Q1387 1404 1363 1413T1322 1427T1305 1438Q1305 1448 1323 1448Q1348 1448 1397 1441T1472 1434T1548 1439T1624 1444T1651 1436ZM965 -233Q965 -323 838 -471Q830 -481 821 -481Q819 -481
819 -475Q819 -473 833 -442T861 -370T874 -303Q874 -280 836 -254T797 -221Q797 -201 827 -165T879 -129Q895 -129 930 -167T965 -233Z" />
<glyph unicode="&#x146;" glyph-name="ncommaaccent" horiz-adv-x="1761" d="M1651 1436Q1651 1432 1640 1428T1610 1418T1579 1407Q1540 1384 1540 1135V29Q1540 -41 1528 -41Q1518 -41 1496 -22T1446 28T1417 61L436 1126Q399 1167 393 1167Q385 1167 385 1114V244Q385
82 444 37Q467 21 496 14Q529 8 528 2Q528 -10 489 -10Q462 -10 417 -5T344 0Q319 0 266 -3T188 -6Q155 -6 156 4Q156 8 170 11T205 17T238 29Q287 64 287 250V1106L286 1239Q285 1372 285 1384Q285 1456 303 1456Q309 1456 321 1447T344 1428T366 1404T381 1389L1405
272Q1430 247 1436 248Q1446 248 1446 301L1434 1122Q1434 1339 1399 1386Q1387 1404 1363 1413T1322 1427T1305 1438Q1305 1448 1323 1448Q1348 1448 1397 1441T1472 1434T1548 1439T1624 1444T1651 1436ZM965 -233Q965 -323 838 -471Q830 -481 821 -481Q819 -481
819 -475Q819 -473 833 -442T861 -370T874 -303Q874 -280 836 -254T797 -221Q797 -201 827 -165T879 -129Q895 -129 930 -167T965 -233Z" />
<glyph unicode="&#x147;" glyph-name="Ncaron" horiz-adv-x="1761" d="M1651 1436Q1651 1432 1640 1428T1610 1418T1579 1407Q1540 1384 1540 1135V29Q1540 -41 1528 -41Q1518 -41 1496 -22T1446 28T1417 61L436 1126Q399 1167 393 1167Q385 1167 385 1114V244Q385
82 444 37Q467 21 496 14Q529 8 528 2Q528 -10 489 -10Q462 -10 417 -5T344 0Q319 0 266 -3T188 -6Q155 -6 156 4Q156 8 170 11T205 17T238 29Q287 64 287 250V1106L286 1239Q285 1372 285 1384Q285 1456 303 1456Q309 1456 321 1447T344 1428T366 1404T381 1389L1405
272Q1430 247 1436 248Q1446 248 1446 301L1434 1122Q1434 1339 1399 1386Q1387 1404 1363 1413T1322 1427T1305 1438Q1305 1448 1323 1448Q1348 1448 1397 1441T1472 1434T1548 1439T1624 1444T1651 1436ZM641 1665Q641 1671 682 1704T733 1737Q741 1737 829 1681T922
1624Q951 1624 1042 1698Q1087 1733 1103 1733T1120 1722Q1120 1708 1094 1694T990 1618T887 1542Q875 1534 866 1534Q862 1534 836 1554Q678 1656 651 1657Q641 1657 641 1665Z" />
<glyph unicode="&#x148;" glyph-name="ncaron" horiz-adv-x="1761" d="M1651 1436Q1651 1432 1640 1428T1610 1418T1579 1407Q1540 1384 1540 1135V29Q1540 -41 1528 -41Q1518 -41 1496 -22T1446 28T1417 61L436 1126Q399 1167 393 1167Q385 1167 385 1114V244Q385
82 444 37Q467 21 496 14Q529 8 528 2Q528 -10 489 -10Q462 -10 417 -5T344 0Q319 0 266 -3T188 -6Q155 -6 156 4Q156 8 170 11T205 17T238 29Q287 64 287 250V1106L286 1239Q285 1372 285 1384Q285 1456 303 1456Q309 1456 321 1447T344 1428T366 1404T381 1389L1405
272Q1430 247 1436 248Q1446 248 1446 301L1434 1122Q1434 1339 1399 1386Q1387 1404 1363 1413T1322 1427T1305 1438Q1305 1448 1323 1448Q1348 1448 1397 1441T1472 1434T1548 1439T1624 1444T1651 1436ZM641 1665Q641 1671 682 1704T733 1737Q741 1737 829 1681T922
1624Q951 1624 1042 1698Q1087 1733 1103 1733T1120 1722Q1120 1708 1094 1694T990 1618T887 1542Q875 1534 866 1534Q862 1534 836 1554Q678 1656 651 1657Q641 1657 641 1665Z" />
<glyph unicode="&#x149;" glyph-name="napostrophe" horiz-adv-x="1861" d="M1751 1436Q1751 1432 1740 1428T1711 1418T1679 1407Q1640 1384 1640 1135V29Q1640 -41 1628 -41Q1618 -41 1596 -22T1547 28T1518 61L537 1126Q500 1167 494 1167Q486 1167 485 1114V244Q485
82 545 37Q568 21 596 14Q629 8 629 2Q629 -10 590 -10Q563 -10 517 -5T445 0T367 -3T289 -6Q256 -6 256 4Q256 8 270 11T306 17T338 29Q387 64 387 250V1106L386 1239Q385 1372 385 1384Q385 1456 403 1456Q409 1456 421 1447T444 1428T467 1404T481 1389L1505
272Q1530 247 1536 248Q1546 248 1546 301L1534 1122Q1534 1339 1499 1386Q1487 1404 1464 1413T1423 1427T1405 1438Q1405 1448 1423 1448Q1448 1448 1497 1441T1573 1434Q1598 1434 1649 1439T1724 1444Q1751 1444 1751 1436ZM188 1350Q188 1301 139 1209T49
1067Q39 1053 31 1051Q27 1051 27 1057Q27 1059 41 1086T70 1153T86 1225Q86 1264 70 1294T37 1341T20 1366Q20 1378 66 1422T131 1466Q145 1466 166 1417T188 1350Z" />
<glyph unicode="&#x14a;" glyph-name="Eng" horiz-adv-x="1740" d="M1405 39L403 1126Q366 1167 360 1167Q352 1167 352 1114V244Q352 82 412 37Q435 21 463 14Q496 8 496 2Q496 -10 457 -10Q430 -10 384 -5T311 0Q286 0 233 -3T156 -6Q123 -6 123 4Q123 8 137
11T173 17T205 29Q254 64 254 250V1106L253 1239Q252 1372 252 1384Q252 1456 270 1456Q276 1456 288 1447T311 1428T334 1404T348 1389L1372 272Q1397 247 1403 248Q1413 248 1413 301L1401 1122Q1401 1339 1366 1386Q1354 1404 1331 1413T1290 1427T1272 1438Q1272
1448 1290 1448Q1315 1448 1364 1441T1439 1434T1515 1439T1591 1444T1618 1436Q1618 1432 1607 1428T1577 1418T1546 1407Q1507 1384 1507 1135V51Q1507 -111 1403 -245T1204 -379Q1157 -379 1157 -354Q1157 -338 1182 -338Q1254 -338 1303 -284T1371 -152T1398
-28T1405 39Z" />
<glyph unicode="&#x14b;" glyph-name="eng" horiz-adv-x="1740" d="M1405 39L403 1126Q366 1167 360 1167Q352 1167 352 1114V244Q352 82 412 37Q435 21 463 14Q496 8 496 2Q496 -10 457 -10Q430 -10 384 -5T311 0Q286 0 233 -3T156 -6Q123 -6 123 4Q123 8 137
11T173 17T205 29Q254 64 254 250V1106L253 1239Q252 1372 252 1384Q252 1456 270 1456Q276 1456 288 1447T311 1428T334 1404T348 1389L1372 272Q1397 247 1403 248Q1413 248 1413 301L1401 1122Q1401 1339 1366 1386Q1354 1404 1331 1413T1290 1427T1272 1438Q1272
1448 1290 1448Q1315 1448 1364 1441T1439 1434T1515 1439T1591 1444T1618 1436Q1618 1432 1607 1428T1577 1418T1546 1407Q1507 1384 1507 1135V51Q1507 -111 1403 -245T1204 -379Q1157 -379 1157 -354Q1157 -338 1182 -338Q1254 -338 1303 -284T1371 -152T1398
-28T1405 39Z" />
<glyph unicode="&#x14c;" glyph-name="Omacron" horiz-adv-x="1576" d="M1495 748Q1495 412 1320 190T817 -33Q487 -33 285 171T82 705Q82 836 104 926Q161 1162 338 1314T756 1466Q924 1466 1032 1430Q1245 1354 1370 1166T1495 748ZM1352 590Q1352 731 1317
869T1215 1130T1028 1329T758 1405Q500 1405 367 1227T233 782Q233 596 297 428T503 145T836 29Q1082 29 1217 184T1352 590ZM1022 1630Q1040 1630 1040 1614Q1040 1608 1036 1599T1024 1570T1008 1532Q1000 1516 991 1516Q989 1516 978 1521T945 1531T895 1536H637Q610
1536 583 1529T553 1522Q535 1522 535 1534Q535 1544 545 1565Q549 1573 555 1592T566 1619T581 1626T616 1620T655 1614H895Q938 1614 977 1622T1022 1630Z" />
<glyph unicode="&#x14d;" glyph-name="omacron" horiz-adv-x="1576" d="M1495 748Q1495 412 1320 190T817 -33Q487 -33 285 171T82 705Q82 836 104 926Q161 1162 338 1314T756 1466Q924 1466 1032 1430Q1245 1354 1370 1166T1495 748ZM1352 590Q1352 731 1317
869T1215 1130T1028 1329T758 1405Q500 1405 367 1227T233 782Q233 596 297 428T503 145T836 29Q1082 29 1217 184T1352 590ZM1022 1630Q1040 1630 1040 1614Q1040 1608 1036 1599T1024 1570T1008 1532Q1000 1516 991 1516Q989 1516 978 1521T945 1531T895 1536H637Q610
1536 583 1529T553 1522Q535 1522 535 1534Q535 1544 545 1565Q549 1573 555 1592T566 1619T581 1626T616 1620T655 1614H895Q938 1614 977 1622T1022 1630Z" />
<glyph unicode="&#x14e;" glyph-name="Obreve" horiz-adv-x="1576" d="M1495 748Q1495 412 1320 190T817 -33Q487 -33 285 171T82 705Q82 836 104 926Q161 1162 338 1314T756 1466Q924 1466 1032 1430Q1245 1354 1370 1166T1495 748ZM1352 590Q1352 731 1317 869T1215
1130T1028 1329T758 1405Q500 1405 367 1227T233 782Q233 596 297 428T503 145T836 29Q1082 29 1217 184T1352 590ZM1071 1733Q1071 1713 1030 1663T967 1597Q875 1536 795 1536Q729 1536 658 1567T545 1634T504 1683Q504 1687 561 1726L623 1765Q631 1765 631
1753Q631 1687 690 1646T825 1604Q895 1604 948 1638T1029 1708T1063 1743Q1071 1743 1071 1733Z" />
<glyph unicode="&#x14f;" glyph-name="obreve" horiz-adv-x="1576" d="M1495 748Q1495 412 1320 190T817 -33Q487 -33 285 171T82 705Q82 836 104 926Q161 1162 338 1314T756 1466Q924 1466 1032 1430Q1245 1354 1370 1166T1495 748ZM1352 590Q1352 731 1317 869T1215
1130T1028 1329T758 1405Q500 1405 367 1227T233 782Q233 596 297 428T503 145T836 29Q1082 29 1217 184T1352 590ZM1071 1733Q1071 1713 1030 1663T967 1597Q875 1536 795 1536Q729 1536 658 1567T545 1634T504 1683Q504 1687 561 1726L623 1765Q631 1765 631
1753Q631 1687 690 1646T825 1604Q895 1604 948 1638T1029 1708T1063 1743Q1071 1743 1071 1733Z" />
<glyph unicode="&#x150;" glyph-name="Ohungarumlaut" horiz-adv-x="1576" d="M1495 748Q1495 412 1320 190T817 -33Q487 -33 285 171T82 705Q82 836 104 926Q161 1162 338 1314T756 1466Q924 1466 1032 1430Q1245 1354 1370 1166T1495 748ZM1352 590Q1352 731
1317 869T1215 1130T1028 1329T758 1405Q500 1405 367 1227T233 782Q233 596 297 428T503 145T836 29Q1082 29 1217 184T1352 590ZM1233 1702Q1233 1694 1221 1694Q1213 1694 1195 1699T1167 1704Q1151 1704 1018 1619T877 1534T868 1540Q868 1554 976 1669T1098
1784Q1123 1784 1210 1724Q1233 1708 1233 1702ZM891 1718Q891 1708 862 1708H836Q809 1708 705 1622T598 1536Q590 1536 590 1546Q590 1560 666 1676T752 1792Q764 1792 827 1757T891 1718Z" />
<glyph unicode="&#x151;" glyph-name="ohungarumlaut" horiz-adv-x="1576" d="M1495 748Q1495 412 1320 190T817 -33Q487 -33 285 171T82 705Q82 836 104 926Q161 1162 338 1314T756 1466Q924 1466 1032 1430Q1245 1354 1370 1166T1495 748ZM1352 590Q1352 731
1317 869T1215 1130T1028 1329T758 1405Q500 1405 367 1227T233 782Q233 596 297 428T503 145T836 29Q1082 29 1217 184T1352 590ZM1233 1702Q1233 1694 1221 1694Q1213 1694 1195 1699T1167 1704Q1151 1704 1018 1619T877 1534T868 1540Q868 1554 976 1669T1098
1784Q1123 1784 1210 1724Q1233 1708 1233 1702ZM891 1718Q891 1708 862 1708H836Q809 1708 705 1622T598 1536Q590 1536 590 1546Q590 1560 666 1676T752 1792Q764 1792 827 1757T891 1718Z" />
<glyph unicode="&#x152;" glyph-name="OE" horiz-adv-x="1873" d="M1700 1292Q1700 1280 1692 1280Q1686 1280 1675 1294Q1661 1323 1646 1333T1591 1354Q1544 1366 1475 1366H1227Q1207 1366 1200 1364T1187 1354T1182 1327V844Q1182 819 1187 811T1217 803H1450Q1544
803 1569 825Q1589 841 1595 864Q1605 907 1612 907Q1622 907 1622 868Q1622 852 1619 822T1616 776Q1616 751 1618 703T1620 631Q1620 611 1612 610Q1608 610 1605 617T1601 636T1599 649Q1593 665 1579 684Q1556 713 1477 713H1212Q1192 713 1187 706T1182 676V197Q1182
144 1210 117Q1253 78 1411 78Q1634 78 1688 152Q1690 156 1693 161T1699 171T1705 179T1712 182Q1720 182 1720 174Q1720 154 1697 87T1661 8Q1647 -6 1610 -6Q1540 -6 1382 -3T1153 0Q1100 0 990 -16T817 -33Q487 -33 285 171T82 705Q82 836 104 926Q161 1162
338 1314T756 1466Q840 1466 943 1450T1104 1434Q1184 1434 1344 1439T1585 1444Q1601 1444 1636 1446T1690 1448Q1698 1448 1698 1434Q1698 1428 1697 1416T1696 1399Q1696 1381 1698 1346T1700 1292ZM836 29Q938 29 1016 55Q1020 61 1024 70Q1051 142 1051 584V1278Q1051
1303 1049 1315Q924 1405 758 1405Q500 1405 367 1227T233 782Q233 596 297 428T504 145T836 29Z" />
<glyph unicode="&#x153;" glyph-name="oe" horiz-adv-x="1873" d="M1700 1292Q1700 1280 1692 1280Q1686 1280 1675 1294Q1661 1323 1646 1333T1591 1354Q1544 1366 1475 1366H1227Q1207 1366 1200 1364T1187 1354T1182 1327V844Q1182 819 1187 811T1217 803H1450Q1544
803 1569 825Q1589 841 1595 864Q1605 907 1612 907Q1622 907 1622 868Q1622 852 1619 822T1616 776Q1616 751 1618 703T1620 631Q1620 611 1612 610Q1608 610 1605 617T1601 636T1599 649Q1593 665 1579 684Q1556 713 1477 713H1212Q1192 713 1187 706T1182 676V197Q1182
144 1210 117Q1253 78 1411 78Q1634 78 1688 152Q1690 156 1693 161T1699 171T1705 179T1712 182Q1720 182 1720 174Q1720 154 1697 87T1661 8Q1647 -6 1610 -6Q1540 -6 1382 -3T1153 0Q1100 0 990 -16T817 -33Q487 -33 285 171T82 705Q82 836 104 926Q161 1162
338 1314T756 1466Q840 1466 943 1450T1104 1434Q1184 1434 1344 1439T1585 1444Q1601 1444 1636 1446T1690 1448Q1698 1448 1698 1434Q1698 1428 1697 1416T1696 1399Q1696 1381 1698 1346T1700 1292ZM836 29Q938 29 1016 55Q1020 61 1024 70Q1051 142 1051 584V1278Q1051
1303 1049 1315Q924 1405 758 1405Q500 1405 367 1227T233 782Q233 596 297 428T504 145T836 29Z" />
<glyph unicode="&#x154;" glyph-name="Racute" horiz-adv-x="1497" d="M1509 12Q1509 -4 1466 -4Q1357 -4 1301 2T1178 43T1059 150L844 455Q836 467 812 505T773 564T730 605T672 625H467Q438 625 438 598V322Q438 129 471 68Q487 35 524 23Q532 19 552 18T586
13T600 4Q600 -8 567 -8Q536 -8 479 -4T391 0Q364 0 307 -3T223 -6Q172 -6 172 2T185 14T218 21T246 31Q307 76 307 201V1266Q307 1407 180 1419Q155 1423 156 1430Q156 1442 184 1442Q217 1442 276 1438T369 1434Q414 1434 500 1441T631 1448Q817 1448 943 1359T1069
1092Q1069 983 1010 875T860 700Q852 688 852 680T866 651L1143 279Q1206 195 1298 109T1458 23Q1464 23 1475 24T1493 25Q1509 24 1509 12ZM938 1020Q938 1182 835 1276T567 1370H506Q438 1370 438 1270V721Q438 690 588 690H676Q758 690 784 702Q860 737 899
831T938 1020ZM973 1593T973 1583T963 1573Q955 1573 930 1586T895 1599Q887 1599 829 1592T688 1571T561 1542Q559 1542 548 1538T532 1534Q522 1534 522 1544Q522 1550 537 1561Q566 1579 697 1642T848 1706Q858 1706 915 1650Z" />
<glyph unicode="&#x155;" glyph-name="racute" horiz-adv-x="1497" d="M1509 12Q1509 -4 1466 -4Q1357 -4 1301 2T1178 43T1059 150L844 455Q836 467 812 505T773 564T730 605T672 625H467Q438 625 438 598V322Q438 129 471 68Q487 35 524 23Q532 19 552 18T586
13T600 4Q600 -8 567 -8Q536 -8 479 -4T391 0Q364 0 307 -3T223 -6Q172 -6 172 2T185 14T218 21T246 31Q307 76 307 201V1266Q307 1407 180 1419Q155 1423 156 1430Q156 1442 184 1442Q217 1442 276 1438T369 1434Q414 1434 500 1441T631 1448Q817 1448 943 1359T1069
1092Q1069 983 1010 875T860 700Q852 688 852 680T866 651L1143 279Q1206 195 1298 109T1458 23Q1464 23 1475 24T1493 25Q1509 24 1509 12ZM938 1020Q938 1182 835 1276T567 1370H506Q438 1370 438 1270V721Q438 690 588 690H676Q758 690 784 702Q860 737 899
831T938 1020ZM973 1593T973 1583T963 1573Q955 1573 930 1586T895 1599Q887 1599 829 1592T688 1571T561 1542Q559 1542 548 1538T532 1534Q522 1534 522 1544Q522 1550 537 1561Q566 1579 697 1642T848 1706Q858 1706 915 1650Z" />
<glyph unicode="&#x156;" glyph-name="Rcommaaccent" horiz-adv-x="1497" d="M1509 12Q1509 -4 1466 -4Q1357 -4 1301 2T1178 43T1059 150L844 455Q836 467 812 505T773 564T730 605T672 625H467Q438 625 438 598V322Q438 129 471 68Q487 35 524 23Q532 19 552
18T586 13T600 4Q600 -8 567 -8Q536 -8 479 -4T391 0Q364 0 307 -3T223 -6Q172 -6 172 2T185 14T218 21T246 31Q307 76 307 201V1266Q307 1407 180 1419Q155 1423 156 1430Q156 1442 184 1442Q217 1442 276 1438T369 1434Q414 1434 500 1441T631 1448Q817 1448
943 1359T1069 1092Q1069 983 1010 875T860 700Q852 688 852 680T866 651L1143 279Q1206 195 1298 109T1458 23Q1464 23 1475 24T1493 25Q1509 24 1509 12ZM938 1020Q938 1182 835 1276T567 1370H506Q438 1370 438 1270V721Q438 690 588 690H676Q758 690 784 702Q860
737 899 831T938 1020ZM831 -233Q831 -323 705 -471Q697 -481 688 -481Q686 -481 686 -475Q686 -473 699 -442T727 -370T741 -303Q741 -280 703 -254T664 -221Q664 -201 694 -165T745 -129Q761 -129 796 -167T831 -233Z" />
</font>
</defs>
</svg>
