<?xml version="1.0" encoding="utf-8"?>
<!-- Generator: Adobe Illustrator 18.0.0, SVG Export Plug-In . SVG Version: 6.00 Build 0)  -->
<!DOCTYPE svg PUBLIC "-//W3C//DTD SVG 1.1//EN" "http://www.w3.org/Graphics/SVG/1.1/DTD/svg11.dtd">
<svg version="1.1" id="Layer_1" xmlns="http://www.w3.org/2000/svg" xmlns:xlink="http://www.w3.org/1999/xlink" x="0px" y="0px"
	 viewBox="0 0 1000 1000" enable-background="new 0 0 1000 1000" xml:space="preserve">
<path fill="none" stroke="#888888" stroke-width="40" stroke-linecap="round" stroke-linejoin="round" stroke-miterlimit="10" d="
	M516.3,383.7H147.8c-16.6,0-21.7-22.5-6.8-29.7l325.9-153.9c16.9-8,36.5-8,53.4,0L846.2,354c15,7.2,9.8,29.7-6.8,29.7h-50.3"/>
<line fill="none" stroke="#888888" stroke-width="40" stroke-linecap="round" stroke-linejoin="round" stroke-miterlimit="10" x1="608.7" y1="383.7" x2="586.6" y2="383.7"/>
<line fill="none" stroke="#888888" stroke-width="40" stroke-linecap="round" stroke-linejoin="round" stroke-miterlimit="10" x1="195.3" y1="718.8" x2="195.3" y2="390.6"/>
<line fill="none" stroke="#888888" stroke-width="40" stroke-linecap="round" stroke-linejoin="round" stroke-miterlimit="10" x1="789.1" y1="390.6" x2="789.1" y2="718.8"/>
<path fill="none" stroke="#888888" stroke-width="40" stroke-linecap="round" stroke-linejoin="round" stroke-miterlimit="10" d="
	M841.2,820.3H145.9c-16.7,0-28.1-17-21.6-32.5l19.5-46.9c3.6-8.7,12.2-14.4,21.6-14.4h656.2c9.5,0,18,5.7,21.6,14.4l19.5,46.9
	C869.3,803.3,858,820.3,841.2,820.3z"/>
<path fill="none" stroke="#888888" stroke-width="40" stroke-linecap="round" stroke-linejoin="round" stroke-miterlimit="10" d="
	M289.1,719.6V493c0-25.9,21-46.9,46.9-46.9h0c25.9,0,46.9,21,46.9,46.9v226.6"/>
<path fill="none" stroke="#888888" stroke-width="40" stroke-linecap="round" stroke-linejoin="round" stroke-miterlimit="10" d="
	M601.6,719.6V493c0-25.9,21-46.9,46.9-46.9h0c25.9,0,46.9,21,46.9,46.9v226.6"/>
<path fill="none" stroke="#888888" stroke-width="40" stroke-linecap="round" stroke-linejoin="round" stroke-miterlimit="10" d="
	M445.3,719.6V493c0-25.9,21-46.9,46.9-46.9h0c25.9,0,46.9,21,46.9,46.9v226.6"/>
</svg>
