<?xml version="1.0" encoding="utf-8"?>
<!-- Generator: Adobe Illustrator 18.0.0, SVG Export Plug-In . SVG Version: 6.00 Build 0)  -->
<!DOCTYPE svg PUBLIC "-//W3C//DTD SVG 1.1//EN" "http://www.w3.org/Graphics/SVG/1.1/DTD/svg11.dtd">
<svg version="1.1" id="Layer_1" xmlns="http://www.w3.org/2000/svg" xmlns:xlink="http://www.w3.org/1999/xlink" x="0px" y="0px"
	 viewBox="0 0 512 512" enable-background="new 0 0 512 512" xml:space="preserve">
<g>
	<path fill="#888888" d="M256,111.9L256,111.9L256,111.9z"/>
	<path fill="#888888" d="M349.2,334.8c-11.2-3.9-29.5-5.1-37.5-8.2c-5.6-2.2-14.5-4.5-17.3-8c-2.9-3.4-2.9-28.1-2.9-28.1
		s7-6.5,9.9-13.8s4.8-27.1,4.8-27.1s0.6,0.2,1.5,0.2c2.1,0,5.9-1.4,7.7-10.6c2.2-11.3,6.4-17.2,5.3-25.5c-0.8-5.6-3.2-6.5-4.6-6.5
		c-0.7,0-1.2,0.2-1.2,0.2s5.7-8.4,5.7-37c0-29.4-22.7-58.4-64.6-58.5c-42,0.1-64.6,29.1-64.6,58.5c0,28.5,5.7,37,5.7,37
		s-0.5-0.2-1.2-0.2c-1.5,0-3.9,0.9-4.6,6.5c-1.1,8.3,3,14.3,5.3,25.5c1.8,9.2,5.6,10.6,7.7,10.6c0.9,0,1.5-0.2,1.5-0.2
		s1.9,19.9,4.8,27.1c2.9,7.3,9.9,13.8,9.9,13.8s0,24.7-2.9,28.1s-11.7,5.8-17.3,8c-8,3.1-26.3,4.3-37.5,8.2
		C151.6,338.7,117,355,117,400h278C395,355,360.5,338.7,349.2,334.8z M147.1,363.6c9.2-9.7,19.6-13.8,20.8-14.2
		c4.4-1.5,11.6-2.7,17.9-3.7c7.5-1.1,14.5-2.2,20-4.3c1-0.4,2.3-0.9,3.7-1.4c7.1-2.5,15.1-5.3,20.2-11.3c3.9-4.6,5.3-10.9,6.1-24.7
		c0.4-7,0.2-13.4,0.2-13.7v-6.9l-4.9-4.7c-1.1-1-4.7-5-5.9-8s-2.8-14.2-3.5-20.5c-1.2-11.5-6-5.5-9.7-15.2c-2-5.2-2.9-11.4-4.3-16.2
		c-1.4-4.9,6.4-9.2,4.6-15.3c-1.9-6.1-5-13.9-5-33.2c0-20.5,15.3-42.3,48.6-42.4c33.3,0,48.6,21.9,48.6,42.4c0,19.3-3.1,27.1-5,33.2
		c-1.9,6.1,6,10.4,4.6,15.3c-1.4,4.9-2.3,11-4.3,16.2c-3.8,9.7-8.5,3.7-9.7,15.2c-0.7,6.3-2.3,17.4-3.5,20.5c-1.2,3-4.7,7-5.8,8
		l-4.8,4.7v6.9c0,0.3-0.2,6.7,0.1,13.7c0.8,13.8,2.1,20.1,6,24.7c5.1,6,13.1,8.8,20.2,11.3c1.4,0.5,2.7,1,3.7,1.4
		c5.5,2.1,12.6,3.2,20,4.3c6.3,0.9,13.5,2.1,17.9,3.7c1.2,0.4,11.6,4.6,20.8,14.2c5.9,6.2,10,11.4,12.3,20.4H134.9
		C137.1,375,141.2,369.9,147.1,363.6z"/>
</g>
</svg>
