<?xml version="1.0" encoding="utf-8"?>
<!-- Generator: Adobe Illustrator 18.0.0, SVG Export Plug-In . SVG Version: 6.00 Build 0)  -->
<!DOCTYPE svg PUBLIC "-//W3C//DTD SVG 1.1//EN" "http://www.w3.org/Graphics/SVG/1.1/DTD/svg11.dtd">
<svg version="1.1" id="Layer_1" xmlns="http://www.w3.org/2000/svg" xmlns:xlink="http://www.w3.org/1999/xlink" x="0px" y="0px"
	 viewBox="0 116.5 612 585.5" enable-background="new 0 116.5 612 585.5" xml:space="preserve">
<path fill="none" d="z"/>
<g>
	<path fill="#EA4C3A" d="M612,702H0V116.5h612V702 M59.2,642.8h493.7V175.7H59.2"/>
	<path fill="none" stroke="#EA4C3A" stroke-width="30" stroke-linejoin="round" stroke-miterlimit="10" d="M314.2,206.3
		c8.2,4.1,6.1,10.2,4.1,36.7s-12.2,77.5-30.6,126.5s-46.9,97.9-71.4,132.6c-24.5,36.7-44.9,59.2-61.2,73.4s-26.5,16.3-34.7,18.4
		c-6.1,2-10.2,0-12.2-4.1c-2-4.1-2-10.2,0-16.3c2-8.2,6.1-16.3,16.3-26.5s28.6-24.5,55.1-36.7c24.5-12.2,57.1-24.5,83.6-30.6
		c26.5-8.2,46.9-12.2,65.3-14.3c18.4-4.1,32.6-6.1,49-6.1c14.3-2,30.6-2,44.9,0c14.3,2,28.6,4.1,40.8,6.1c12.2,2,22.4,6.1,32.6,12.2
		c8.2,6.1,16.3,14.3,20.4,22.4s4.1,18.4,0,24.5c-4.1,6.1-10.2,10.2-16.3,14.3c-8.2,2-16.3,2-26.5,0c-10.2-2-22.4-10.2-34.7-18.4
		c-12.2-8.2-24.5-18.4-42.8-36.7c-18.4-18.4-36.7-38.8-55.1-61.2c-18.4-22.4-32.6-42.8-40.8-61.2c-10.2-18.4-14.3-32.6-18.4-49
		c-4.1-14.3-8.2-30.6-8.2-42.8c-2-14.3,0-24.5,0-34.7c2-10.2,4.1-16.3,6.1-22.4c4.1-4.1,8.2-8.2,10.2-8.2c4.1-2,6.1-2,6.1-2
		c2,0,4.1,0,6.1,0C308,202.2,310.1,206.3,314.2,206.3z"/>
</g>
<path fill="none" d="z"/>
</svg>
