<?xml version="1.0" encoding="utf-8"?>
<!-- Generator: Adobe Illustrator 18.0.0, SVG Export Plug-In . SVG Version: 6.00 Build 0)  -->
<!DOCTYPE svg PUBLIC "-//W3C//DTD SVG 1.1//EN" "http://www.w3.org/Graphics/SVG/1.1/DTD/svg11.dtd">
<svg version="1.1" id="Layer_1" xmlns="http://www.w3.org/2000/svg" xmlns:xlink="http://www.w3.org/1999/xlink" x="0px" y="0px"
	 viewBox="0 307.6 610 583.4" enable-background="new 0 307.6 610 583.4" xml:space="preserve">
<path opacity="0.898" fill="#F96806" enable-background="new    " d="M610,891H0V307.6h610V891 M59.2,831.8h491.6V366.7H59.2"/>
<g id="Icons">
	<g>
		<path fill="#F96806" d="M376.5,520.7l-26.2,26.2c13.4,13.5,21.8,32,21.8,52.6c0,20.5-8.3,39.1-21.8,52.5l26.2,26.2
			c20.2-20.2,32.7-48,32.7-78.8S396.7,540.9,376.5,520.7z"/>
		<path fill="#F96806" d="M429,468.2l-26.2,26.2c26.9,26.9,43.5,64.1,43.5,105.1s-16.6,78.2-43.5,105.1l26.2,26.2
			c33.6-33.6,54.5-80.1,54.5-131.3S462.7,501.8,429,468.2z"/>
		<path fill="#F96806" d="M279.1,484.5v229.3l-86.8-96h-24.7v-37h24.7L279.1,484.5 M316.3,432.1H279L177,543.8h-46.4V655H177
			l102.3,111.5h37.1V432.1H316.3z"/>
	</g>
</g>
</svg>
