<?xml version="1.0" encoding="utf-8"?>
<!-- Generator: Adobe Illustrator 18.0.0, SVG Export Plug-In . SVG Version: 6.00 Build 0)  -->
<!DOCTYPE svg PUBLIC "-//W3C//DTD SVG 1.1//EN" "http://www.w3.org/Graphics/SVG/1.1/DTD/svg11.dtd">
<svg version="1.1" id="Layer_1" xmlns:bx="https://boxy-svg.com"
	 xmlns="http://www.w3.org/2000/svg" xmlns:xlink="http://www.w3.org/1999/xlink" x="0px" y="0px" viewBox="0 311.1 612 583.4"
	 enable-background="new 0 311.1 612 583.4" xml:space="preserve">
<path bx:origin="0.5 0.5" fill="#555555" d="M611.7,894.5H1.7V311.1h610V894.5 M60.9,835.3h491.6V370.2H60.9 M304.7,412.5h-97v-42.3
	h97V412.5z M400.7,454.5h-97v-42.3h97V454.5z M303.7,496.5h-97v-42.3h97V496.5z M399.7,538.5h-97v-42.3h97V538.5z M302.7,580.5h-97
	v-42.3h97V580.5z M398.7,622.5h-97v-42.3h97V622.5z M301.7,664.5h-97v-42.3h97V664.5z M397.7,706.5h-97v-42.3h97V706.5z
	 M300.7,748.5h-97v-42.3h97V748.5z M330.7,778.9c0,16.9-13.7,30.6-30.6,30.6s-30.6-13.7-30.6-30.6s13.7-30.6,30.6-30.6
	S330.7,762,330.7,778.9z"/>
</svg>
