<?xml version="1.0" encoding="utf-8"?>
<!-- Generator: Adobe Illustrator 18.0.0, SVG Export Plug-In . SVG Version: 6.00 Build 0)  -->
<!DOCTYPE svg PUBLIC "-//W3C//DTD SVG 1.1//EN" "http://www.w3.org/Graphics/SVG/1.1/DTD/svg11.dtd">
<svg version="1.1" id="Layer_1" xmlns="http://www.w3.org/2000/svg" xmlns:xlink="http://www.w3.org/1999/xlink" x="0px" y="0px"
	 viewBox="0 310.6 610 583.4" enable-background="new 0 310.6 610 583.4" xml:space="preserve">
<path opacity="0.898" fill="#0521AA" enable-background="new    " d="M610,894H0V310.6h610V894 M59.2,834.8h491.6V369.7H59.2"/>
<path fill="#0521AA" d="M387.9,568.9v-30.1c0-27.5-22.3-49.8-49.8-49.8H155.8c-27.5,0-49.8,22.3-49.8,49.8v132.7
	c0,27.5,22.3,49.8,49.8,49.8h182.4c27.5,0,49.8-22.3,49.8-49.8V642l116,64.7V505.6L387.9,568.9z M354.8,671.4
	c0,9.2-7.4,16.6-16.6,16.6H155.8c-9.2,0-16.6-7.4-16.6-16.6V538.8c0-9.2,7.4-16.6,16.6-16.6h182.4c9.2,0,16.6,7.4,16.6,16.6
	L354.8,671.4L354.8,671.4z M470.8,650.2l-80.6-44.9l80.6-43.9V650.2z"/>
</svg>
