<?xml version="1.0" encoding="utf-8"?>
<!-- Generator: Adobe Illustrator 18.0.0, SVG Export Plug-In . SVG Version: 6.00 Build 0)  -->
<!DOCTYPE svg PUBLIC "-//W3C//DTD SVG 1.1//EN" "http://www.w3.org/Graphics/SVG/1.1/DTD/svg11.dtd">
<svg version="1.1" id="Layer_1" xmlns="http://www.w3.org/2000/svg" xmlns:xlink="http://www.w3.org/1999/xlink" x="0px" y="0px"
	 viewBox="0 116.5 612 585.5" enable-background="new 0 116.5 612 585.5" xml:space="preserve">
<path fill="#DD5B26" d="M352.9,381.7c0-10.2-4.1-20.4-10.2-26.5c-6.1-6.1-18.4-10.2-34.7-10.2h-26.5v73.4H308
	c18.4,0,28.6-4.1,36.7-10.2C350.9,400.1,352.9,391.9,352.9,381.7 M424.3,379.7c0,24.5-6.1,44.9-18.4,59.2
	c-16.3,20.4-40.8,30.6-77.5,30.6h-46.9v93.8h-71.4V292h116.3c32.6,0,59.2,10.2,75.5,28.6C416.2,334.8,424.3,355.2,424.3,379.7z
	 M612,702H0V116.5h612V702z M59.2,642.8h493.7V175.7H59.2"/>
</svg>
